<svg width="45" height="40" viewBox="0 0 45 40" fill="none" xmlns="http://www.w3.org/2000/svg">
<g clip-path="url(#clip0_90_107)">
<path d="M41.9225 8.55029H13.497C12.1252 8.55029 11.0159 9.65964 11.0159 11.0314V30.8386C11.0159 32.2103 12.1252 33.3197 13.497 33.3197H38.3738L44.3976 38.7054V11.0314C44.3976 9.65964 43.2883 8.55029 41.9165 8.55029H41.9225Z" fill="#00BDE3" stroke="#1A1A1A" stroke-width="1.19284" stroke-linecap="round" stroke-linejoin="round"/>
<path d="M3.07755 1.19641H31.503C32.8748 1.19641 33.9841 2.30576 33.9841 3.67752V23.4847C33.9841 24.8565 32.8748 25.9658 31.503 25.9658H6.62029L0.596436 31.3515V3.67752C0.596436 2.30576 1.70578 1.19641 3.07755 1.19641Z" fill="#00BDE3" stroke="#1A1A1A" stroke-width="1.19284" stroke-linecap="round" stroke-linejoin="round"/>
<path d="M3.00595 25.9718V4.50059C3.00595 4.50059 3.02981 3.47475 3.99005 3.48668C4.95029 3.4986 30.2207 3.4986 30.2207 3.4986C30.2207 3.4986 31.5507 3.54035 31.5686 4.88827C31.5865 6.23021 31.5686 22.1964 31.5686 22.1964C31.5686 22.1964 31.4433 23.4131 30.3399 23.4608C29.2366 23.5085 5.44531 23.4966 5.44531 23.4966L3.00595 25.9777V25.9718Z" fill="#E7F6FB" stroke="#E7F6FB" stroke-width="1.19284" stroke-miterlimit="10"/>
<path d="M14.3225 18.9129L14.1722 16.7228L14.1364 15.7709H15.1956L15.1598 16.7228L15.0095 18.9129H14.3225ZM14.666 20.652C14.4847 20.652 14.332 20.59 14.208 20.466C14.0887 20.3371 14.029 20.1797 14.029 19.9936C14.029 19.8027 14.0887 19.6453 14.208 19.5212C14.332 19.3924 14.4847 19.328 14.666 19.328C14.8473 19.328 14.9976 19.3924 15.1169 19.5212C15.241 19.6453 15.303 19.8027 15.303 19.9936C15.303 20.1797 15.241 20.3371 15.1169 20.466C14.9976 20.59 14.8473 20.652 14.666 20.652Z" fill="#212121"/>
</g>
<defs>
<clipPath id="clip0_90_107">
<rect width="45" height="38.7018" fill="white" transform="translate(0 0.599976)"/>
</clipPath>
</defs>
</svg>
