<svg width="45" height="46" viewBox="0 0 45 46" fill="none" xmlns="http://www.w3.org/2000/svg">
<g id="Group">
<g id="Group_2">
<path id="Path 931" d="M40.0217 30.8346H7.00635L23.2923 2.25745L40.0217 30.8346Z" fill="white"/>
<path id="Rectangle 1487" d="M10.7868 10.4827H0.672974V16.9774H10.7868V10.4827Z" fill="#E7F6FB"/>
</g>
<g id="Group_3">
<g id="Group 5066">
<g id="Group 5062">
<g id="Group 5061">
<path id="Rectangle 1488" d="M0.631332 16.5C0.375223 16.5002 0.167714 16.7079 0.167848 16.964C0.167982 17.2201 0.375708 17.4276 0.631818 17.4275L10.3835 17.4224C10.6396 17.4223 10.8471 17.2145 10.847 16.9584C10.8469 16.7023 10.6391 16.4948 10.383 16.4949L0.631332 16.5Z" fill="#1A1A1A"/>
<g id="Group 5060">
<path id="Path 932" d="M5.09017 11.8706C4.996 11.7913 4.87473 11.7518 4.75196 11.7604C4.62919 11.7691 4.51459 11.8251 4.43242 11.9168L0.300031 16.654C0.260066 16.6997 0.229519 16.7528 0.210198 16.8103C0.190876 16.8678 0.183136 16.9286 0.187432 16.9892C0.191728 17.0497 0.207968 17.1088 0.23522 17.163C0.262472 17.2172 0.300216 17.2655 0.34623 17.3051C0.440401 17.3843 0.561719 17.4238 0.684489 17.4152C0.807259 17.4065 0.921863 17.3505 1.00403 17.2589L5.13642 12.5216C5.17638 12.476 5.20688 12.4228 5.2262 12.3653C5.24552 12.3078 5.25326 12.247 5.24897 12.1865C5.24467 12.1259 5.22843 12.0668 5.20118 12.0126C5.17393 11.9584 5.13618 11.9101 5.09017 11.8706Z" fill="#1A1A1A"/>
<path id="Path 933" d="M5.99584 11.8907C6.09001 11.8115 6.21133 11.772 6.3341 11.7806C6.45687 11.7893 6.57147 11.8453 6.65364 11.9369L10.77 16.6481C10.81 16.6938 10.8405 16.7469 10.8599 16.8045C10.8792 16.862 10.8869 16.9228 10.8826 16.9833C10.8783 17.0438 10.8621 17.1029 10.8348 17.1571C10.8076 17.2114 10.7698 17.2596 10.7238 17.2992C10.6297 17.3784 10.5084 17.4179 10.3856 17.4093C10.2628 17.4007 10.1482 17.3446 10.0661 17.253L5.94964 12.5418C5.90967 12.4961 5.87918 12.443 5.85986 12.3855C5.84053 12.328 5.83279 12.2672 5.83709 12.2066C5.84139 12.1461 5.85763 12.087 5.88488 12.0328C5.91213 11.9786 5.94982 11.9303 5.99584 11.8907Z" fill="#1A1A1A"/>
</g>
</g>
<path id="Path 934" d="M5.54119 11.8378L9.4434 16.5162L1.65918 16.5229L5.54119 11.8378Z" fill="#E7F6FB"/>
</g>
<path id="Rectangle 1489" d="M1.13925 10.4894C1.13925 10.2315 0.930131 10.0223 0.672165 10.0223C0.4142 10.0223 0.205078 10.2315 0.205078 10.4894V16.9841C0.205078 17.2421 0.4142 17.4512 0.672165 17.4512C0.930131 17.4512 1.13925 17.2421 1.13925 16.9841V10.4894Z" fill="#1A1A1A"/>
<path id="Rectangle 1490" d="M10.8842 10.4827C10.8842 10.2247 10.6751 10.0156 10.4172 10.0156C10.1592 10.0156 9.95007 10.2247 9.95007 10.4827V16.9774C9.95007 17.2354 10.1592 17.4445 10.4172 17.4445C10.6751 17.4445 10.8842 17.2354 10.8842 16.9774V10.4827Z" fill="#1A1A1A"/>
<g id="Group 5065">
<g id="Group 5064">
<path id="Rectangle 1491" d="M10.4579 10.9635C10.714 10.9634 10.9215 10.7557 10.9214 10.4996C10.9213 10.2434 10.7135 10.0359 10.4574 10.0361L0.705709 10.0412C0.4496 10.0413 0.242091 10.249 0.242225 10.5051C0.242359 10.7613 0.450085 10.9688 0.706194 10.9686L10.4579 10.9635Z" fill="#1A1A1A"/>
<g id="Group 5063">
<path id="Path 935" d="M5.92932 14.3589C5.85523 14.4572 5.74559 14.5225 5.62387 14.5409C5.50215 14.5593 5.37809 14.5292 5.27828 14.4572L0.395696 10.8582C0.297231 10.7856 0.231584 10.6769 0.213158 10.556C0.194732 10.435 0.225028 10.3117 0.297402 10.2131C0.37149 10.1147 0.48118 10.0494 0.602897 10.031C0.724614 10.0127 0.848683 10.0427 0.948489 10.1148L5.83102 13.7137C5.92949 13.7863 5.99513 13.895 6.01356 14.016C6.03199 14.1369 6.00169 14.2602 5.92932 14.3589Z" fill="#1A1A1A"/>
<path id="Path 936" d="M5.17997 14.3581C5.21648 14.4071 5.26236 14.4484 5.31493 14.4797C5.36749 14.5109 5.4257 14.5314 5.48623 14.54C5.54677 14.5486 5.60841 14.5451 5.66759 14.5297C5.72677 14.5144 5.78234 14.4874 5.83106 14.4505L10.6347 10.9036C10.7331 10.831 10.7988 10.7223 10.8172 10.6014C10.8356 10.4804 10.8053 10.3571 10.733 10.2585C10.6965 10.2094 10.6506 10.1681 10.598 10.1369C10.5454 10.1056 10.4872 10.0851 10.4267 10.0766C10.3661 10.068 10.3045 10.0714 10.2453 10.0868C10.1861 10.1022 10.1306 10.1291 10.0819 10.1661L5.27826 13.7129C5.1798 13.7855 5.11415 13.8942 5.09573 14.0151C5.0773 14.1361 5.1076 14.2594 5.17997 14.3581Z" fill="#1A1A1A"/>
</g>
</g>
<path id="Path 937" d="M5.55471 13.4961L2.04065 10.9171L9.02847 10.9431L5.55471 13.4961Z" fill="#E7F6FB"/>
</g>
</g>
<g id="Group 5068">
<path id="Path 938" d="M42.1396 18.1754C42.3262 18.188 42.5127 18.1494 42.6789 18.0636C42.9039 17.9325 43.1007 17.758 43.2578 17.5503C43.5799 17.1056 43.8785 16.6443 44.1525 16.1684C44.1997 16.093 44.2351 16.0109 44.2575 15.9248C44.2836 15.7888 44.2649 15.6481 44.2043 15.5236C44.1437 15.3991 44.0445 15.2976 43.9214 15.2342C43.9214 15.2342 42.3421 14.5302 42.3354 14.5235C42.2334 14.4587 42.1142 14.4265 41.9935 14.4311C41.8647 14.4263 41.7371 14.4569 41.6246 14.5196C41.512 14.5822 41.4188 14.6745 41.355 14.7865C41.355 14.7865 41.0786 15.3585 41.0651 15.3745C41.0189 15.4468 40.9668 15.4274 40.9668 15.4274C40.5895 15.2741 40.2317 15.0767 39.9008 14.8394C39.4853 14.5369 39.1016 14.193 38.7558 13.8128C38.447 13.4911 38.1693 13.1409 37.9266 12.7669C37.7741 12.5329 37.6463 12.2838 37.5452 12.0234C37.4922 11.9445 37.5914 11.8982 37.5914 11.8982C37.5914 11.8982 38.1794 11.6151 38.1794 11.6084C38.2448 11.5685 38.3045 11.5199 38.3567 11.4639C38.4455 11.3643 38.5039 11.2413 38.5249 11.1096C38.5459 10.9778 38.5286 10.8427 38.4751 10.7205L37.7384 9.06884C37.7049 9.01044 37.6676 8.9543 37.6267 8.90082C37.5277 8.7902 37.3926 8.71828 37.2456 8.69782C37.0985 8.67736 36.949 8.70971 36.8236 8.78909C36.8236 8.78909 36.0146 9.29315 36.0011 9.29315C35.6763 9.47045 35.3791 9.69431 35.119 9.95764C35.0103 10.0572 34.9232 10.1782 34.8632 10.3129C34.8033 10.4476 34.7717 10.5932 34.7704 10.7406C34.7722 10.818 34.781 10.895 34.7964 10.9708C35.0305 12.8077 35.8709 14.514 37.1845 15.8192C38.4981 17.1244 40.2097 17.9539 42.0481 18.1762H42.127L42.1396 18.1754Z" fill="#E7F6FB" stroke="#1A1A1A" stroke-width="1.11731" stroke-miterlimit="10"/>
<g id="Group 5067">
<path id="Path 939" d="M42.0212 9.39732C42.1638 9.11394 42.2391 8.80147 42.2412 8.48422C42.2433 8.16698 42.1722 7.85353 42.0333 7.56828C41.8945 7.28302 41.6917 7.03367 41.4407 6.83961C41.1897 6.64556 40.8973 6.51204 40.5863 6.44946" stroke="#212121" stroke-width="1.0165" stroke-linecap="round" stroke-linejoin="round"/>
<path id="Path 940" d="M40.9416 9.47631C41.0373 9.28748 41.0881 9.07907 41.09 8.86737C41.0918 8.65568 41.0447 8.44645 40.9523 8.25597C40.8599 8.0655 40.7247 7.89895 40.5573 7.76935C40.3899 7.63975 40.1948 7.5506 39.9873 7.50885" stroke="#212121" stroke-width="0.806482" stroke-linecap="round" stroke-linejoin="round"/>
<path id="Path 941" d="M39.968 9.47631C40.0276 9.35667 40.059 9.22493 40.0596 9.09126C40.0602 8.95759 40.03 8.82556 39.9715 8.70539C39.913 8.58522 39.8276 8.48012 39.7219 8.3982C39.6163 8.31629 39.4933 8.25976 39.3623 8.23297" stroke="#212121" stroke-width="0.806482" stroke-linecap="round" stroke-linejoin="round"/>
</g>
</g>
<path id="Rectangle 1492" d="M23.5141 22.5438H23.515C24.4179 22.5438 25.1498 21.8119 25.1498 20.909V13.6969C25.1498 12.794 24.4179 12.0621 23.515 12.0621H23.5141C22.6113 12.0621 21.8793 12.794 21.8793 13.6969V20.909C21.8793 21.8119 22.6113 22.5438 23.5141 22.5438Z" fill="#00BDE3" stroke="#1A1A1A" stroke-width="0.840085" stroke-miterlimit="10"/>
<path id="Ellipse 380" d="M23.5116 27.182C24.4126 27.182 25.143 26.4515 25.143 25.5505C25.143 24.6495 24.4126 23.9191 23.5116 23.9191C22.6105 23.9191 21.8801 24.6495 21.8801 25.5505C21.8801 26.4515 22.6105 27.182 23.5116 27.182Z" fill="#00BDE3" stroke="#1A1A1A" stroke-width="0.840085" stroke-miterlimit="10"/>
<path id="Path 942" d="M41.5012 30.9346C41.4998 30.7953 41.4612 30.659 41.3894 30.5397L24.3601 1.0477C24.2422 0.842704 24.0478 0.692865 23.8196 0.631117C23.5913 0.569369 23.3479 0.600764 23.1428 0.718386C23.0808 0.759151 23.0243 0.807711 22.9747 0.862878C22.8437 0.935887 22.7347 1.04262 22.6589 1.17201L5.69587 30.5515C5.67655 30.594 5.66109 30.6381 5.64968 30.6834C5.52596 30.8384 5.45871 31.031 5.45899 31.2294C5.45921 31.4649 5.55283 31.6906 5.71931 31.8571C5.88579 32.0235 6.11152 32.1172 6.34696 32.1174H40.6485C40.8839 32.1172 41.1096 32.0235 41.2761 31.8571C41.4426 31.6906 41.5362 31.4649 41.5364 31.2294C41.536 31.1305 41.5181 31.0323 41.4835 30.9396L41.5012 30.9346ZM23.5511 3.19998L39.2178 30.3297H7.89018L23.5569 3.19998H23.5511Z" fill="#1A1A1A"/>
<g id="Group 5070">
<path id="Path 943" d="M27.8717 41.1786H19.9749L19.2574 36.1515L28.5681 36.0927L27.8717 41.1786Z" fill="#E7F6FB"/>
<path id="Rectangle 1493" d="M28.6109 36.48C28.8906 36.48 29.1174 36.2532 29.1174 35.9734C29.1174 35.6937 28.8906 35.4669 28.6109 35.4669H19.3657C19.086 35.4669 18.8592 35.6937 18.8592 35.9734C18.8592 36.2532 19.086 36.48 19.3657 36.48H28.6109Z" fill="#1A1A1A"/>
<path id="Rectangle 1494" d="M27.7423 41.8624C28.0221 41.8624 28.2489 41.6356 28.2489 41.3559C28.2489 41.0761 28.0221 40.8493 27.7423 40.8493H20.0631C19.7833 40.8493 19.5565 41.0761 19.5565 41.3559C19.5565 41.6356 19.7833 41.8624 20.0631 41.8624H27.7423Z" fill="#1A1A1A"/>
<path id="Rectangle 1495" d="M28.2027 39.033C28.4824 39.033 28.7092 38.8062 28.7092 38.5265C28.7092 38.2467 28.4824 38.0199 28.2027 38.0199H19.7606C19.4809 38.0199 19.2541 38.2467 19.2541 38.5265C19.2541 38.8062 19.4809 39.033 19.7606 39.033H28.2027Z" fill="#1A1A1A"/>
<path id="Rectangle 1496" d="M29.1476 36.0021C29.1871 35.7251 28.9945 35.4686 28.7176 35.4291C28.4406 35.3897 28.1841 35.5822 28.1446 35.8592L27.3778 41.2402C27.3383 41.5171 27.5309 41.7737 27.8079 41.8131C28.0848 41.8526 28.3414 41.6601 28.3808 41.3831L29.1476 36.0021Z" fill="#1A1A1A"/>
<path id="Rectangle 1497" d="M19.6165 34.312C19.5806 34.0345 19.3266 33.8387 19.0491 33.8746C18.7717 33.9105 18.5758 34.1645 18.6117 34.442L19.7074 42.9125C19.7432 43.19 19.9973 43.3858 20.2747 43.3499C20.5522 43.3141 20.748 43.06 20.7121 42.7826L19.6165 34.312Z" fill="#1A1A1A"/>
<path id="Rectangle 1498" d="M27.0711 43.5081C27.3508 43.5081 27.5776 43.2813 27.5776 43.0016C27.5776 42.7218 27.3508 42.495 27.0711 42.495H20.221C19.9412 42.495 19.7144 42.7218 19.7144 43.0016C19.7144 43.2813 19.9412 43.5081 20.221 43.5081H27.0711Z" fill="#1A1A1A"/>
<path id="Rectangle 1499" d="M22.0247 35.7567H21.9189C21.6683 35.7567 21.4652 35.9598 21.4652 36.2104V41.0602C21.4652 41.3107 21.6683 41.5138 21.9189 41.5138H22.0247C22.2752 41.5138 22.4784 41.3107 22.4784 41.0602V36.2104C22.4784 35.9598 22.2752 35.7567 22.0247 35.7567Z" fill="#1A1A1A"/>
<path id="Rectangle 1500" d="M24.1038 35.7567H23.998C23.7474 35.7567 23.5443 35.9598 23.5443 36.2104V41.0602C23.5443 41.3107 23.7474 41.5138 23.998 41.5138H24.1038C24.3544 41.5138 24.5575 41.3107 24.5575 41.0602V36.2104C24.5575 35.9598 24.3544 35.7567 24.1038 35.7567Z" fill="#1A1A1A"/>
<path id="Rectangle 1501" d="M26.183 35.7567H26.0772C25.8266 35.7567 25.6235 35.9598 25.6235 36.2104V41.0602C25.6235 41.3107 25.8266 41.5138 26.0772 41.5138H26.183C26.4336 41.5138 26.6367 41.3107 26.6367 41.0602V36.2104C26.6367 35.9598 26.4336 35.7567 26.183 35.7567Z" fill="#1A1A1A"/>
<g id="Group 5069">
<path id="Ellipse 381" d="M21.6432 45.6008C22.1266 45.6008 22.5186 45.2089 22.5186 44.7255C22.5186 44.242 22.1266 43.8501 21.6432 43.8501C21.1597 43.8501 20.7678 44.242 20.7678 44.7255C20.7678 45.2089 21.1597 45.6008 21.6432 45.6008Z" fill="#1A1A1A"/>
<path id="Ellipse 382" d="M25.6638 45.6008C26.1473 45.6008 26.5392 45.2089 26.5392 44.7255C26.5392 44.242 26.1473 43.8501 25.6638 43.8501C25.1804 43.8501 24.7885 44.242 24.7885 44.7255C24.7885 45.2089 25.1804 45.6008 25.6638 45.6008Z" fill="#1A1A1A"/>
</g>
<path id="Rectangle 1502" d="M18.892 34.8486C19.1718 34.8486 19.3986 34.6218 19.3986 34.342C19.3986 34.0622 19.1718 33.8354 18.892 33.8354H17.9183C17.6386 33.8354 17.4118 34.0622 17.4118 34.342C17.4118 34.6218 17.6386 34.8486 17.9183 34.8486H18.892Z" fill="#1A1A1A"/>
</g>
</g>
</g>
</svg>
