<svg width="61" height="32" viewBox="0 0 61 32" fill="none" xmlns="http://www.w3.org/2000/svg">
<g id="Clip path group">
<mask id="mask0_90_268" style="mask-type:luminance" maskUnits="userSpaceOnUse" x="0" y="0" width="61" height="32">
<g id="a">
<path id="Vector" d="M60.4743 0.086957H0V31.913H60.4743V0.086957Z" fill="white"/>
</g>
</mask>
<g mask="url(#mask0_90_268)">
<g id="Group">
<path id="Vector_2" fill-rule="evenodd" clip-rule="evenodd" d="M3.879 16.2402C4.43507 16.2402 4.93819 16.4685 5.29945 16.8361L5.67423 16.4676C5.21771 16.0027 4.58203 15.7143 3.879 15.7143C3.1743 15.7143 2.53734 16.0044 2.08038 16.471L2.45603 16.839C2.81728 16.4693 3.32125 16.2402 3.879 16.2402ZM3.879 18.2332L3.27594 17.6424C3.42924 17.4858 3.64269 17.3884 3.879 17.3884C4.11448 17.3884 4.32792 17.4853 4.48081 17.6412L3.879 18.2332ZM3.03284 17.404L2.70632 17.0843C3.00405 16.7798 3.4195 16.5909 3.879 16.5909C4.33724 16.5909 4.75185 16.7789 5.04958 17.0821L4.7239 17.4023C4.50876 17.1833 4.20976 17.0479 3.879 17.0479C3.5474 17.0479 3.24756 17.1842 3.03284 17.404ZM1.84025 16.2356L1.49594 15.8981C2.10155 15.2797 2.94518 14.896 3.879 14.896C4.81029 14.896 5.65265 15.278 6.25782 15.8938L5.91394 16.2317C5.39645 15.7049 4.67562 15.378 3.879 15.378C3.08028 15.378 2.3582 15.7066 1.84025 16.2356Z" fill="#006DB7"/>
<path id="Vector_3" fill-rule="evenodd" clip-rule="evenodd" d="M1.62971 18.6273H6.08457C2.89133 26.7087 2.33908 31.4397 5.57169 31.3211C-1.53388 31.7353 -0.613604 24.8241 1.62971 18.6273Z" fill="#006DB7"/>
<path id="Vector_4" fill-rule="evenodd" clip-rule="evenodd" d="M5.72955 6.24875C9.79014 -0.374029 16.3735 -1.04444 21.0647 1.36022C26.2683 4.04101 27.8849 10.2306 26.5838 15.6705C25.4403 20.6378 22.1684 25.1714 17.9502 28.0885C15.388 29.8232 12.4896 30.987 9.33571 31.4994C11.701 30.7896 13.8109 29.3107 15.4668 27.4973C16.4917 26.3932 17.3984 25.132 18.1082 23.831C20.5129 20.5984 21.6166 17.4445 21.6953 14.685C21.8533 10.9793 20.2367 7.31302 16.8466 5.61817C13.8897 4.11979 9.90832 4.19898 5.72955 6.24875Z" fill="#F16127"/>
<path id="Vector_5" fill-rule="evenodd" clip-rule="evenodd" d="M2.65465 13.6996C5.96601 7.15559 12.7862 6.68254 16.8069 9.52085C18.4234 10.6639 19.4483 12.2804 19.9214 14.2121C20.4732 16.6167 20.0789 19.14 19.1726 21.5052C18.3841 23.6338 17.0831 25.7627 15.4669 27.4974C13.1805 30.0202 9.90847 31.9518 6.3997 31.9125C5.05931 31.9125 3.71892 31.597 2.41791 30.8482C4.07381 31.6367 6.63643 31.3606 8.21315 30.73C10.8152 29.6653 12.9043 27.458 14.2054 25.0136C15.8214 22.0177 17.0831 17.2079 14.5209 14.4488C12.195 11.8862 7.54315 11.0188 2.65465 13.6996Z" fill="#00A14B"/>
<path id="Vector_6" d="M29.2218 15.9008H30.5838C31.2677 15.9008 31.7488 16.0965 32.0275 16.4861C32.3049 16.8761 32.3765 17.3789 32.2418 17.995C32.1033 18.6299 31.803 19.1567 31.341 19.5751C30.879 19.9944 30.3737 20.2036 29.8257 20.2036H27.7107L29.2218 15.9008ZM29.8393 16.622L28.8359 19.4858H29.6512C30.0798 19.4858 30.4449 19.3448 30.7468 19.0631C31.05 18.7802 31.2487 18.4206 31.3439 17.9832C31.432 17.5809 31.3795 17.2526 31.186 17.0007C30.9928 16.7482 30.6837 16.622 30.2589 16.622H29.8393ZM33.4064 16.5454C33.4331 16.4234 33.4971 16.3201 33.5974 16.2341C33.6986 16.1477 33.8062 16.1049 33.9223 16.1049C34.0396 16.1049 34.1294 16.1477 34.1937 16.2341C34.2568 16.3201 34.2754 16.4234 34.2488 16.5454C34.2221 16.6682 34.1582 16.7724 34.0574 16.8584C33.9553 16.9448 33.8468 16.9875 33.7296 16.9875C33.6135 16.9875 33.5246 16.9448 33.4615 16.8584C33.3984 16.7724 33.3797 16.6682 33.4064 16.5454ZM33.9663 17.339L32.9567 20.2036H32.1444L33.154 17.339H33.9663ZM37.1972 17.339L36.9834 17.9705H36.5437C36.5789 18.1208 36.5802 18.2716 36.5467 18.4236C36.4828 18.7171 36.3265 18.9653 36.0762 19.1669C35.8267 19.3702 35.5273 19.471 35.1767 19.471C34.9992 19.471 34.8701 19.4794 34.7913 19.4972C34.7125 19.5141 34.6651 19.5569 34.6507 19.6243C34.6427 19.6611 34.6604 19.6937 34.7023 19.7208C34.7456 19.7496 34.9353 19.7924 35.272 19.8513C35.6078 19.9093 35.8352 20.0135 35.9529 20.1638C36.0715 20.3129 36.1059 20.4988 36.0576 20.7207C35.9216 21.3433 35.3851 21.6541 34.4478 21.6541C34.018 21.6541 33.7076 21.5902 33.517 21.4627C33.3264 21.3356 33.2557 21.1646 33.3027 20.949C33.3641 20.6674 33.6355 20.4526 34.117 20.3057C33.8935 20.174 33.8066 19.9974 33.8553 19.7755C33.9134 19.5087 34.1353 19.332 34.5215 19.2457C34.2479 19.0504 34.1497 18.7747 34.2276 18.4173C34.2907 18.1293 34.4576 17.8782 34.7299 17.6626C35.0013 17.447 35.3156 17.339 35.6722 17.339H37.1972ZM35.2372 18.9412C35.5345 18.9412 35.7277 18.7358 35.8175 18.3249C35.845 18.1979 35.8327 18.098 35.7819 18.0242C35.7306 17.9518 35.6455 17.915 35.5282 17.915C35.2309 17.915 35.0369 18.1242 34.9454 18.5435C34.8874 18.8086 34.9848 18.9412 35.2372 18.9412ZM35.2754 20.8355C35.3046 20.7021 35.1966 20.6085 34.9522 20.5547L34.6151 20.4746C34.5376 20.4746 34.4296 20.5022 34.2907 20.5555C34.1509 20.6102 34.0679 20.6957 34.0429 20.8101C33.9998 21.0078 34.1789 21.1057 34.5795 21.1057C34.8049 21.1057 34.9713 21.0858 35.0805 21.0447C35.1885 21.0036 35.2538 20.9333 35.2754 20.8355ZM37.9134 16.5454C37.9401 16.4234 38.0036 16.3201 38.1044 16.2341C38.2052 16.1477 38.3127 16.1049 38.4292 16.1049C38.5465 16.1049 38.6363 16.1477 38.7002 16.2341C38.7638 16.3201 38.7824 16.4234 38.7557 16.5454C38.7286 16.6682 38.6651 16.7724 38.5639 16.8584C38.4622 16.9448 38.3534 16.9875 38.2365 16.9875C38.1205 16.9875 38.0316 16.9448 37.968 16.8584C37.9049 16.7724 37.8867 16.6682 37.9134 16.5454ZM38.4732 17.339L37.4632 20.2036H36.6509L37.6609 17.339H38.4732ZM40.4599 16.7356L40.2139 17.339H40.8148L40.5687 17.9705H39.9699L39.6091 18.898C39.5786 18.9776 39.5557 19.0513 39.5409 19.1199C39.4858 19.3719 39.5392 19.4981 39.7018 19.4981C39.7997 19.4981 39.9682 19.4405 40.2088 19.3257L40.0449 20.0774C39.7789 20.1981 39.5333 20.2591 39.3059 20.2591C39.0429 20.2591 38.8536 20.171 38.7409 19.9952C38.627 19.8199 38.6011 19.593 38.6621 19.313C38.6812 19.227 38.7074 19.1427 38.7405 19.061L39.1695 17.9705H38.6177L38.8578 17.339H39.4096L39.6383 16.7356H40.4599ZM43.9793 17.3852L42.9857 20.2036H42.1755L42.2691 19.9385C41.9684 20.152 41.6826 20.2591 41.4124 20.2591C41.1367 20.2591 40.9338 20.1435 40.8025 19.9143C40.6725 19.6844 40.6454 19.3896 40.7242 19.0305C40.836 18.5164 41.0986 18.0988 41.5106 17.7753C41.9219 17.4513 42.4457 17.2903 43.0818 17.2903C43.3982 17.2903 43.6976 17.3221 43.9793 17.3852ZM42.469 19.3719L42.9484 18.0077C42.8895 18.0014 42.8311 17.998 42.7752 17.998C42.4495 17.998 42.1827 18.1009 41.9723 18.308C41.7622 18.5143 41.6233 18.7696 41.5568 19.0737C41.5191 19.2457 41.5251 19.3803 41.5746 19.4782C41.6233 19.576 41.7101 19.6243 41.8333 19.6243C42.0286 19.6243 42.2403 19.5404 42.469 19.3719ZM46.0701 15.9008L44.5531 20.2036H43.7429L45.2578 15.9008H46.0701ZM49.4395 15.9008L47.9225 20.2036H47.0509L48.5679 15.9008H49.4395ZM50.5956 17.339L50.4779 17.6626C50.8358 17.4144 51.1721 17.2903 51.4897 17.2903C51.7281 17.2903 51.8946 17.3674 51.9877 17.5228C52.0813 17.6774 52.0966 17.8951 52.036 18.1738C52.0182 18.2555 51.9932 18.3419 51.9623 18.4321L51.3406 20.2036H50.5283L51.1297 18.4944C51.1488 18.4448 51.1632 18.3952 51.1742 18.3461C51.2356 18.0632 51.1826 17.9213 51.0145 17.9213C50.821 17.9213 50.5605 18.0683 50.2344 18.3618L49.586 20.2036H48.7733L49.7855 17.339H50.5956ZM56.1412 15.9008L54.6417 20.1668C54.2821 20.2278 53.9627 20.2591 53.6816 20.2591C53.1994 20.2591 52.8428 20.1354 52.6116 19.886C52.3816 19.6378 52.3121 19.3049 52.4036 18.8852C52.4997 18.4436 52.7352 18.0675 53.1098 17.7562C53.4832 17.4453 53.9283 17.2903 54.4454 17.2903C54.5282 17.2903 54.6581 17.3001 54.8342 17.3213L55.3323 15.9008H56.1412ZM54.0513 19.5349L54.5754 18.0475C54.5075 18.037 54.4407 18.0327 54.3733 18.0327C54.0837 18.0327 53.8365 18.1145 53.6307 18.2797C53.4238 18.4461 53.2949 18.6489 53.2413 18.8916C53.1963 19.0987 53.2254 19.2626 53.3289 19.3845C53.4328 19.5057 53.5967 19.5667 53.8222 19.5667C53.8805 19.5667 53.9564 19.5561 54.0513 19.5349ZM56.6032 16.5454C56.6292 16.4234 56.6934 16.3201 56.7942 16.2341C56.895 16.1477 57.0027 16.1049 57.1183 16.1049C57.236 16.1049 57.3257 16.1477 57.3899 16.2341C57.4535 16.3201 57.4716 16.4234 57.445 16.5454C57.4185 16.6682 57.3543 16.7724 57.2536 16.8584C57.1517 16.9448 57.043 16.9875 56.9257 16.9875C56.8096 16.9875 56.721 16.9448 56.6579 16.8584C56.5948 16.7724 56.5762 16.6682 56.6032 16.5454ZM57.1628 17.339L56.1529 20.2036H55.3408L56.3508 17.339H57.1628ZM60.4749 17.3852L59.4809 20.2036H58.6709L58.7648 19.9385C58.4635 20.152 58.1776 20.2591 57.907 20.2591C57.6318 20.2591 57.4291 20.1435 57.2976 19.9143C57.1676 19.6844 57.1406 19.3896 57.2191 19.0305C57.3315 18.5164 57.5936 18.0988 58.0062 17.7753C58.4168 17.4513 58.9409 17.2903 59.5769 17.2903C59.8935 17.2903 60.1932 17.3221 60.4749 17.3852ZM58.9647 19.3719L59.4437 18.0077C59.3848 18.0014 59.3265 17.998 59.2703 17.998C58.9446 17.998 58.6778 18.1009 58.4672 18.308C58.2571 18.5143 58.1182 18.7696 58.0519 19.0737C58.0142 19.2457 58.02 19.3803 58.0699 19.4782C58.1187 19.576 58.2052 19.6243 58.3282 19.6243C58.5239 19.6243 58.7356 19.5404 58.9647 19.3719Z" fill="#5C6266"/>
<path id="Vector_7" fill-rule="evenodd" clip-rule="evenodd" d="M28.0534 23.4031V24.4987H27.7772V21.9035H28.4621C28.7009 21.9035 28.9508 21.9488 29.1422 22.1013C29.3184 22.2415 29.3938 22.4325 29.3938 22.6552C29.3938 22.8776 29.3176 23.0673 29.1422 23.2071C28.9508 23.3582 28.7001 23.4031 28.4621 23.4031H28.0534ZM28.0534 23.1431H28.5188C28.6696 23.1431 28.8314 23.1151 28.9491 23.0139C29.0575 22.922 29.0969 22.795 29.0969 22.6552C29.0969 22.5142 29.0575 22.3871 28.9491 22.2931C28.8309 22.1923 28.6696 22.164 28.5188 22.164H28.0534V23.1431Z" fill="#5C6266"/>
<path id="Vector_8" fill-rule="evenodd" clip-rule="evenodd" d="M30.5055 24.5069C30.2509 24.5069 30.0261 24.4269 29.8473 24.2435C29.666 24.0576 29.5911 23.8263 29.5911 23.5697C29.5911 23.3122 29.666 23.0797 29.8473 22.8937C30.0256 22.7095 30.2505 22.6291 30.5055 22.6291C30.7604 22.6291 30.9849 22.7095 31.1636 22.8937C31.3444 23.0797 31.4198 23.3122 31.4198 23.5697C31.4198 23.8263 31.3444 24.0576 31.1636 24.2435C30.9849 24.4269 30.76 24.5069 30.5055 24.5069ZM30.5055 24.2507C30.6867 24.2507 30.837 24.1833 30.9616 24.0525C31.0907 23.917 31.1521 23.7564 31.1521 23.5697C31.1521 23.3825 31.0912 23.2203 30.9616 23.0843C30.837 22.953 30.6867 22.8853 30.5055 22.8853C30.3242 22.8853 30.1738 22.953 30.0489 23.0843C29.9198 23.2203 29.8588 23.3825 29.8588 23.5697C29.8588 23.7564 29.9198 23.917 30.0489 24.0525C30.1738 24.1833 30.3242 24.2507 30.5055 24.2507Z" fill="#5C6266"/>
<path id="Vector_9" fill-rule="evenodd" clip-rule="evenodd" d="M32.5094 24.0395L33.0249 22.5928H33.1926L33.7126 24.0361L34.256 22.6195H34.516L33.7842 24.5016H33.6178L33.1024 23.0892L32.5882 24.5016H32.4218L31.69 22.6195H31.9661L32.5094 24.0395Z" fill="#5C6266"/>
<path id="Vector_10" fill-rule="evenodd" clip-rule="evenodd" d="M34.9958 23.5636C34.9958 23.7504 35.0619 23.9079 35.194 24.0392C35.327 24.1718 35.4858 24.2365 35.673 24.2365C35.7827 24.2365 35.8911 24.2196 35.9945 24.1811C36.1033 24.1409 36.2032 24.0769 36.2935 24.004L36.3574 23.9524V24.2442L36.3434 24.2561C36.2464 24.3365 36.1388 24.4047 36.0203 24.4487C35.9064 24.4911 35.787 24.5101 35.6654 24.5101C35.4066 24.5101 35.1758 24.4314 34.9916 24.2471C34.8073 24.0625 34.7286 23.8321 34.7286 23.5729C34.7286 23.3243 34.7908 23.0888 34.9552 22.8987C35.1085 22.7195 35.3067 22.6323 35.5422 22.6323C35.7763 22.6323 35.9911 22.7001 36.1461 22.8813C36.3006 23.0575 36.3502 23.2951 36.3557 23.5234L36.3565 23.5636H34.9958ZM36.0656 23.3387C36.0453 23.2396 36.0076 23.1456 35.9419 23.0668C35.8395 22.9411 35.7027 22.8885 35.5422 22.8885C35.3825 22.8885 35.2575 22.9609 35.1572 23.0829C35.0957 23.1596 35.0521 23.2451 35.0246 23.3387H36.0656Z" fill="#5C6266"/>
<path id="Vector_11" fill-rule="evenodd" clip-rule="evenodd" d="M37.1991 22.8932C37.3706 22.6243 37.6802 22.496 37.9805 22.6662C37.9872 22.67 37.994 22.6738 38.0008 22.6776V22.7005V22.8975V22.98C37.9792 22.9626 37.9966 22.9881 37.975 22.9707C37.546 22.7331 37.2868 23.0753 37.1991 23.3061V24.4928H36.937V24.4534V22.6463V22.6069H36.9763H37.0683H37.1597H37.1991V22.8932Z" fill="#5C6266"/>
<path id="Vector_12" fill-rule="evenodd" clip-rule="evenodd" d="M39.9197 22.1696H39.0803V21.9333H41.0361V22.1696H40.2005V24.4765H39.9197V22.1696Z" fill="#5C6266"/>
<path id="Vector_13" fill-rule="evenodd" clip-rule="evenodd" d="M44.4706 22.2101V23.041H45.5286V23.2883H44.4706V24.2192H45.7234V24.4665H44.1903V21.9627H45.6789V22.2101H44.4706Z" fill="#5C6266"/>
<path id="Vector_14" fill-rule="evenodd" clip-rule="evenodd" d="M46.4892 22.8515C46.6239 22.6986 46.7962 22.6067 47.0122 22.6067C47.2045 22.6067 47.3731 22.6673 47.5039 22.8049C47.5467 22.8511 47.5823 22.9023 47.6107 22.957L47.6521 22.8964C47.7911 22.7168 47.9744 22.6067 48.2107 22.6067C48.4034 22.6067 48.572 22.6669 48.7029 22.8045C48.8384 22.9476 48.8888 23.1289 48.8888 23.3195V24.4447H48.616V23.3339C48.616 23.2081 48.5843 23.0878 48.4949 22.993C48.4107 22.9036 48.3031 22.8667 48.1781 22.8667C48.0121 22.8667 47.8817 22.9587 47.7787 23.0776C47.7449 23.1145 47.7153 23.1551 47.689 23.1971V24.4447H47.4162V23.3339C47.4162 23.2081 47.3849 23.0878 47.2951 22.993C47.2113 22.9036 47.1033 22.8667 46.9792 22.8667C46.8128 22.8667 46.6815 22.9591 46.5785 23.0776C46.5451 23.1145 46.5155 23.1551 46.4892 23.1971V24.4447H46.2165V22.6461H46.4892V22.8515Z" fill="#5C6266"/>
<path id="Vector_15" d="M50.5877 22.9677C50.3573 22.8191 50.0295 22.856 49.758 23.2172V23.949C50.0397 24.2493 50.3996 24.2785 50.6339 24.1045C50.99 23.8406 50.9705 23.2142 50.5877 22.9677ZM49.4768 22.6459H49.75C49.7504 22.7209 49.7504 22.7962 49.7509 22.8712C49.8042 22.7683 49.905 22.706 50.0105 22.6679C50.3361 22.5506 50.7313 22.5963 50.979 22.8539C51.3178 23.2443 51.3009 23.872 50.9887 24.2217C50.6627 24.5868 50.171 24.4975 49.7818 24.295C49.7712 24.2895 49.7606 24.2836 49.75 24.2785V25.1568H49.4768V22.6459Z" fill="#5C6266"/>
<path id="Vector_16" fill-rule="evenodd" clip-rule="evenodd" d="M27.1522 20.6394H32.3435V20.938H27.1522V20.6394Z" fill="#5C6266"/>
<path id="Vector_17" fill-rule="evenodd" clip-rule="evenodd" d="M36.5264 20.6394H60.1502V20.938H36.5264V20.6394Z" fill="#5C6266"/>
<path id="Vector_18" fill-rule="evenodd" clip-rule="evenodd" d="M41.782 24.4606C41.5275 24.4606 41.3026 24.3806 41.1239 24.1972C40.9426 24.0113 40.8676 23.7801 40.8676 23.5235C40.8676 23.2659 40.9426 23.033 41.1239 22.8475C41.3021 22.6633 41.5271 22.5829 41.782 22.5829C42.0369 22.5829 42.2614 22.6633 42.4401 22.8475C42.621 23.033 42.6963 23.2659 42.6963 23.5235C42.6963 23.7801 42.621 24.0113 42.4401 24.1972C42.2614 24.3806 42.0365 24.4606 41.782 24.4606ZM41.782 24.2044C41.9632 24.2044 42.1136 24.1371 42.2381 24.0058C42.3673 23.8707 42.4287 23.7102 42.4287 23.5235C42.4287 23.3363 42.3677 23.1737 42.2381 23.0381C42.1136 22.9068 41.9632 22.8391 41.782 22.8391C41.6007 22.8391 41.4503 22.9068 41.3254 23.0381C41.1963 23.1737 41.1353 23.3363 41.1353 23.5235C41.1353 23.7102 41.1963 23.8707 41.3254 24.0058C41.4503 24.1371 41.6007 24.2044 41.782 24.2044Z" fill="#5C6266"/>
<path id="Vector_19" fill-rule="evenodd" clip-rule="evenodd" d="M52.4796 24.4606C52.2251 24.4606 52.0002 24.3806 51.8215 24.1972C51.6403 24.0113 51.5653 23.7801 51.5653 23.5235C51.5653 23.2659 51.6403 23.033 51.8215 22.8475C51.9998 22.6633 52.2247 22.5829 52.4796 22.5829C52.7346 22.5829 52.959 22.6633 53.1379 22.8475C53.3188 23.033 53.3941 23.2659 53.3941 23.5235C53.3941 23.7801 53.3188 24.0113 53.1379 24.1972C52.959 24.3806 52.7342 24.4606 52.4796 24.4606ZM52.4796 24.2044C52.6609 24.2044 52.8112 24.1371 52.9357 24.0058C53.0647 23.8707 53.1262 23.7102 53.1262 23.5235C53.1262 23.3363 53.0652 23.1737 52.9357 23.0381C52.8112 22.9068 52.6609 22.8391 52.4796 22.8391C52.2984 22.8391 52.148 22.9068 52.0231 23.0381C51.8939 23.1737 51.833 23.3363 51.833 23.5235C51.833 23.7102 51.8939 23.8707 52.0231 24.0058C52.148 24.1371 52.2984 24.2044 52.4796 24.2044Z" fill="#5C6266"/>
<path id="Vector_20" fill-rule="evenodd" clip-rule="evenodd" d="M54.4836 24.057L54.9992 22.6103H55.1668L55.6866 24.0536L56.2303 22.637H56.4903L55.7582 24.519H55.5917L55.0766 23.1067L54.5621 24.519H54.3961L53.6641 22.637H53.9405L54.4836 24.057Z" fill="#5C6266"/>
<path id="Vector_21" fill-rule="evenodd" clip-rule="evenodd" d="M56.9697 23.5636C56.9697 23.7504 57.0361 23.9079 57.1681 24.0392C57.3013 24.1718 57.4599 24.2365 57.6471 24.2365C57.7569 24.2365 57.8651 24.2196 57.9686 24.1811C58.0773 24.1409 58.1775 24.0769 58.2677 24.004L58.3314 23.9524V24.2442L58.3176 24.2561C58.2205 24.3365 58.1128 24.4047 57.9945 24.4487C57.8805 24.4911 57.7612 24.5101 57.6397 24.5101C57.3808 24.5101 57.1501 24.4314 56.9655 24.2471C56.7814 24.0625 56.7029 23.8321 56.7029 23.5729C56.7029 23.3243 56.765 23.0888 56.9294 22.8987C57.0827 22.7195 57.2811 22.6323 57.5161 22.6323C57.7505 22.6323 57.9654 22.7001 58.1203 22.8813C58.2746 23.0575 58.3245 23.2951 58.3298 23.5234L58.3308 23.5636H56.9697ZM58.0396 23.3387C58.0195 23.2396 57.9818 23.1456 57.916 23.0668C57.8137 22.9411 57.6768 22.8885 57.5161 22.8885C57.3564 22.8885 57.2318 22.9609 57.1315 23.0829C57.07 23.1596 57.0265 23.2451 56.9989 23.3387H58.0396Z" fill="#5C6266"/>
<path id="Vector_22" fill-rule="evenodd" clip-rule="evenodd" d="M59.1732 22.877C59.3445 22.6081 59.6543 22.4798 59.9545 22.65C59.9614 22.6538 59.9683 22.6576 59.9747 22.6615V22.6843V22.8813V22.9638C59.9534 22.9465 59.9709 22.9719 59.9492 22.9545C59.5201 22.7169 59.2607 23.0591 59.1732 23.2895V24.4766H58.9111V24.4372V22.6301V22.5907H58.9504H59.0422H59.1339H59.1732V22.877Z" fill="#5C6266"/>
</g>
</g>
</g>
</svg>
