<?xml version="1.0" encoding="UTF-8"?>
<svg xmlns="http://www.w3.org/2000/svg" width="21" height="21" viewBox="0 0 21 21" fill="none">
  <mask id="mask0_90_468" style="mask-type:luminance" maskUnits="userSpaceOnUse" x="0" y="0" width="21" height="21">
    <path d="M20.8 0.130001H0.800049V20.13H20.8V0.130001Z" fill="white"/>
  </mask>
  <g mask="url(#mask0_90_468)">
    <path fill-rule="evenodd" clip-rule="evenodd" d="M9.3157 3.38781L15.5891 13.6261C10.1048 14.4542 9.67508 13.6886 5.3782 16.298C1.99148 18.3605 -1.1257 13.2355 2.26883 11.1769C6.53445 8.57922 6.11258 7.80188 9.3157 3.38781Z" fill="#FFE177"/>
    <path fill-rule="evenodd" clip-rule="evenodd" d="M6.07351 15.8917C5.85476 16.0167 5.62039 16.1534 5.3782 16.298C1.99148 18.3605 -1.1257 13.2355 2.26883 11.1769C2.5032 11.0323 2.72195 10.8956 2.92898 10.7667C2.83914 12.8214 3.88601 14.5362 6.07351 15.8917Z" fill="#E33B42"/>
    <path fill-rule="evenodd" clip-rule="evenodd" d="M8.02661 14.8917L11.0891 18.3448L9.43677 19.1652L6.07349 15.8917V15.8878C6.8313 15.4503 7.46021 15.13 8.02661 14.8917Z" fill="#E33B42"/>
    <path fill-rule="evenodd" clip-rule="evenodd" d="M9.60473 3.07825C10.6008 2.46887 12.8313 4.31653 14.5813 7.19934C16.3313 10.0822 16.9446 12.9064 15.9485 13.5157C14.9485 14.1251 12.7219 12.2775 10.9719 9.39466C9.21411 6.51184 8.60864 3.68762 9.60473 3.07825Z" fill="#FE646F"/>
    <path fill-rule="evenodd" clip-rule="evenodd" d="M10.2766 8.14563L10.3235 8.01281L12.1634 6.89953L13.7337 9.48547L11.8196 10.6691C11.5306 10.2706 11.2415 9.84484 10.9681 9.39172C10.7141 8.97375 10.4836 8.55578 10.2766 8.14563Z" fill="#BE353B"/>
    <path d="M16.1673 6.46295C16.0345 6.54107 15.8666 6.50201 15.7884 6.3731C15.7103 6.24029 15.7494 6.06841 15.8822 5.9942L18.5072 4.40045C18.64 4.32232 18.808 4.36138 18.8861 4.4942C18.9642 4.62701 18.9252 4.79498 18.7923 4.8731L16.1673 6.46295Z" fill="#E33B42"/>
    <path d="M14.1126 3.64715C14.0033 3.76043 13.8314 3.76433 13.7181 3.65496C13.6048 3.5534 13.6048 3.37371 13.7103 3.26043L15.6947 1.18621C15.804 1.07293 15.9759 1.06902 16.0892 1.1784C16.1986 1.27996 16.2025 1.45965 16.097 1.56512L14.1126 3.64715Z" fill="#E33B42"/>
    <path d="M17.9837 9.97312C17.8391 10.0161 17.6829 9.93016 17.6438 9.78562C17.6009 9.63719 17.6868 9.48484 17.8313 9.43797L20.4524 8.67625C20.597 8.63328 20.7532 8.71922 20.7923 8.86375C20.8352 9.01219 20.7493 9.16453 20.6048 9.20359L17.9837 9.97312Z" fill="#E33B42"/>
    <path fill-rule="evenodd" clip-rule="evenodd" d="M12.1634 6.89875C12.515 6.6839 13.1556 7.08625 13.5853 7.80109C14.0189 8.51594 14.0853 9.26984 13.7337 9.48469C13.3782 9.69562 12.7415 9.29328 12.3079 8.57844C11.8743 7.86359 11.8079 7.11359 12.1634 6.89875Z" fill="#E33B42"/>
  </g>
</svg> 