<svg width="71" height="45" viewBox="0 0 71 45" fill="none" xmlns="http://www.w3.org/2000/svg">
<g id="Clip path group">
<mask id="mask0_90_77" style="mask-type:luminance" maskUnits="userSpaceOnUse" x="0" y="0" width="71" height="45">
<g id="a">
<path id="Vector" d="M70.4681 0.400024H0.555542V44.4H70.4681V0.400024Z" fill="white"/>
</g>
</mask>
<g mask="url(#mask0_90_77)">
<g id="Group">
<path id="Vector_2" d="M8.32769 0.586807C8.82408 0.294116 9.42689 0.394127 9.94804 0.556529C10.2793 0.892344 10.7408 1.09603 10.9867 1.51259C11.3005 1.99612 11.3363 2.60353 11.2427 3.15772C11.1087 3.89724 10.4013 4.36885 9.72967 4.57713C8.56533 4.84047 7.334 3.91192 7.14775 2.75585C7.11105 2.47691 7.1349 2.19524 7.16059 1.9163C7.39273 1.36946 7.81296 0.886839 8.32769 0.586807Z" fill="#704D93"/>
<path id="Vector_3" d="M61.5929 7.05714C62.7352 7.01586 63.9068 7.06816 64.996 7.44434C65.3731 7.75905 65.864 7.88384 66.2548 8.17653C67.0659 8.74723 67.7798 9.5831 67.9055 10.5988C67.9844 11.197 68.1532 11.7842 68.155 12.3916C68.1569 14.2267 68.1302 16.0617 68.1504 17.8968C68.1504 18.2152 68.199 18.5299 68.2615 18.8409C68.2715 18.8951 68.2927 19.0042 68.3028 19.0584C68.9982 19.0337 69.6937 18.974 70.3911 18.996C70.4644 20.0649 70.4754 21.1375 70.4416 22.2083C68.6827 22.2404 66.9238 22.2643 65.1667 22.3358C64.6822 22.3836 64.8345 21.532 64.3408 21.5898C63.8601 21.6403 63.3427 21.7761 63.0526 22.1936C62.5783 22.3367 62.0755 22.3486 61.5846 22.3854C60.8782 22.3954 60.1634 22.4294 59.466 22.289C58.7156 22.1596 58.0273 21.7808 57.4575 21.2843C56.9997 20.8879 56.5043 20.5044 56.2143 19.9604C55.9254 19.4282 55.7198 18.8419 55.6345 18.2418L55.6268 18.1523C55.6208 18.0367 55.6103 17.9598 55.6093 17.8518C55.6084 17.7544 55.6093 17.8518 55.6022 17.6302C55.5813 17.3863 55.6821 17.104 55.7041 16.8884C55.9895 15.2488 57.1658 13.8047 58.7036 13.1734C59.467 12.8505 60.301 12.7632 61.1176 12.6761C62.3159 12.5761 63.4958 12.9073 64.6922 12.8697C64.7299 12.2494 64.6565 11.6301 64.5638 11.0172C64.5281 10.8502 64.5153 10.6456 64.339 10.563C63.6536 10.1602 62.8407 9.99048 62.0498 10.0639C60.7937 10.1107 59.6655 10.69 58.4406 10.8974C58.3333 10.5772 58.1785 10.2209 58.1069 9.89057C57.9881 9.53102 57.8799 9.21844 57.7599 8.87247C57.6822 8.65119 57.5587 8.4839 57.5318 8.2637C58.043 7.98109 58.6228 7.87191 59.1679 7.67648C59.956 7.40306 60.746 7.07366 61.5929 7.05714ZM60.9607 15.8122C60.3542 15.9618 59.8624 16.3985 59.4898 16.8829C59.2174 17.238 59.0586 17.7473 59.2779 18.1675C59.5385 18.663 60.0037 19.0557 60.5331 19.2373C61.6553 19.4539 62.7674 19.0171 63.7417 18.4959C64.2684 18.1739 64.7987 17.6435 64.7199 16.9719C64.75 16.5792 64.3363 16.4086 64.0611 16.2343C63.1398 15.6635 61.9975 15.681 60.9607 15.8122Z" fill="#704D93"/>
<path id="Vector_4" d="M9.94805 0.556396C10.5509 0.771097 11.0913 1.21702 11.3234 1.82442C11.5987 2.4621 11.5079 3.22457 11.1463 3.80904C10.5867 4.54489 9.5636 4.96603 8.66168 4.67243C7.57808 4.32101 6.70276 3.04656 7.1606 1.91617C7.13491 2.1951 7.11106 2.47678 7.14776 2.75571C7.33401 3.91179 8.56534 4.84033 9.72968 4.57699C10.4013 4.36872 11.1087 3.89711 11.2427 3.15759C11.3363 2.6034 11.3005 1.99599 10.9867 1.51246C10.7408 1.0959 10.2793 0.892211 9.94805 0.556396Z" fill="#704D93"/>
<path id="Vector_5" d="M64.9961 7.44421C66.0888 7.75801 67.0486 8.48286 67.6569 9.44075C68.1615 10.2665 68.1918 11.262 68.2294 12.1998C68.2625 14.4138 68.1615 16.6277 68.2615 18.8408C68.1992 18.5297 68.1505 18.215 68.1505 17.8966C68.1304 16.0616 68.1569 14.2265 68.1551 12.3915C68.1532 11.7841 67.9844 11.1969 67.9055 10.5987C67.7798 9.58297 67.0661 8.7471 66.2549 8.1764C65.864 7.88371 65.3731 7.75892 64.9961 7.44421Z" fill="#704D93"/>
<path id="Vector_6" d="M11.6703 23.8643C12.8236 23.8157 14.01 23.7945 15.1193 24.1597C15.6707 24.3303 16.1101 24.8084 16.7167 24.8047C17.2709 24.8928 17.2681 24.0093 17.803 24.0239C19.2289 23.8936 20.6639 23.9486 22.0924 23.8551C21.8558 24.3395 21.3007 24.5019 20.93 24.858C20.2665 25.4021 19.8078 26.1572 19.5426 26.9664C19.4903 27.1454 19.4701 27.3325 19.4793 27.5188C19.5858 29.2951 19.5656 31.0752 19.5646 32.8542C19.5463 34.4727 19.5904 36.0977 19.4023 37.7098C19.2977 38.9567 19.1436 40.2238 18.6582 41.3882C18.271 42.3157 17.4543 42.9755 16.6103 43.4755C15.0476 44.371 13.142 44.6031 11.3895 44.2269C10.0435 43.9645 8.74245 43.3057 7.8451 42.2515C7.44506 41.7459 7.07345 41.2019 6.85967 40.589C7.97906 41.0624 9.17092 41.3634 10.3821 41.4652C11.418 41.5386 12.4493 41.3385 13.4337 41.0348C14.1558 40.7909 14.8807 40.4467 15.3615 39.8339C16.1781 38.875 16.4148 37.5915 16.5038 36.372C15.957 36.595 15.4523 36.9115 14.8917 37.1015C14.2696 37.3336 13.6191 37.495 12.9548 37.5373C12.0877 37.5978 11.2216 37.4107 10.4032 37.1373C9.61868 36.8601 8.85346 36.4803 8.24055 35.9087C7.13585 34.8672 6.34218 33.4607 6.17612 31.9394C6.13391 31.1697 6.12198 30.3979 6.17244 29.6282C6.36513 27.8821 7.27256 26.237 8.62041 25.1167C9.50215 24.4423 10.5454 23.923 11.6703 23.8643ZM11.9859 26.6627C11.4969 26.7802 11.0298 26.9976 10.6509 27.3325C9.79026 28.0336 9.33975 29.1134 9.13973 30.1815C9.01862 30.787 9.17643 31.3981 9.34617 31.9771C9.57097 32.7203 9.97926 33.4341 10.6197 33.8937C11.1078 34.2323 11.6473 34.5112 12.229 34.6433C12.7135 34.7453 13.2181 34.6728 13.6741 34.4892C14.9761 34.0534 16.0303 32.9312 16.3892 31.6073C16.5625 30.6604 16.368 29.6787 15.9936 28.8025C15.5743 27.9564 14.899 27.1958 14.0026 26.8481C13.3741 26.5682 12.6539 26.4856 11.9859 26.6627Z" fill="#2D2F37"/>
<path id="Vector_7" d="M61.693 24.047C62.06 23.88 62.4674 23.8542 62.861 23.7946C63.4675 23.7029 64.0841 23.6763 64.6951 23.7404C65.3475 23.8019 66.0366 23.8762 66.5861 24.2689C67.4413 24.8627 68.1496 25.7481 68.3533 26.7867C68.4423 27.7675 68.3937 28.7547 68.3808 29.7384C68.3717 31.0816 68.3395 32.4258 68.3607 33.77C68.3753 34.1682 68.3304 34.5847 68.5056 34.9573C68.9387 35.9959 69.8388 36.7253 70.4683 37.6337C69.3406 37.6153 68.2129 37.6263 67.0853 37.6217C66.8697 37.6098 66.6146 37.5988 66.4678 37.4181C66.2017 37.1327 66.0017 36.7933 65.7366 36.5079C65.5604 36.3078 65.3475 36.1262 65.2557 35.8693C65.1283 35.5206 65.1668 35.1435 65.1603 34.7802C65.1621 33.0048 65.1639 31.2302 65.1631 29.4558C65.1621 28.7172 65.1759 27.974 65.0585 27.2427C65.0245 27.0794 64.9713 26.8665 64.7924 26.8115C63.9115 26.6454 63.0068 26.8537 62.2068 27.2299C61.6536 27.4711 61.0902 27.7364 60.6525 28.1602C60.4525 28.3538 60.4819 28.6521 60.4617 28.9062C60.4259 30.0686 60.4442 31.232 60.446 32.3946C60.4662 33.1625 60.4159 33.9361 60.524 34.6985C60.6801 35.6582 61.2691 36.4896 62.0022 37.1024C62.2417 37.2951 62.4765 37.4942 62.6858 37.719C61.9535 37.731 61.2251 37.6383 60.4938 37.6309C59.7854 37.6125 59.0367 37.6813 58.3771 37.3713C57.7513 37.0281 57.4219 36.3051 57.3714 35.616C57.3044 33.3167 57.3843 31.0164 57.3641 28.7162C57.3513 27.9107 57.4402 27.0711 57.1273 26.3059C56.8466 25.6856 56.3769 25.1563 55.8089 24.7819C55.5171 24.5645 55.1355 24.3919 55.0464 24.002C56.5227 23.9157 58.01 24.0525 59.4854 23.8974C59.7818 23.8781 60.0855 23.8882 60.3745 23.9635C60.5387 24.1258 60.4644 24.3837 60.503 24.591C60.67 24.5928 60.8562 24.6561 61.0132 24.5708C61.2416 24.3992 61.4287 24.1689 61.693 24.047Z" fill="#2D2F37"/>
<path id="Vector_8" d="M26.0332 23.9213C27.0517 23.7864 28.0857 23.8314 29.1097 23.8718C30.1107 23.9297 31.0072 24.4407 31.7916 25.0288C33.2541 26.2024 34.1423 27.9833 34.4175 29.8183C34.5213 31.2845 34.2626 32.8003 33.5643 34.1022C32.8679 35.3794 31.7696 36.4226 30.4685 37.0704C29.3566 37.6687 28.0435 37.7796 26.8066 37.6255C24.9588 37.3989 23.2458 36.308 22.2467 34.738C21.4483 33.5224 21.0309 32.0874 20.9143 30.6459C20.919 29.7403 21.1905 28.8577 21.5098 28.0171C22.0191 26.6757 22.8796 25.4233 24.1156 24.6581C24.6982 24.2892 25.3478 24.0213 26.0332 23.9213ZM27.0095 26.6381C25.8616 26.9391 24.8744 27.8235 24.4559 28.9365C23.9761 30.2184 24.0881 31.6763 24.6275 32.9214C25.0477 33.7747 25.9029 34.3463 26.7938 34.6188C27.7536 34.8601 28.7868 34.6004 29.6135 34.0839C30.4217 33.5279 31.0577 32.6535 31.1732 31.6625C31.3704 30.5339 31.2255 29.3375 30.6888 28.3209C30.2832 27.6987 29.7051 27.1703 29.0161 26.8822C28.3776 26.6537 27.6857 26.5225 27.0095 26.6381Z" fill="#2D2F37"/>
<path id="Vector_9" d="M33.8827 23.9467C35.8314 23.9908 37.7813 23.8366 39.7291 23.8899C39.6539 24.0917 39.5558 24.3111 39.3309 24.3826C38.7906 24.5826 38.2886 24.8854 37.8867 25.3019C37.7959 25.4102 37.7051 25.545 37.7326 25.6946C37.8006 26.2112 38.0052 26.6948 38.1748 27.1829C38.8061 28.8362 39.3529 30.5273 40.1549 32.1099C40.4668 31.6797 40.5825 31.1531 40.7622 30.6621C41.1073 29.6813 41.4725 28.7087 41.7991 27.7214C42.1643 26.6901 42.4652 25.6194 43.0488 24.6844C43.2432 24.3651 43.5286 24.055 43.9205 24.011C44.8472 23.8981 45.783 23.9853 46.7134 23.9559C47.1134 23.9724 47.5409 23.8899 47.919 24.0578C48.2227 24.0422 48.5218 23.9679 48.8273 23.9642C50.4661 23.9642 52.1057 23.9459 53.7443 23.9807C53.816 25.9267 53.7646 27.8747 53.771 29.8225C53.7665 31.1704 53.7673 32.5191 53.7618 33.867C53.76 34.5964 53.7701 35.3287 53.8848 36.0507C54.2655 36.3352 54.7206 36.4958 55.1124 36.7646C55.4501 36.9976 55.8574 37.1985 55.9914 37.6207C54.583 37.6252 53.1747 37.627 51.7662 37.6079C51.4653 37.5839 51.1175 37.6252 50.8688 37.4206C50.5541 37.1077 50.5367 36.6334 50.4871 36.2195C50.4293 33.4147 50.4633 30.6089 50.4779 27.8031C50.4789 27.0232 50.4478 26.1828 50.0036 25.5112C49.4989 24.7863 48.7044 24.2606 47.8291 24.1165C47.5024 24.1578 47.2447 24.3854 46.9978 24.5845C46.6739 24.8734 46.3656 25.1818 46.0766 25.5065C45.1682 26.6801 44.8049 28.1444 44.281 29.506C43.6158 31.3907 42.9002 33.256 42.2322 35.1387C41.9753 35.9223 41.6275 36.671 41.377 37.4564C40.8807 37.6289 40.3476 37.5051 39.842 37.4454C39.5218 37.4334 39.1749 37.3784 38.9492 37.1279C38.6529 36.7848 38.5088 36.3443 38.3144 35.9416C37.6931 34.4901 37.1398 33.011 36.5462 31.5494C35.7563 29.6069 35.0553 27.6241 34.0744 25.7662C33.8239 25.212 33.4587 24.7111 33.2633 24.133C33.3258 23.8605 33.6798 23.9734 33.8827 23.9467Z" fill="#2D2F37"/>
<path id="Vector_10" d="M2.22617 33.2304C2.90974 33.1745 3.71533 33.0827 4.29245 33.5314C4.70809 34.0048 4.8712 34.5898 4.99096 35.2316C4.96241 35.8053 4.70258 36.2418 4.38695 36.6593C4.21813 36.9014 3.97314 37.0767 3.70065 37.1841C3.32355 37.3299 2.92808 37.5253 2.51429 37.4235C1.68117 37.1831 0.888424 36.5978 0.613166 35.7481C0.412228 35.0608 0.772815 34.3691 1.13983 33.8066C1.38848 33.4544 1.81696 33.2974 2.22617 33.2304Z" fill="#2D2F37"/>
<path id="Vector_11" d="M45.9271 33.5359C46.5317 33.3938 47.2033 33.5984 47.6291 34.0507C48.1062 34.5388 48.4769 35.1774 48.5025 35.8738C48.4576 36.4619 48.1208 36.9959 47.6915 37.3859C47.1758 37.8355 46.4409 37.8226 45.7976 37.8025C45.1462 37.7915 44.7013 37.2318 44.4113 36.7107C44.1095 36.2152 44.0847 35.5977 44.2517 35.0517C44.4123 34.2507 45.1728 33.7177 45.9271 33.5359Z" fill="#2D2F37"/>
<path id="Vector_12" d="M43.7158 2.40995C44.3682 1.69337 45.3187 1.30525 46.2564 1.13551C47.306 1.06303 48.3538 1.29424 49.4063 1.20616C49.3467 1.37957 49.2558 1.54748 49.0779 1.6218C48.1621 2.10259 47.3033 2.7054 46.6014 3.46969C46.2234 3.86332 45.9683 4.36245 45.8344 4.88911C45.4288 6.21861 45.471 7.62243 45.4453 8.99688C45.4288 11.3825 45.4986 13.7671 45.4866 16.1527C45.4986 17.1317 45.4673 18.1134 45.5343 19.0916C46.362 19.0741 47.1786 18.9053 48.0061 18.898C47.9833 20.0256 48.0768 21.1614 47.9098 22.2808C47.3345 22.3808 46.7492 22.347 46.1692 22.357C45.0068 22.368 43.8442 22.3148 42.6826 22.3533C42.5093 22.3478 42.3221 22.3735 42.1679 22.2781C42.0478 21.8928 42.0633 21.4789 41.9532 21.0908C41.4027 21.2495 40.9705 21.6367 40.5467 22.0028C40.0993 22.2931 39.6636 22.4456 39.1709 22.552C38.6213 22.6465 38.0015 22.7258 37.4409 22.6469C36.8756 22.5699 36.3114 22.4791 35.7571 22.3423C34.7745 22.1084 33.9212 21.5386 33.0964 20.9798C32.0889 20.1935 31.2677 19.1612 30.7465 17.9923C30.3365 17.0051 30.1749 15.9278 30.2052 14.8627C30.1795 13.8084 30.2548 12.7276 30.6567 11.7412C31.2843 10.3099 32.3431 9.05927 33.7001 8.26929C34.7534 7.65087 35.9599 7.30863 37.1711 7.19119C38.2703 7.15908 39.3566 7.41415 40.3944 7.75547C40.9907 7.95182 41.5193 8.31057 42.123 8.48673C42.1349 7.92246 42.1331 7.3591 42.1313 6.79482C42.079 5.20107 42.7019 3.6266 43.7158 2.40995ZM37.105 10.486C36.4242 10.597 35.7516 10.831 35.2003 11.2531C34.6103 11.6852 34.2919 12.3715 34.0277 13.0313C33.5496 14.2699 33.6505 15.6701 34.1304 16.8922C34.5047 17.718 35.1782 18.3841 35.9554 18.8373C36.5224 19.186 37.1866 19.4686 37.8647 19.3933C38.7134 19.2164 39.576 18.9456 40.2539 18.3841C41.0055 17.7712 41.5808 16.9408 41.9 16.0261C42.1661 15.2719 42.0735 14.4571 41.9184 13.6909C41.7596 12.7496 41.0963 11.9844 40.376 11.4008C39.4732 10.6594 38.2611 10.32 37.105 10.486Z" fill="#2B5B9F"/>
<path id="Vector_13" d="M22.1438 7.10291C23.2027 6.92674 24.3073 6.98178 25.3304 7.31394C26.5049 7.70021 27.3912 8.70123 27.8371 9.83071C28.0985 10.5299 28.1005 11.2887 28.1105 12.0245C28.1288 14.3944 28.061 16.7663 28.1582 19.1345C28.5628 19.1023 28.973 19.0931 29.3639 18.972C29.6308 18.8885 29.9125 18.8922 30.1896 18.8932C30.3594 19.9914 30.1924 21.1035 30.2658 22.2072C28.3491 22.2072 26.4314 22.2017 24.5175 22.3119C24.3779 18.7271 24.577 15.1368 24.4019 11.5538C24.3404 11.1675 24.4064 10.7418 24.2183 10.3877C23.9036 10.273 23.5605 10.3152 23.2338 10.339C22.4254 10.4262 21.6089 10.5941 20.8859 10.9804C20.4354 11.251 19.8766 11.4309 19.5536 11.8575C19.3151 12.9632 19.3958 14.1073 19.3803 15.2313C19.405 16.5387 19.3178 17.8517 19.4536 19.1556C20.1647 19.0876 20.8418 18.8132 21.5602 18.8077C21.6272 19.9455 21.53 21.086 21.5712 22.2256C21.151 22.2972 20.7217 22.2714 20.2968 22.2852C18.7783 22.2844 17.258 22.3119 15.7404 22.2567C15.722 19.885 15.7524 17.5122 15.778 15.1395C15.7945 13.6155 15.733 12.0906 15.777 10.5675C15.0229 10.584 14.2705 10.6354 13.5163 10.651C13.4466 9.60959 13.4043 8.56728 13.363 7.52496C15.2156 7.50845 17.0699 7.5635 18.9215 7.49377C19.3123 7.40752 19.4086 7.88831 19.6297 8.11035C20.4391 7.71305 21.2198 7.17263 22.1438 7.10291Z" fill="#24A039"/>
<path id="Vector_14" d="M5.86324 7.526C7.85611 7.53517 9.88881 7.48546 11.8808 7.53684C11.9237 7.90918 11.8906 8.28101 11.9016 8.66288C11.9066 8.83714 11.8872 9.01004 11.9024 9.17938C11.9859 11.7466 11.9042 14.3157 11.9896 16.882C12.0107 17.627 11.9978 18.3721 12.0309 19.1171C12.7034 19.0354 13.3649 18.8418 14.0495 18.8868C14.2504 19.9961 14.1293 21.1283 14.0513 22.2431C12.1584 22.2367 10.2637 22.3184 8.37085 22.2725C8.34331 18.3886 8.34791 14.5038 8.29193 10.6208C7.52304 10.6153 6.68006 10.6318 5.90648 10.5791C5.83599 10.0837 5.93664 9.50786 5.90177 8.9977C5.88618 8.50684 5.8403 8.01687 5.86324 7.526Z" fill="#CD328A"/>
<path id="Vector_15" d="M47.7163 7.47729C49.6559 7.48646 51.5947 7.54519 53.5343 7.52408C53.582 9.63623 53.5472 11.7493 53.5728 13.8614C53.571 15.6158 53.604 17.371 53.5728 19.1263C54.072 19.04 54.561 18.8464 55.0767 18.8932C55.2143 18.8702 55.2528 19.0335 55.2886 19.1308C55.5465 20.1218 55.5748 21.1576 55.4932 22.1734C53.7233 22.2587 51.9479 22.1935 50.1762 22.2109C50.1 18.3299 50.211 14.4459 50.144 10.5648C49.3523 10.6042 48.5614 10.6639 47.7723 10.7373C47.7961 9.65091 47.7915 8.56181 47.7163 7.47729Z" fill="#0A957A"/>
<path id="Vector_16" d="M37.2262 12.8194C37.9336 12.6386 38.663 12.9368 39.2044 13.3855C39.5292 13.6616 39.7384 14.0663 39.7678 14.493C39.9137 15.415 39.3329 16.3518 38.5235 16.7675C37.3666 17.2547 35.8471 16.3179 35.7958 15.0489C35.794 14.5048 36.038 14.003 36.3114 13.547C36.5169 13.2084 36.8363 12.9212 37.2262 12.8194Z" fill="#FCB408"/>
</g>
</g>
</g>
</svg>
