<?xml version="1.0" encoding="UTF-8"?>
<svg xmlns="http://www.w3.org/2000/svg" width="25" height="26" viewBox="0 0 25 26" fill="none">
  <mask id="mask0_90_441" style="mask-type:luminance" maskUnits="userSpaceOnUse" x="0" y="0" width="25" height="26">
    <path d="M24.8382 15.4295L14.8538 0.586182L0.0104806 10.5707L9.99496 25.4139L24.8382 15.4295Z" fill="white"/>
  </mask>
  <g mask="url(#mask0_90_441)">
    <path d="M15.2683 20.5781L16.5773 19.1733L16.4461 19.0961L15.2098 19.7651L12.8359 20.2666L12.4619 20.4466C12.3477 20.6289 12.2704 20.8527 12.3472 21.0803C12.349 21.0856 12.3508 21.0909 12.3526 21.0962C12.4713 21.4485 12.8579 21.6323 13.206 21.502L14.7515 20.9236C14.9481 20.8501 15.1251 20.7318 15.2683 20.5781Z" fill="#FF4D63"/>
    <path d="M20.6602 12.7873L19.1082 12.5854L16.4714 13.0721L16.3319 13.3946C16.4504 13.4877 16.5566 13.6055 16.6455 13.7534C17.3035 14.8483 16.144 15.4073 15.7242 15.4228C15.4486 15.433 14.8279 15.4653 14.4341 15.4862C14.2336 15.4968 14.0515 15.3741 13.986 15.1842C13.8483 14.7846 13.5612 14.1049 13.0963 13.6991C12.866 13.498 12.5298 13.4751 12.2737 13.6422C12.1272 13.7378 12.0674 13.9228 12.1302 14.086L12.9905 16.3228C13.1055 16.6215 13.3696 16.8366 13.6851 16.8906C14.0826 16.9587 14.6711 17.0276 15.3151 16.9953C15.4183 16.9902 15.4602 17.1258 15.3714 17.1789C15.0471 17.3725 14.583 17.652 14.2888 17.8401C14.1935 17.901 14.0767 17.916 13.9694 17.8802C13.474 17.715 12.0124 17.2571 11.1996 17.3141C10.9417 17.3322 10.7132 17.486 10.6002 17.7186C10.4976 17.9298 10.6045 18.1831 10.8275 18.2569L12.6847 18.8712C12.745 18.8912 12.736 18.9791 12.6729 18.9862C12.1455 19.0463 11.0519 19.235 10.908 19.7748C10.9068 19.779 10.9058 19.7832 10.9046 19.7874C10.805 20.1662 11.1074 20.5307 11.4988 20.5122C12.6317 20.4585 14.8146 20.2737 15.8531 19.64C17.2911 18.7625 18.4949 17.6991 19.9154 17.2738C20.12 17.2126 20.2922 17.161 20.4421 17.1161L20.5917 17.0155L20.6602 12.7873Z" fill="#FF4D63"/>
    <path d="M20.5911 11.7466C19.8202 11.6453 18.8537 11.4863 18.1845 11.2639C16.9036 10.8381 13.2111 11.6147 12.7734 12.1152C12.3357 12.6158 13.0889 13.3641 13.7387 13.2853C14.3008 13.2171 15.5726 12.7982 16.3317 13.3946C17.8257 12.6643 19.9402 12.8697 20.6571 12.968L20.6749 11.8713L20.5911 11.7466Z" fill="#FF4D63"/>
    <path d="M17.0173 16.5613C16.9341 16.4376 16.7664 16.4047 16.6427 16.4879C16.3526 16.6831 15.8811 16.8806 15.3591 17.0029C15.4281 17.0315 15.4461 17.1343 15.3714 17.1788C15.1401 17.3169 14.838 17.4986 14.5769 17.6597C15.4944 17.6135 16.4339 17.2791 16.9441 16.9359C17.0677 16.8527 17.1005 16.685 17.0173 16.5613Z" fill="#FF4D63"/>
    <path d="M17.0726 18.008C17.0016 17.8766 16.8381 17.8278 16.7069 17.8987L14.3301 19.1813C14.1808 19.2601 14.0097 19.2764 13.8458 19.2263L12.7132 18.8922C12.7376 18.9254 12.7216 18.9806 12.6721 18.9862C12.4322 19.0136 12.0754 19.0676 11.7439 19.1691L13.6906 19.7434C13.9894 19.8347 14.3061 19.8046 14.5845 19.6575L16.9633 18.3738C17.0945 18.303 17.1435 18.1392 17.0726 18.008Z" fill="#FF4D63"/>
    <path d="M22.2222 16.984L22.3221 12.9243C22.2393 12.8084 22.103 12.7335 21.949 12.7385L20.883 12.773C20.7231 12.7782 20.5835 12.8596 20.4968 12.9814L20.3999 16.9194C20.3936 17.1736 20.5986 17.3827 20.8529 17.3816L21.8207 17.3774C22.039 17.3764 22.2168 17.2021 22.2222 16.984Z" fill="#FF4D63"/>
    <path d="M20.8872 12.7929L21.9331 12.759C22.0989 12.7537 22.2446 12.8421 22.3219 12.9751L22.348 11.9144C22.3537 11.6827 22.1635 11.4939 21.9318 11.5014L20.9592 11.5329C20.7201 11.5407 20.5287 11.7336 20.5228 11.9727L20.4972 13.0123C20.5811 12.8843 20.7237 12.7982 20.8872 12.7929Z" fill="#FF4D63"/>
    <path d="M9.57926 5.422L8.27026 6.82676L8.40141 6.90398L9.63776 6.235L12.0116 5.73353L12.3856 5.55352C12.4998 5.37119 12.5771 5.14742 12.5003 4.91981C12.4985 4.91445 12.4967 4.90914 12.4949 4.90385C12.3762 4.55157 11.9896 4.36778 11.6414 4.49808L10.096 5.07641C9.89939 5.15003 9.72244 5.26834 9.57926 5.422Z" fill="#FF4D63"/>
    <path d="M11.1108 12.7147C10.4609 12.7935 8.86219 13.3416 8.2042 12.2467C7.88928 11.7226 7.99083 11.3214 8.22829 11.0437L8.02566 10.7424L4.90094 11.5849L4.2053 12.2349L4.17456 14.1288L4.25841 14.2534C5.02932 14.3547 5.99579 14.5137 6.66502 14.7361C7.94591 15.1619 11.6385 14.3853 12.0762 13.8847C12.5139 13.3842 11.7607 12.6359 11.1108 12.7147Z" fill="#FF4D63"/>
    <path d="M8.22712 11.0437C8.48574 10.7413 8.90552 10.5854 9.12438 10.5773C9.39998 10.5671 10.0207 10.5349 10.4145 10.514C10.6149 10.5033 10.7971 10.6261 10.8625 10.8159C11.0002 11.2156 11.2874 11.8952 11.7522 12.301C11.9825 12.5021 12.3188 12.525 12.5748 12.3579C12.7213 12.2623 12.7812 12.0774 12.7184 11.9141L11.858 9.67735C11.7431 9.37857 11.479 9.16352 11.1635 9.1095C10.7659 9.04144 10.1775 8.97253 9.53351 9.00477C9.43029 9.00995 9.38842 8.87427 9.47719 8.82126C9.80148 8.62766 10.2656 8.34813 10.5597 8.16004C10.6551 8.0991 10.7718 8.08416 10.8792 8.11995C11.3746 8.28507 12.8361 8.74302 13.649 8.68599C13.9069 8.66789 14.1354 8.51413 14.2484 8.28151C14.351 8.07029 14.2441 7.81702 14.0211 7.74326L12.1639 7.12893C12.1035 7.10897 12.1125 7.02105 12.1757 7.01387C12.703 6.9538 13.7967 6.76509 13.9406 6.22532C13.9417 6.22114 13.9428 6.21692 13.9439 6.21275C14.0436 5.83387 13.7412 5.46937 13.3498 5.48794C12.2169 5.54166 10.034 5.7264 8.99555 6.36007C7.55749 7.23757 6.3537 8.30102 4.93324 8.72628C4.72859 8.78755 4.55642 8.8391 4.40649 8.884L4.25692 8.9846L4.19995 12.4946C5.66382 11.3226 7.37684 11.0846 8.22712 11.0437Z" fill="#FF4D63"/>
    <path d="M7.83115 9.43884C7.91436 9.56254 8.08209 9.59537 8.2058 9.51216C8.49591 9.31701 8.96737 9.11955 9.48935 8.99717C9.42039 8.96864 9.4024 8.86583 9.47705 8.82126C9.70833 8.6832 10.0105 8.50154 10.2716 8.3404C9.35404 8.38662 8.41454 8.72104 7.90442 9.06418C7.78076 9.1474 7.74794 9.31513 7.83115 9.43884Z" fill="#FF4D63"/>
    <path d="M7.77549 7.99199C7.84652 8.12338 8.01005 8.17218 8.14127 8.10134L10.5181 6.81874C10.6673 6.7399 10.8384 6.72364 11.0023 6.77369L12.1349 7.10783C12.1105 7.0746 12.1266 7.01943 12.1761 7.01379C12.4159 6.98647 12.7728 6.93238 13.1043 6.83092L11.1576 6.25661C10.8587 6.1653 10.542 6.19541 10.2637 6.34248L7.88481 7.62623C7.75364 7.69703 7.70467 7.8608 7.77549 7.99199Z" fill="#FF4D63"/>
    <path d="M4.32706 14.0272L4.3693 12.3118C4.27409 12.1987 4.13226 12.1261 3.97238 12.1268L2.86259 12.1317C2.74009 12.1323 2.62926 12.1811 2.54676 12.2596L2.50183 14.0856C2.49611 14.3173 2.68641 14.5061 2.91804 14.4986L3.89068 14.4671C4.12972 14.4593 4.32118 14.2663 4.32706 14.0272Z" fill="#FF4D63"/>
    <path d="M2.86759 12.1539L3.95405 12.1491C4.1246 12.1483 4.27492 12.2322 4.36717 12.3604L4.44788 9.08054C4.45415 8.82632 4.24918 8.61719 3.99488 8.6183L3.02704 8.62258C2.80886 8.62356 2.63103 8.79783 2.62566 9.01595L2.54504 12.2916C2.62694 12.2072 2.74106 12.1544 2.86759 12.1539Z" fill="#FF4D63"/>
  </g>
</svg> 