<svg width="1521" height="94" viewBox="0 0 1521 94" fill="none" xmlns="http://www.w3.org/2000/svg">
<g clip-path="url(#clip0_129_982)">
<path d="M382.576 55.1307C747.294 143.676 1428.24 56.4728 1527.6 29.4692C1527.6 29.4692 780.344 91.5578 382.576 55.1307Z" fill="url(#paint0_linear_129_982)"/>
<path d="M-46.8236 57.762L-46.667 64.7506C-46.667 64.7506 -15.1908 18.7035 382.576 55.1307C374.132 53.0805 365.857 50.9362 357.763 48.6947C-48.1117 -63.701 -46.8236 57.762 -46.8236 57.762Z" fill="url(#paint1_linear_129_982)"/>
<path d="M520.01 45V43.056L521.414 42.804C521.87 42.708 522.218 42.54 522.458 42.3C522.722 42.036 522.974 41.556 523.214 40.86L530.738 19.44H536.03L543.59 40.932C543.83 41.604 544.046 42.072 544.238 42.336C544.454 42.576 544.814 42.744 545.318 42.84L546.542 43.056V45H534.878V43.056L536.534 42.84C537.014 42.768 537.302 42.6 537.398 42.336C537.494 42.048 537.446 41.604 537.254 41.004L535.994 36.972H527.354L526.058 40.86C525.89 41.412 525.842 41.868 525.914 42.228C526.01 42.564 526.37 42.78 526.994 42.876L528.686 43.128V45H520.01ZM528.11 34.776H535.346L531.89 23.796H531.782L528.11 34.776ZM551.443 45V43.128L552.955 42.912C553.387 42.84 553.663 42.696 553.783 42.48C553.903 42.264 553.963 41.82 553.963 41.148V22.032C553.963 21.216 553.879 20.676 553.711 20.412C553.567 20.124 553.195 19.944 552.595 19.872L551.299 19.692L551.479 17.712L559.255 17.388L559.687 17.748V41.22C559.687 41.796 559.747 42.204 559.867 42.444C560.011 42.684 560.323 42.84 560.803 42.912L562.279 43.164V45H551.443ZM567.91 45V43.128L569.422 42.912C569.854 42.84 570.13 42.696 570.25 42.48C570.37 42.264 570.43 41.82 570.43 41.148V22.032C570.43 21.216 570.346 20.676 570.178 20.412C570.034 20.124 569.662 19.944 569.062 19.872L567.766 19.692L567.946 17.712L575.722 17.388L576.154 17.748V41.22C576.154 41.796 576.214 42.204 576.334 42.444C576.478 42.684 576.79 42.84 577.27 42.912L578.746 43.164V45H567.91ZM603.101 45.504C601.925 45.504 600.929 45.312 600.113 44.928C599.297 44.544 598.673 43.944 598.241 43.128C597.833 42.288 597.629 41.244 597.629 39.996V28.8H595.073V26.892C596.153 26.748 597.005 26.448 597.629 25.992C598.253 25.536 598.721 24.876 599.033 24.012C599.369 23.148 599.609 22.044 599.753 20.7L602.777 20.304L603.317 20.592V26.496H608.357V28.8H603.317V39.096C603.317 40.008 603.473 40.716 603.785 41.22C604.097 41.724 604.661 41.976 605.477 41.976C606.005 41.976 606.521 41.88 607.025 41.688C607.553 41.496 608.057 41.22 608.537 40.86L609.437 42.408C608.669 43.344 607.769 44.1 606.737 44.676C605.729 45.228 604.517 45.504 603.101 45.504ZM623.871 45.504C621.855 45.504 620.127 45.144 618.687 44.424C617.247 43.68 616.131 42.612 615.339 41.22C614.571 39.804 614.187 38.1 614.187 36.108C614.187 33.9 614.607 32.04 615.447 30.528C616.311 29.016 617.511 27.888 619.047 27.144C620.607 26.376 622.431 25.992 624.519 25.992C626.415 25.992 628.071 26.34 629.487 27.036C630.903 27.708 632.007 28.74 632.799 30.132C633.615 31.5 634.023 33.228 634.023 35.316C634.023 37.452 633.615 39.288 632.799 40.824C631.983 42.336 630.819 43.5 629.307 44.316C627.795 45.108 625.983 45.504 623.871 45.504ZM624.375 43.164C625.215 43.164 625.899 42.924 626.427 42.444C626.955 41.964 627.339 41.196 627.579 40.14C627.819 39.084 627.939 37.728 627.939 36.072C627.939 34.632 627.843 33.42 627.651 32.436C627.483 31.428 627.219 30.624 626.859 30.024C626.523 29.424 626.103 28.992 625.599 28.728C625.119 28.44 624.567 28.296 623.943 28.296C623.151 28.296 622.479 28.512 621.927 28.944C621.375 29.376 620.955 30.084 620.667 31.068C620.379 32.028 620.235 33.336 620.235 34.992C620.235 36.912 620.391 38.472 620.703 39.672C621.015 40.872 621.483 41.76 622.107 42.336C622.731 42.888 623.487 43.164 624.375 43.164ZM639.684 52.776V50.904L641.052 50.724C641.412 50.676 641.664 50.532 641.808 50.292C641.952 50.076 642.024 49.656 642.024 49.032V31.032C642.024 30.168 641.94 29.592 641.772 29.304C641.628 29.016 641.304 28.848 640.8 28.8L639.432 28.62L639.612 26.64L646.704 26.244L647.172 26.532L647.352 29.592H647.46C647.892 28.848 648.396 28.212 648.972 27.684C649.548 27.156 650.208 26.748 650.952 26.46C651.72 26.148 652.596 25.992 653.58 25.992C655.116 25.992 656.436 26.34 657.54 27.036C658.668 27.708 659.532 28.716 660.132 30.06C660.756 31.404 661.068 33.084 661.068 35.1C661.068 37.212 660.732 39.048 660.06 40.608C659.388 42.168 658.38 43.38 657.036 44.244C655.692 45.084 654.036 45.504 652.068 45.504C651.252 45.504 650.472 45.408 649.728 45.216C648.984 45.048 648.324 44.808 647.748 44.496V49.032C647.748 49.608 647.82 50.016 647.964 50.256C648.132 50.496 648.468 50.64 648.972 50.688L651.06 50.94V52.776H639.684ZM651.24 42.948C652.08 42.948 652.776 42.708 653.328 42.228C653.88 41.748 654.3 40.968 654.588 39.888C654.876 38.784 655.02 37.356 655.02 35.604C655.02 34.068 654.876 32.82 654.588 31.86C654.324 30.876 653.916 30.168 653.364 29.736C652.836 29.28 652.188 29.052 651.42 29.052C650.652 29.052 649.992 29.232 649.44 29.592C648.912 29.928 648.492 30.42 648.18 31.068C647.892 31.716 647.748 32.496 647.748 33.408V41.724C648.156 42.06 648.672 42.348 649.296 42.588C649.944 42.828 650.592 42.948 651.24 42.948ZM667.228 45V43.128L668.848 42.912C669.256 42.84 669.52 42.696 669.64 42.48C669.76 42.24 669.82 41.808 669.82 41.184V31.032C669.82 30.24 669.736 29.7 669.568 29.412C669.424 29.1 669.076 28.908 668.524 28.836L667.156 28.656L667.336 26.676L675.076 26.28L675.544 26.568V41.22C675.544 41.772 675.592 42.168 675.688 42.408C675.808 42.648 676.096 42.816 676.552 42.912L678.1 43.164V45H667.228ZM672.196 23.22C671.116 23.22 670.264 22.956 669.64 22.428C669.016 21.876 668.704 21.132 668.704 20.196C668.704 19.26 669.004 18.528 669.604 18C670.204 17.448 671.068 17.172 672.196 17.172C673.348 17.172 674.212 17.436 674.788 17.964C675.388 18.492 675.688 19.236 675.688 20.196C675.688 21.132 675.376 21.876 674.752 22.428C674.128 22.956 673.276 23.22 672.196 23.22ZM692.841 45.504C690.945 45.504 689.313 45.12 687.945 44.352C686.601 43.584 685.557 42.504 684.813 41.112C684.093 39.72 683.733 38.064 683.733 36.144C683.733 34.104 684.129 32.328 684.921 30.816C685.713 29.304 686.841 28.128 688.305 27.288C689.793 26.424 691.569 25.992 693.633 25.992C695.121 25.992 696.405 26.232 697.485 26.712C698.565 27.168 699.381 27.768 699.933 28.512C700.509 29.256 700.797 30.06 700.797 30.924C700.797 31.452 700.689 31.932 700.473 32.364C700.281 32.796 699.969 33.156 699.537 33.444C699.129 33.708 698.577 33.84 697.881 33.84C697.089 33.84 696.453 33.66 695.973 33.3C695.517 32.94 695.289 32.448 695.289 31.824C695.289 31.512 695.373 31.14 695.541 30.708C695.733 30.276 696.057 29.688 696.513 28.944C696.105 28.656 695.673 28.452 695.217 28.332C694.761 28.212 694.245 28.152 693.669 28.152C692.853 28.152 692.133 28.404 691.509 28.908C690.909 29.388 690.441 30.12 690.105 31.104C689.769 32.088 689.601 33.324 689.601 34.812C689.601 36.996 690.033 38.664 690.897 39.816C691.785 40.968 693.057 41.544 694.713 41.544C695.673 41.544 696.561 41.388 697.377 41.076C698.193 40.764 699.009 40.32 699.825 39.744L701.013 41.256C700.149 42.552 699.033 43.584 697.665 44.352C696.321 45.12 694.713 45.504 692.841 45.504ZM707.531 45.54L706.991 38.916L709.115 38.772C709.499 39.852 709.943 40.728 710.447 41.4C710.975 42.072 711.575 42.564 712.247 42.876C712.943 43.188 713.699 43.344 714.515 43.344C715.523 43.344 716.303 43.116 716.855 42.66C717.407 42.18 717.683 41.52 717.683 40.68C717.683 40.152 717.527 39.732 717.215 39.42C716.903 39.084 716.435 38.796 715.811 38.556C715.211 38.316 714.443 38.088 713.507 37.872C712.643 37.632 711.827 37.368 711.059 37.08C710.291 36.792 709.619 36.432 709.043 36C708.467 35.544 708.011 34.992 707.675 34.344C707.363 33.672 707.207 32.856 707.207 31.896C707.207 30.672 707.495 29.616 708.071 28.728C708.647 27.84 709.451 27.168 710.483 26.712C711.539 26.232 712.775 25.992 714.191 25.992C715.151 25.992 716.015 26.112 716.783 26.352C717.551 26.592 718.211 26.892 718.763 27.252L719.123 25.992H720.851L721.283 32.04L719.159 31.932C718.727 30.564 718.103 29.556 717.287 28.908C716.495 28.26 715.547 27.936 714.443 27.936C713.531 27.936 712.811 28.128 712.283 28.512C711.779 28.872 711.527 29.412 711.527 30.132C711.527 30.66 711.671 31.092 711.959 31.428C712.271 31.764 712.739 32.052 713.363 32.292C713.987 32.508 714.755 32.748 715.667 33.012C716.627 33.276 717.491 33.564 718.259 33.876C719.051 34.164 719.723 34.536 720.275 34.992C720.851 35.424 721.295 35.964 721.607 36.612C721.919 37.26 722.075 38.064 722.075 39.024C722.075 40.368 721.763 41.532 721.139 42.516C720.515 43.476 719.651 44.22 718.547 44.748C717.467 45.252 716.195 45.504 714.731 45.504C713.699 45.504 712.751 45.372 711.887 45.108C711.023 44.868 710.279 44.544 709.655 44.136L709.223 45.54H707.531ZM744.478 45.504C742.774 45.504 741.442 45.072 740.482 44.208C739.522 43.32 739.042 42.12 739.042 40.608C739.042 39.24 739.39 38.16 740.086 37.368C740.806 36.552 741.922 35.952 743.434 35.568C744.97 35.184 746.974 34.932 749.446 34.812V31.68C749.446 30.792 749.35 30.06 749.158 29.484C748.966 28.908 748.642 28.488 748.186 28.224C747.73 27.96 747.118 27.828 746.35 27.828C745.75 27.828 745.138 27.924 744.514 28.116C743.914 28.284 743.446 28.512 743.11 28.8C743.47 29.256 743.746 29.652 743.938 29.988C744.13 30.324 744.262 30.612 744.334 30.852C744.406 31.068 744.442 31.26 744.442 31.428C744.442 31.956 744.214 32.4 743.758 32.76C743.302 33.12 742.654 33.3 741.814 33.3C740.974 33.3 740.35 33.096 739.942 32.688C739.534 32.28 739.33 31.74 739.33 31.068C739.33 30.18 739.666 29.352 740.338 28.584C741.01 27.816 741.946 27.192 743.146 26.712C744.346 26.232 745.738 25.992 747.322 25.992C749.074 25.992 750.526 26.232 751.678 26.712C752.83 27.192 753.694 27.948 754.27 28.98C754.87 29.988 755.17 31.308 755.17 32.94V40.932C755.17 41.508 755.278 41.928 755.494 42.192C755.71 42.456 756.058 42.588 756.538 42.588C756.778 42.588 757.018 42.564 757.258 42.516C757.498 42.468 757.75 42.396 758.014 42.3L758.374 43.776C757.846 44.304 757.186 44.724 756.394 45.036C755.626 45.348 754.846 45.504 754.054 45.504C752.83 45.504 751.882 45.228 751.21 44.676C750.562 44.1 750.142 43.332 749.95 42.372C749.614 42.996 749.194 43.548 748.69 44.028C748.21 44.508 747.622 44.868 746.926 45.108C746.23 45.372 745.414 45.504 744.478 45.504ZM746.818 42.732C747.346 42.732 747.802 42.612 748.186 42.372C748.594 42.132 748.906 41.796 749.122 41.364C749.338 40.932 749.446 40.428 749.446 39.852V36.612C748.342 36.612 747.43 36.732 746.71 36.972C746.014 37.188 745.498 37.548 745.162 38.052C744.85 38.532 744.694 39.18 744.694 39.996C744.694 40.884 744.874 41.568 745.234 42.048C745.594 42.504 746.122 42.732 746.818 42.732ZM762.999 45V43.164L764.439 42.912C764.823 42.864 765.063 42.732 765.159 42.516C765.279 42.276 765.339 41.844 765.339 41.22V30.924C765.339 30.156 765.267 29.628 765.123 29.34C764.979 29.052 764.643 28.872 764.115 28.8L762.711 28.62L762.891 26.676L770.019 26.244L770.487 26.532L770.631 29.916H770.739C771.315 28.668 772.143 27.708 773.223 27.036C774.303 26.34 775.575 25.992 777.039 25.992C778.407 25.992 779.523 26.244 780.387 26.748C781.275 27.252 781.935 27.984 782.367 28.944C782.823 29.88 783.051 30.996 783.051 32.292V41.472C783.051 42 783.123 42.372 783.267 42.588C783.411 42.78 783.699 42.912 784.131 42.984L785.463 43.164V45H775.239V43.2L776.355 43.02C776.763 42.948 777.027 42.816 777.147 42.624C777.267 42.408 777.327 42.024 777.327 41.472V33.156C777.327 32.148 777.243 31.356 777.075 30.78C776.907 30.204 776.631 29.796 776.247 29.556C775.863 29.316 775.347 29.196 774.699 29.196C774.003 29.196 773.379 29.364 772.827 29.7C772.275 30.012 771.843 30.504 771.531 31.176C771.219 31.824 771.063 32.616 771.063 33.552V41.4C771.063 41.928 771.111 42.312 771.207 42.552C771.327 42.768 771.567 42.9 771.927 42.948L773.223 43.2V45H762.999ZM798.736 45.504C797.08 45.504 795.676 45.156 794.524 44.46C793.372 43.74 792.496 42.696 791.896 41.328C791.296 39.96 790.996 38.28 790.996 36.288C790.996 34.176 791.356 32.352 792.076 30.816C792.796 29.28 793.84 28.092 795.208 27.252C796.576 26.412 798.208 25.992 800.104 25.992C800.92 25.992 801.676 26.088 802.372 26.28C803.092 26.472 803.728 26.724 804.28 27.036V21.708C804.28 21.012 804.184 20.532 803.992 20.268C803.824 20.004 803.428 19.836 802.804 19.764L801.4 19.584L801.58 17.64L809.572 17.388L810.004 17.82V41.364C810.004 41.916 810.064 42.3 810.184 42.516C810.328 42.708 810.64 42.852 811.12 42.948L812.524 43.164V45.036L805.144 45.288L804.676 42.3H804.532C804.172 42.924 803.716 43.476 803.164 43.956C802.636 44.436 802 44.808 801.256 45.072C800.536 45.36 799.696 45.504 798.736 45.504ZM800.716 42.516C801.436 42.516 802.06 42.36 802.588 42.048C803.116 41.712 803.524 41.22 803.812 40.572C804.124 39.9 804.28 39.096 804.28 38.16V29.736C803.776 29.352 803.224 29.064 802.624 28.872C802.048 28.656 801.448 28.548 800.824 28.548C799.936 28.548 799.204 28.8 798.628 29.304C798.076 29.808 797.668 30.6 797.404 31.68C797.14 32.736 797.008 34.104 797.008 35.784C797.008 37.344 797.14 38.628 797.404 39.636C797.692 40.62 798.112 41.352 798.664 41.832C799.24 42.288 799.924 42.516 800.716 42.516ZM829.994 45.54L829.454 38.916L831.578 38.772C831.962 39.852 832.406 40.728 832.91 41.4C833.438 42.072 834.038 42.564 834.71 42.876C835.406 43.188 836.162 43.344 836.978 43.344C837.986 43.344 838.766 43.116 839.318 42.66C839.87 42.18 840.146 41.52 840.146 40.68C840.146 40.152 839.99 39.732 839.678 39.42C839.366 39.084 838.898 38.796 838.274 38.556C837.674 38.316 836.906 38.088 835.97 37.872C835.106 37.632 834.29 37.368 833.522 37.08C832.754 36.792 832.082 36.432 831.506 36C830.93 35.544 830.474 34.992 830.138 34.344C829.826 33.672 829.67 32.856 829.67 31.896C829.67 30.672 829.958 29.616 830.534 28.728C831.11 27.84 831.914 27.168 832.946 26.712C834.002 26.232 835.238 25.992 836.654 25.992C837.614 25.992 838.478 26.112 839.246 26.352C840.014 26.592 840.674 26.892 841.226 27.252L841.586 25.992H843.314L843.746 32.04L841.622 31.932C841.19 30.564 840.566 29.556 839.75 28.908C838.958 28.26 838.01 27.936 836.906 27.936C835.994 27.936 835.274 28.128 834.746 28.512C834.242 28.872 833.99 29.412 833.99 30.132C833.99 30.66 834.134 31.092 834.422 31.428C834.734 31.764 835.202 32.052 835.826 32.292C836.45 32.508 837.218 32.748 838.13 33.012C839.09 33.276 839.954 33.564 840.722 33.876C841.514 34.164 842.186 34.536 842.738 34.992C843.314 35.424 843.758 35.964 844.07 36.612C844.382 37.26 844.538 38.064 844.538 39.024C844.538 40.368 844.226 41.532 843.602 42.516C842.978 43.476 842.114 44.22 841.01 44.748C839.93 45.252 838.658 45.504 837.194 45.504C836.162 45.504 835.214 45.372 834.35 45.108C833.486 44.868 832.742 44.544 832.118 44.136L831.686 45.54H829.994ZM859.809 45.504C857.841 45.504 856.161 45.132 854.769 44.388C853.377 43.62 852.321 42.54 851.601 41.148C850.881 39.732 850.521 38.064 850.521 36.144C850.521 33.984 850.941 32.148 851.781 30.636C852.645 29.124 853.809 27.972 855.273 27.18C856.761 26.388 858.465 25.992 860.385 25.992C861.945 25.992 863.301 26.268 864.453 26.82C865.629 27.348 866.529 28.128 867.153 29.16C867.801 30.192 868.125 31.44 868.125 32.904C868.125 33.384 868.101 33.888 868.053 34.416C868.005 34.92 867.921 35.424 867.801 35.928H856.461C856.485 37.128 856.701 38.16 857.109 39.024C857.517 39.864 858.093 40.5 858.837 40.932C859.581 41.34 860.457 41.544 861.465 41.544C862.545 41.544 863.529 41.388 864.417 41.076C865.305 40.74 866.181 40.224 867.045 39.528L868.341 40.968C867.429 42.336 866.241 43.44 864.777 44.28C863.337 45.096 861.681 45.504 859.809 45.504ZM856.461 33.804H862.545C862.593 33.492 862.617 33.18 862.617 32.868C862.641 32.556 862.653 32.244 862.653 31.932C862.653 30.612 862.437 29.64 862.005 29.016C861.573 28.392 860.925 28.08 860.061 28.08C859.341 28.08 858.717 28.284 858.189 28.692C857.685 29.1 857.289 29.736 857.001 30.6C856.713 31.44 856.533 32.508 856.461 33.804ZM874.163 45V43.128L875.603 42.912C875.987 42.864 876.227 42.72 876.323 42.48C876.443 42.24 876.503 41.808 876.503 41.184V30.996C876.503 30.228 876.443 29.688 876.323 29.376C876.203 29.064 875.867 28.872 875.315 28.8L873.875 28.62L874.055 26.676L881.111 26.244L881.579 26.532L881.795 29.988H881.903C882.455 28.716 883.223 27.732 884.207 27.036C885.191 26.34 886.283 25.992 887.483 25.992C888.779 25.992 889.799 26.352 890.543 27.072C891.311 27.792 891.695 28.74 891.695 29.916C891.695 30.636 891.575 31.26 891.335 31.788C891.119 32.316 890.783 32.724 890.327 33.012C889.871 33.276 889.295 33.408 888.599 33.408C887.711 33.408 887.051 33.228 886.619 32.868C886.187 32.484 885.971 32.028 885.971 31.5C885.971 31.26 885.995 31.032 886.043 30.816C886.115 30.576 886.223 30.3 886.367 29.988C886.535 29.676 886.751 29.292 887.015 28.836C886.487 28.644 885.935 28.632 885.359 28.8C884.807 28.944 884.291 29.244 883.811 29.7C883.331 30.132 882.947 30.696 882.659 31.392C882.371 32.064 882.227 32.832 882.227 33.696V41.256C882.227 41.832 882.287 42.24 882.407 42.48C882.527 42.696 882.803 42.828 883.235 42.876L885.755 43.164V45H874.163ZM904.371 45L898.647 30.672C898.479 30.216 898.323 29.868 898.179 29.628C898.059 29.364 897.903 29.172 897.711 29.052C897.543 28.908 897.291 28.8 896.955 28.728L895.803 28.44L896.091 26.496H906.675V28.404L905.235 28.584C904.803 28.656 904.539 28.824 904.443 29.088C904.347 29.352 904.407 29.796 904.623 30.42L908.439 40.536H908.583L912.075 30.636C912.291 30.036 912.339 29.58 912.219 29.268C912.123 28.956 911.799 28.752 911.247 28.656L909.879 28.368L910.203 26.496H917.655V28.404L916.431 28.656C915.975 28.752 915.639 28.908 915.423 29.124C915.207 29.34 914.955 29.82 914.667 30.564L909.339 45H904.371ZM922.596 45V43.128L924.216 42.912C924.624 42.84 924.888 42.696 925.008 42.48C925.128 42.24 925.188 41.808 925.188 41.184V31.032C925.188 30.24 925.104 29.7 924.936 29.412C924.792 29.1 924.444 28.908 923.892 28.836L922.524 28.656L922.704 26.676L930.444 26.28L930.912 26.568V41.22C930.912 41.772 930.96 42.168 931.056 42.408C931.176 42.648 931.464 42.816 931.92 42.912L933.468 43.164V45H922.596ZM927.564 23.22C926.484 23.22 925.632 22.956 925.008 22.428C924.384 21.876 924.072 21.132 924.072 20.196C924.072 19.26 924.372 18.528 924.972 18C925.572 17.448 926.436 17.172 927.564 17.172C928.716 17.172 929.58 17.436 930.156 17.964C930.756 18.492 931.056 19.236 931.056 20.196C931.056 21.132 930.744 21.876 930.12 22.428C929.496 22.956 928.644 23.22 927.564 23.22ZM948.209 45.504C946.313 45.504 944.681 45.12 943.313 44.352C941.969 43.584 940.925 42.504 940.181 41.112C939.461 39.72 939.101 38.064 939.101 36.144C939.101 34.104 939.497 32.328 940.289 30.816C941.081 29.304 942.209 28.128 943.673 27.288C945.161 26.424 946.937 25.992 949.001 25.992C950.489 25.992 951.773 26.232 952.853 26.712C953.933 27.168 954.749 27.768 955.301 28.512C955.877 29.256 956.165 30.06 956.165 30.924C956.165 31.452 956.057 31.932 955.841 32.364C955.649 32.796 955.337 33.156 954.905 33.444C954.497 33.708 953.945 33.84 953.249 33.84C952.457 33.84 951.821 33.66 951.341 33.3C950.885 32.94 950.657 32.448 950.657 31.824C950.657 31.512 950.741 31.14 950.909 30.708C951.101 30.276 951.425 29.688 951.881 28.944C951.473 28.656 951.041 28.452 950.585 28.332C950.129 28.212 949.613 28.152 949.037 28.152C948.221 28.152 947.501 28.404 946.877 28.908C946.277 29.388 945.809 30.12 945.473 31.104C945.137 32.088 944.969 33.324 944.969 34.812C944.969 36.996 945.401 38.664 946.265 39.816C947.153 40.968 948.425 41.544 950.081 41.544C951.041 41.544 951.929 41.388 952.745 41.076C953.561 40.764 954.377 40.32 955.193 39.744L956.381 41.256C955.517 42.552 954.401 43.584 953.033 44.352C951.689 45.12 950.081 45.504 948.209 45.504ZM971.325 45.504C969.357 45.504 967.677 45.132 966.285 44.388C964.893 43.62 963.837 42.54 963.117 41.148C962.397 39.732 962.037 38.064 962.037 36.144C962.037 33.984 962.457 32.148 963.297 30.636C964.161 29.124 965.325 27.972 966.789 27.18C968.277 26.388 969.981 25.992 971.901 25.992C973.461 25.992 974.817 26.268 975.969 26.82C977.145 27.348 978.045 28.128 978.669 29.16C979.317 30.192 979.641 31.44 979.641 32.904C979.641 33.384 979.617 33.888 979.569 34.416C979.521 34.92 979.437 35.424 979.317 35.928H967.977C968.001 37.128 968.217 38.16 968.625 39.024C969.033 39.864 969.609 40.5 970.353 40.932C971.097 41.34 971.973 41.544 972.981 41.544C974.061 41.544 975.045 41.388 975.933 41.076C976.821 40.74 977.697 40.224 978.561 39.528L979.857 40.968C978.945 42.336 977.757 43.44 976.293 44.28C974.853 45.096 973.197 45.504 971.325 45.504ZM967.977 33.804H974.061C974.109 33.492 974.133 33.18 974.133 32.868C974.157 32.556 974.169 32.244 974.169 31.932C974.169 30.612 973.953 29.64 973.521 29.016C973.089 28.392 972.441 28.08 971.577 28.08C970.857 28.08 970.233 28.284 969.705 28.692C969.201 29.1 968.805 29.736 968.517 30.6C968.229 31.44 968.049 32.508 967.977 33.804ZM986.502 45.54L985.962 38.916L988.086 38.772C988.47 39.852 988.914 40.728 989.418 41.4C989.946 42.072 990.546 42.564 991.218 42.876C991.914 43.188 992.67 43.344 993.486 43.344C994.494 43.344 995.274 43.116 995.826 42.66C996.378 42.18 996.654 41.52 996.654 40.68C996.654 40.152 996.498 39.732 996.186 39.42C995.874 39.084 995.406 38.796 994.782 38.556C994.182 38.316 993.414 38.088 992.478 37.872C991.614 37.632 990.798 37.368 990.03 37.08C989.262 36.792 988.59 36.432 988.014 36C987.438 35.544 986.982 34.992 986.646 34.344C986.334 33.672 986.178 32.856 986.178 31.896C986.178 30.672 986.466 29.616 987.042 28.728C987.618 27.84 988.422 27.168 989.454 26.712C990.51 26.232 991.746 25.992 993.162 25.992C994.122 25.992 994.986 26.112 995.754 26.352C996.522 26.592 997.182 26.892 997.734 27.252L998.094 25.992H999.822L1000.25 32.04L998.13 31.932C997.698 30.564 997.074 29.556 996.258 28.908C995.466 28.26 994.518 27.936 993.414 27.936C992.502 27.936 991.782 28.128 991.254 28.512C990.75 28.872 990.498 29.412 990.498 30.132C990.498 30.66 990.642 31.092 990.93 31.428C991.242 31.764 991.71 32.052 992.334 32.292C992.958 32.508 993.726 32.748 994.638 33.012C995.598 33.276 996.462 33.564 997.23 33.876C998.022 34.164 998.694 34.536 999.246 34.992C999.822 35.424 1000.27 35.964 1000.58 36.612C1000.89 37.26 1001.05 38.064 1001.05 39.024C1001.05 40.368 1000.73 41.532 1000.11 42.516C999.486 43.476 998.622 44.22 997.518 44.748C996.438 45.252 995.166 45.504 993.702 45.504C992.67 45.504 991.722 45.372 990.858 45.108C989.994 44.868 989.25 44.544 988.626 44.136L988.194 45.54H986.502Z" fill="url(#paint2_linear_129_982)"/>
</g>
<defs>
<linearGradient id="paint0_linear_129_982" x1="150.196" y1="-0.64985" x2="1342.67" y2="-2.58914" gradientUnits="userSpaceOnUse">
<stop offset="0.0001" stop-color="#005BEA"/>
<stop offset="1" stop-color="#00B5E6"/>
</linearGradient>
<linearGradient id="paint1_linear_129_982" x1="150.196" y1="-0.649868" x2="1342.67" y2="-2.58916" gradientUnits="userSpaceOnUse">
<stop offset="0.0001" stop-color="#005BEA"/>
<stop offset="1" stop-color="#00B5E6"/>
</linearGradient>
<linearGradient id="paint2_linear_129_982" x1="509.709" y1="-11" x2="1013.18" y2="-4.92547" gradientUnits="userSpaceOnUse">
<stop offset="0.0001" stop-color="#005BEA"/>
<stop offset="1" stop-color="#00B5E6"/>
</linearGradient>
<clipPath id="clip0_129_982">
<rect width="1521" height="94" fill="white"/>
</clipPath>
</defs>
</svg>
