<svg width="54" height="54" viewBox="0 0 54 54" fill="none" xmlns="http://www.w3.org/2000/svg">
<path fill-rule="evenodd" clip-rule="evenodd" d="M4.5 0C2.01473 0 0 2.01473 0 4.5V49.5C0 51.9854 2.01473 54 4.5 54H49.5C51.9854 54 54 51.9854 54 49.5V4.5C54 2.01473 51.9854 0 49.5 0H4.5ZM17.1805 20.4925C17.4732 18.0088 19.2692 15.9206 21.7335 15.4949C25.5576 14.8341 28.6199 14.8401 32.2958 15.4827C34.7469 15.9114 36.526 17.9961 36.8172 20.4675L39.0003 39H15.0003L17.1805 20.4925ZM13.5003 45V42H40.5003V45H13.5003ZM10.5672 28.5C10.5228 28.0059 10.5 27.5056 10.5 27C10.5 26.4944 10.5228 25.9941 10.5672 25.5H6V28.5H10.5672ZM12.0163 20.0813C12.439 19.1673 12.9427 18.2986 13.5186 17.4844L9.5634 15.201L8.0634 17.799L12.0163 20.0813ZM17.4844 13.5186C18.2986 12.9429 19.1673 12.439 20.0813 12.0163L17.799 8.06355L15.201 9.56355L17.4844 13.5186ZM25.5 10.5672C25.9941 10.5228 26.4944 10.5 27 10.5C27.5056 10.5 28.0059 10.5228 28.5 10.5672V6H25.5V10.5672ZM33.9187 12.0163C34.8327 12.439 35.7014 12.9429 36.5156 13.5186L38.799 9.56355L36.201 8.06355L33.9187 12.0163ZM40.4814 17.4844C41.0572 18.2986 41.561 19.1673 41.9837 20.0813L45.9366 17.799L44.4366 15.201L40.4814 17.4844ZM43.4328 25.5C43.4772 25.9941 43.5 26.4944 43.5 27C43.5 27.5056 43.4772 28.0059 43.4328 28.5H48V25.5H43.4328Z" fill="#FF0000"/>
</svg>
