<svg width="54" height="54" viewBox="0 0 54 54" fill="none" xmlns="http://www.w3.org/2000/svg">
<path fill-rule="evenodd" clip-rule="evenodd" d="M4.5 0C2.01473 0 0 2.01473 0 4.5V49.5C0 51.9854 2.01473 54 4.5 54H49.5C51.9854 54 54 51.9854 54 49.5V4.5C54 2.01473 51.9854 0 49.5 0H4.5ZM19.1694 9C13.4561 9 9.2838 14.9727 9.2838 21.4138C9.2838 22.9095 9.48525 24.3494 9.846 25.7288H14.7759L20.0547 16.5L23.3532 27.8529L27.3896 22.7494H35.9419C36.8025 22.7494 37.5 23.4354 37.5 24.2817C37.5 25.1278 36.8025 25.8138 35.9419 25.8138H28.9137L22.0437 34.5L19.1099 24.4023L16.5984 28.7931H10.9386C15.4955 38.8664 27.8919 45 27.8919 45C27.8919 45 46.5 35.1999 46.5 21.4138C46.5 14.9738 42.3283 9 36.6144 9C32.6496 9 29.7078 11.6801 27.8919 15.4812C26.076 11.6798 23.1341 9 19.1694 9ZM6 25.7289L9.83115 25.7284L10.9271 28.7932H6V25.7289Z" fill="#3AB424"/>
</svg>
