<svg width="60" height="45" viewBox="0 0 60 45" fill="none" xmlns="http://www.w3.org/2000/svg">
<g id="Component 1" clip-path="url(#clip0_23_399)">
<path id="Vector" d="M4.59745 12.4244V5.84787C4.59745 5.54551 4.67303 5.16755 4.74863 4.86517C4.97541 4.03365 5.73133 3.50451 6.56286 3.42891C7.77233 3.42891 8.37708 4.48721 8.37708 6.07466V12.4244H12.2323V5.77228C12.2323 5.46991 12.3079 5.09195 12.3835 4.78957C12.6103 3.95806 13.3661 3.42891 14.1977 3.42891C15.4828 3.42891 16.0875 4.48721 16.0875 6.30143V12.4244H19.8671V5.77228C19.8671 2.06825 18.053 0.405207 15.634 0.405207C14.8025 0.405207 13.9709 0.631985 13.2151 1.00995C12.6103 1.38791 12.0055 1.91706 11.552 2.5218H11.4764C10.8716 1.16113 9.51097 0.329615 7.99912 0.405207C6.48726 0.329615 5.05101 1.08554 4.14388 2.37061H4.06829L3.99271 0.707577H0.666626C0.742219 1.76587 0.742223 3.12655 0.742223 4.6384V12.4244H4.59745Z" fill="#8EC750"/>
<path id="Vector_2" d="M24.176 12.4242C24.176 12.4242 24.2515 15.2212 22.2105 16.355C21.3035 16.8841 20.3207 17.1865 19.2624 17.1865L19.1869 17.3377C22.8153 18.0936 24.4027 17.7913 25.9146 16.2038C27.1997 14.8431 27.9556 13.029 29.7699 8.11545L32.718 0.556184H28.4848L26.8973 6.6036C26.7461 7.28392 26.5194 7.66189 26.2926 8.26663H26.217C26.0658 7.5863 25.8391 7.28392 25.6122 6.6036L23.7224 0.480591H19.3381L24.0248 11.2903C24.1003 11.5171 24.176 11.6683 24.176 11.8951C24.176 12.1219 24.1003 12.273 23.9493 12.4242C23.5712 13.029 23.0421 13.5581 22.4374 13.8605C23.1933 13.6338 23.7981 13.1045 24.176 12.4242Z" fill="#418CCA"/>
<path id="Vector_3" d="M23.7224 20.7397H17.2214V23.9902H19.9427V27.7698C19.3381 27.9965 18.6577 28.0721 17.9774 27.9965C14.7269 27.9965 12.4591 25.9555 12.4591 22.5538C12.4591 18.9254 14.9537 17.1868 18.2041 17.1868H19.1869C20.2451 17.1868 21.2279 16.8844 22.135 16.3553C24.1003 15.2213 24.1003 12.4244 24.1003 12.4244C23.7224 13.1048 23.1177 13.6339 22.4374 13.9363C21.3034 14.4654 19.7916 14.0875 18.2797 14.0875C12.5347 14.0875 8.37709 17.2623 8.30149 22.7807C8.2259 25.0484 9.13301 27.2405 10.796 28.8281C12.3835 30.3399 14.7269 31.0958 17.9017 31.0958C19.8672 31.0958 21.8326 30.7179 23.7224 30.1887V20.7397Z" fill="#28B898"/>
<path id="Vector_4" d="M25.3098 22.705C25.3098 27.4674 28.3335 31.1715 33.4738 31.1715C38.6141 31.1715 42.0158 27.8453 42.0158 22.4026C42.0158 17.7916 39.0676 14.012 33.7761 14.012C28.6358 14.012 25.3098 17.7159 25.3098 22.705ZM33.7006 16.9601C36.4219 16.9601 37.9338 19.5302 37.9338 22.4783C37.9338 25.7288 36.4219 28.1477 33.7761 28.1477C31.1304 28.1477 29.543 25.88 29.543 22.6295C29.543 19.379 31.0549 16.9601 33.7006 16.9601Z" fill="#C1569A"/>
<path id="Vector_5" d="M51.6161 30.869L57.5124 14.3142H53.3547L51.1625 21.4198C50.5578 23.3098 50.0287 25.2751 49.5751 27.3161H49.4995C49.0459 25.2751 48.5168 23.3853 47.912 21.4198L45.7955 14.3897H41.4867L47.0806 30.9445H51.6161V30.869Z" fill="#EC7026"/>
<path id="Vector_6" d="M7.09199 35.8582H0.968994V36.5386H3.01V39.411H2.40526L2.25407 39.4867H2.17847L2.0273 39.6379L1.9517 39.8646C1.9517 40.0158 2.02729 40.167 2.10288 40.3182C2.25407 40.5449 2.40526 40.7717 2.63204 40.9229L3.16118 41.5277C3.23677 41.6032 3.38796 41.6789 3.53915 41.6789H3.76592L3.91711 41.6032V41.5277V40.167H6.86522V44.249H7.69673V36.5386H7.99911V35.8582H7.09199ZM6.86522 39.411H3.91711V36.5386H6.86522V39.411Z" fill="#13679F"/>
<path id="Vector_7" d="M3.76598 31.7004L3.23682 32.3052L6.5629 35.858H7.09205L3.76598 31.7004Z" fill="#13679F"/>
<path id="Vector_8" d="M12.2323 35.8582H7.99915V36.5386H12.4591V38.5796L12.3835 39.0331C12.3079 39.1843 12.2323 39.2598 12.1567 39.411C11.93 39.6379 11.6276 39.7134 11.3252 39.6379C10.9473 39.7134 10.5693 39.5622 10.4181 39.2598L9.73777 38.126L9.05744 38.6551L9.35981 39.2598L9.511 39.5622L10.1913 40.6205L10.7205 41.3765C11.174 42.1324 11.7032 42.8127 12.3079 43.493C12.5347 43.871 12.8371 44.1734 13.2151 44.4001L13.8198 43.871L13.4418 43.493L13.2151 43.0394L12.6103 42.4347L12.1567 41.8301L11.0229 40.167L11.3252 40.2425H11.6276C11.8544 40.2425 12.0811 40.2425 12.3079 40.0913L12.6103 39.9403C12.6859 39.8646 12.7615 39.8646 12.8371 39.7891C13.2151 39.4867 13.3663 39.1087 13.3663 38.6551V36.5386H14.1977V35.8582H12.2323Z" fill="#13679F"/>
<path id="Vector_9" d="M15.7096 34.7997L15.256 34.0439C14.9536 33.5147 14.5001 33.0611 13.9708 32.7587C13.6685 32.4564 13.215 32.3052 12.7614 32.3052C12.5346 32.3052 12.2322 32.3808 12.0055 32.4564C11.5519 32.6832 11.174 33.1368 11.0228 33.6659C10.9472 33.7415 10.8716 33.8927 10.8716 34.0439C10.8716 34.1951 10.8716 34.3463 10.8716 34.4975L10.9472 34.8754L11.0984 35.2533L11.2495 35.5557L11.4007 35.7825H12.3834L12.2322 35.6313L12.0055 35.2533L11.7787 34.7242L11.7031 34.2706L11.7787 33.7415C11.8543 33.2123 12.3078 32.9099 12.837 32.8344C13.3662 32.9856 13.8953 33.288 14.1977 33.7415C14.5756 34.1951 14.9536 34.6487 15.256 35.1021C15.4827 35.4045 15.5584 35.6313 15.4827 35.7069H14.2732V36.3873H15.7096V44.1733H16.541V36.5385H17.9017V35.8581H16.3899L15.7096 34.7997Z" fill="#13679F"/>
<path id="Vector_10" d="M23.2688 35.8582V36.5386H27.1239V39.3355L26.9729 39.5622C26.8972 39.6379 26.8217 39.7134 26.746 39.7134L26.3681 39.7891C25.9145 39.8646 25.5365 39.6379 25.3853 39.1843L24.9318 38.2772L24.2515 38.7307L24.5538 39.2598L24.8562 39.7891L25.3098 40.5449L27.2751 43.4175C27.502 43.7954 27.7287 44.0222 28.1067 44.249L28.787 43.7199L28.4091 43.4175L27.6532 42.5103L27.1996 41.9056L26.2169 40.3937C26.2925 40.3937 26.3681 40.4694 26.4436 40.4694H26.6705H26.8217H26.9729H27.1239C27.3508 40.3937 27.502 40.3182 27.6532 40.2425C27.8043 40.167 27.9555 40.0158 28.0311 39.7891C28.1067 39.6379 28.1067 39.411 28.1823 39.2598V36.4629H31.206V39.2598H28.1067L28.7115 39.9403H31.0548V44.1734H31.8863V36.5386H32.4911V35.8582H23.2688Z" fill="#13679F"/>
<path id="Vector_11" d="M33.1714 35.8582H32.4911V36.5386H36.9511V38.5796L36.8754 39.0331C36.7999 39.1843 36.7243 39.2598 36.6487 39.411C36.4219 39.6379 36.1195 39.7134 35.8171 39.6379C35.4392 39.7134 35.0613 39.5622 34.9101 39.2598L34.2297 38.126L33.5494 38.6551L33.9273 39.2598L34.0785 39.5622L34.7589 40.6205L35.288 41.3765C35.7416 42.1324 36.2707 42.8127 36.8754 43.493C37.1023 43.871 37.4047 44.1734 37.7826 44.4001L38.3873 43.871L38.0093 43.493L37.7826 43.1906L37.1778 42.5859L36.7243 41.9812L35.5904 40.3182L35.8928 40.3937H36.1952C36.4219 40.3937 36.6487 40.3937 36.8754 40.2425L37.1778 40.0913C37.2535 40.0158 37.329 40.0158 37.4047 39.9403C37.7826 39.6379 37.9338 39.2598 37.9338 38.8063V36.6898H38.7652V36.0093L33.1714 35.8582Z" fill="#13679F"/>
<path id="Vector_12" d="M39.0677 35.858H38.6141V36.5383H43.5276V40.6203C43.4521 40.9983 43.2252 41.3007 42.9985 41.4519C42.6961 41.6786 42.3937 41.8298 42.0158 41.8298C41.789 41.8298 41.6378 41.7541 41.4111 41.6786C40.8818 41.4519 40.5039 40.8471 40.5795 40.2424V40.0155L40.6551 39.6376C40.8063 39.2596 41.033 38.9573 41.4111 38.7305C41.6378 38.6549 41.789 38.5793 42.0158 38.5793H42.2425C42.2425 38.5793 42.3182 38.5793 42.3937 38.5793L42.5449 38.6549L42.6205 38.7305L42.7716 38.8061V38.1257L42.3182 37.9745L41.8646 37.899C41.5623 37.899 41.2599 37.9745 41.033 38.0502C40.5039 38.2769 40.0504 38.6549 39.8235 39.184C39.6725 39.4864 39.5968 39.7888 39.5968 40.0912C39.5968 40.3936 39.6725 40.6959 39.8235 40.9983C40.2016 41.9053 41.033 42.4345 42.0158 42.3589C42.6205 42.3589 43.1497 42.1322 43.5276 41.7543V44.1731H44.3592V40.7715C44.3592 40.3179 44.5104 39.8643 44.8126 39.4864C45.115 39.0328 45.5686 38.8061 46.0221 38.7305C46.1733 38.7305 46.4002 38.7305 46.5514 38.8061C46.7026 38.8817 46.8537 38.9573 47.0049 39.1085C47.2317 39.4108 47.3072 39.7131 47.3072 40.0912C47.2317 40.6959 47.0049 41.3007 46.5514 41.7543L46.0221 42.3589C45.9466 42.4345 45.871 42.5101 45.7954 42.5101L46.4757 43.0393L47.0049 42.5101L47.3072 42.0565C47.8364 41.5274 48.0631 40.7715 48.1388 40.0912C48.1388 39.4864 47.9119 38.9573 47.534 38.5793C47.0805 38.1257 46.5514 37.899 45.9466 37.9745H45.7198H45.493C45.3419 37.9745 45.2662 38.0502 45.115 38.1257L44.7371 38.3526L44.5859 38.5037L44.2835 38.8061V36.4628H48.5167V35.7823L39.0677 35.858Z" fill="#13679F"/>
<path id="Vector_13" d="M49.0459 35.8582H48.5923V36.5386H49.0459H50.1797V44.249H51.0113V36.5386H51.6916V35.8582H49.0459Z" fill="#13679F"/>
<path id="Vector_14" d="M55.32 40.2425C55.5468 40.2425 55.7735 40.2425 56.0004 40.0913L56.3028 39.9403C56.3783 39.8646 56.4539 39.8646 56.6051 39.7891C56.983 39.4867 57.1342 39.1087 57.1342 38.6551V36.5386H58.4193V35.8582H51.7672V36.5386H56.2271V38.5796L56.1516 39.0331C56.0759 39.1843 56.0004 39.2598 55.9247 39.411C55.698 39.6379 55.3956 39.7134 55.0932 39.6379C54.7153 39.7134 54.3373 39.5622 54.1861 39.2598L53.5058 38.126L52.8254 38.6551L53.1278 39.2598L53.279 39.5622L53.9594 40.6205L54.4885 41.3765C54.9421 42.1324 55.4712 42.8127 56.0759 43.493C56.3028 43.871 56.6051 44.1734 56.983 44.4001L57.5878 43.871L57.2099 43.493L56.983 43.1906L56.3783 42.5859L55.9247 41.9812L54.7909 40.3182L55.0932 40.3937L55.32 40.2425Z" fill="#13679F"/>
</g>
<defs>
<clipPath id="clip0_23_399">
<rect width="58.6667" height="44" fill="white" transform="translate(0.666626 0.400024)"/>
</clipPath>
</defs>
</svg>
