<svg width="84" height="31" viewBox="0 0 84 31" fill="none" xmlns="http://www.w3.org/2000/svg">
<g id="Component 1" clip-path="url(#clip0_23_391)">
<path id="Vector" fill-rule="evenodd" clip-rule="evenodd" d="M7.2391 0.389205C7.11936 0.441893 6.65398 0.568497 6.20494 0.670498C3.89812 1.19498 1.95347 2.85279 0.893407 5.1988C0.553223 5.95155 0.424983 6.4031 0.167859 7.75338C0.0279759 8.48829 0 9.75214 0 15.3431V22.0512L0.255271 22.6258C0.577383 23.3506 1.11885 23.6903 1.95248 23.6903C2.57908 23.6903 2.96988 23.5263 3.37461 23.0933L3.64676 22.8022L3.7073 15.2179C3.76629 7.8187 3.77337 7.6184 4.00011 7.00955C4.51665 5.62226 5.52828 4.6274 6.85809 4.19915C7.61771 3.95444 9.70039 4.00135 10.4062 4.27917C11.2966 4.62947 11.9576 5.1509 12.4218 5.86893C13.1964 7.06747 13.2062 7.13692 13.2743 11.8842C13.3429 16.6758 13.321 16.5545 14.1874 16.9478C15.1083 17.366 16.2681 17.0588 16.6792 16.2879C16.8698 15.9305 16.8799 15.6375 16.8433 11.5525C16.799 6.62637 16.7728 6.44175 15.8702 4.73005C14.3992 1.94055 11.9051 0.44222 8.54541 0.329769C7.94668 0.309739 7.35884 0.336518 7.2391 0.389205ZM50.5649 0.391491C50.4451 0.44211 49.9308 0.560008 49.4218 0.653299C46.0199 1.27739 43.1443 3.21474 41.7026 5.85435C41.3362 6.52502 41.2933 6.70834 41.5032 6.70834C41.7034 6.70834 42.6914 7.24143 42.9448 7.48624C43.1621 7.69612 43.1618 7.69765 42.7903 8.37268C42.3276 9.21372 41.3618 10.7085 40.7754 11.4911C40.333 12.0817 40.3322 12.0845 40.3536 12.9945C40.4038 15.1372 41.1695 17.4668 42.3519 19.0747C43.9351 21.2278 46.2332 22.6182 49.3932 23.3354C50.1717 23.5119 51.1569 23.527 61.8861 23.527C73.8079 23.527 73.7126 23.5298 75.2757 23.1262C76.0974 22.9141 77.8889 22.1466 78.7468 21.6395C79.6705 21.0934 80.8908 19.9731 81.6116 19.0094C82.4359 17.9072 83.096 16.3233 83.4681 14.5553C83.6834 13.5328 83.7107 10.4006 83.5116 9.5931C83.4377 9.29374 83.3255 8.82837 83.2623 8.55894C82.3028 4.47391 78.8978 1.4583 74.1954 0.529308C73.4311 0.378321 71.8462 0.351977 62.0494 0.327484C55.8527 0.312026 50.6846 0.340763 50.5649 0.391491ZM20.7376 0.657106C20.5579 0.7369 20.2886 0.934806 20.1389 1.0969L19.8668 1.39158L19.8123 9.03029L19.7579 16.6689L19.4122 17.4006C18.8614 18.5671 17.9562 19.3382 16.6476 19.7561C16.4338 19.8244 15.7194 19.8803 15.0599 19.8803C13.6337 19.8803 12.7467 19.6384 11.9484 19.0318C11.4421 18.6472 10.6682 17.6278 10.6682 17.3455C10.6682 17.2668 10.607 17.1411 10.5321 17.0664C10.4296 16.964 10.3822 15.8367 10.3399 12.4998C10.2785 7.65182 10.3043 7.831 9.5996 7.36901C9.28499 7.16272 9.06151 7.11177 8.47214 7.11177C7.84076 7.11177 7.68259 7.15335 7.35079 7.40645C6.65867 7.93431 6.64016 8.05786 6.64222 12.1373C6.64495 17.2079 6.81509 18.1425 8.08177 20.0435C9.23741 21.7779 10.8476 22.8763 12.9541 23.3671C13.7248 23.5468 16.4232 23.5482 17.2012 23.3694C19.5752 22.824 21.3018 21.5319 22.4456 19.4448C22.8928 18.6288 22.8886 18.5362 22.3709 17.764C21.4516 16.3931 21.1784 15.2409 21.2552 13.0574C21.3328 10.8479 21.8303 9.25628 22.966 7.5839L23.4151 6.92257L23.3826 4.15702L23.3502 1.39136L23.078 1.09668C22.9283 0.93459 22.6482 0.734724 22.4556 0.652645C22.0149 0.464864 21.1651 0.467039 20.7376 0.657106ZM28.9452 3.93288C26.3173 4.45649 23.8344 6.52873 22.5984 9.22951C21.7495 11.0846 21.4651 13.6679 21.9049 15.5259C22.076 16.2478 22.574 17.3035 22.9874 17.8203C23.4309 18.3748 24.3668 19.0263 25.0945 19.287C26.138 19.6609 28.3346 19.6242 29.8273 19.2079C33.4398 18.2004 37.7565 14.8697 40.6328 10.8709C41.4624 9.71741 42.5647 7.88663 42.4962 7.7758C42.43 7.66869 41.6356 7.25264 41.4973 7.25264C41.4447 7.25264 41.1366 7.6564 40.8125 8.14996C38.3844 11.8473 35.0082 15.0822 32.0312 16.564C31.4772 16.8397 30.8648 17.1146 30.6704 17.1748C29.1083 17.6586 27.7456 17.7298 26.7834 17.378C26.0553 17.1118 25.3484 16.4422 25.0408 15.7273C24.7726 15.1037 24.5673 13.6849 24.719 13.5022C24.7756 13.4342 25.299 13.3459 25.8821 13.3063C27.6214 13.1878 28.8916 12.8439 30.5349 12.0464C32.4215 11.1308 33.5874 10.097 34.2224 8.77665C34.5304 8.13602 34.5626 7.97132 34.5613 7.03491C34.5596 5.87165 34.3881 5.4089 33.7286 4.78786C32.7469 3.86365 30.9259 3.53816 28.9452 3.93288ZM60.0355 5.45647V6.87163L55.3002 6.92606C52.6958 6.956 50.4669 7.02131 50.3471 7.07128C48.3019 7.92452 47.3479 8.97827 46.9654 10.8062C46.7219 11.9696 46.7521 12.4445 47.1584 13.8386C47.4571 14.8641 48.3544 15.873 49.5085 16.4813C50.4186 16.9609 51.0407 17.0499 53.4822 17.0497C56.0391 17.0496 56.264 16.989 56.6822 16.1892C57.0042 15.5732 57.0053 14.9348 56.6855 14.3299C56.2604 13.5261 56.017 13.4579 53.5602 13.4552C51.7089 13.4531 51.3771 13.4263 50.9802 13.2461C49.919 12.7643 49.899 11.2702 50.9463 10.7359C51.36 10.5248 51.5474 10.517 55.489 10.5443L59.6001 10.5728V15.1993V19.8258L55.137 19.8582C50.788 19.8896 49.9726 19.846 49.0408 19.5326C47.1101 18.8834 45.6438 17.6907 44.8342 16.1115C44.1657 14.8073 43.9311 13.7325 43.9339 11.988C43.9362 10.5762 44.0317 9.96071 44.4358 8.75227C45.2689 6.26148 47.7388 4.40228 50.6738 4.05676C50.8533 4.03564 53.0332 4.02345 55.518 4.02977L60.0355 4.0413V5.45647ZM74.6771 4.30616C77.1767 5.04063 79.3001 7.01358 79.8982 9.15766C80.0981 9.87374 80.3339 11.406 80.3339 11.988C80.3339 12.6564 80.0843 14.1816 79.8469 14.9634C79.3502 16.6001 77.9321 18.1968 76.2707 18.99C75.7834 19.2227 75.1887 19.4654 74.9492 19.5292C74.7097 19.593 74.3121 19.6982 74.0657 19.7628C73.7791 19.8379 71.9638 19.8803 69.031 19.8803H64.4444V12.0061C64.4444 7.67533 64.481 4.09541 64.5258 4.05056C64.5706 4.00571 66.6893 3.99091 69.2339 4.01768C73.6046 4.06362 73.9058 4.07951 74.6771 4.30616ZM31.3513 5.27979C32.0277 5.75735 32.2089 7.0211 31.7702 8.20102C31.3414 9.35405 29.6155 10.8394 27.9766 11.4659C27.1727 11.7732 25.5054 12.1444 24.9014 12.1504C24.7382 12.1522 24.826 11.3922 25.0968 10.4575C26.0583 7.13975 28.4256 4.80255 30.5892 5.03508C30.8587 5.06404 31.2016 5.1742 31.3513 5.27979ZM67.8104 7.1736C67.6084 7.30968 67.33 7.58901 67.1917 7.7941L66.9404 8.16716L66.9715 12.0398C67.0025 15.9058 67.0029 15.9131 67.2557 16.2363C67.3949 16.4144 67.6888 16.67 67.9088 16.8045C68.2894 17.037 68.4171 17.0487 70.5404 17.0467C72.9847 17.0444 73.4021 16.9842 74.4533 16.4826C75.6617 15.9058 76.5805 14.7684 76.9513 13.3905C77.1223 12.7552 77.1008 11.184 76.911 10.4558C76.5087 8.91099 75.3145 7.68317 73.6983 7.15259C73.0831 6.95066 72.7459 6.92606 70.5929 6.92606C68.261 6.92606 68.165 6.93455 67.8104 7.1736ZM73.0565 10.7561C73.3315 10.9106 73.5586 11.1573 73.7055 11.4606C73.9075 11.8779 73.9162 11.9692 73.7883 12.3231C73.6096 12.8169 73.0523 13.3172 72.5837 13.4039C72.388 13.4402 71.8603 13.4549 71.4113 13.4365L70.5949 13.4031L70.564 12.1032C70.5471 11.3882 70.5577 10.7392 70.5878 10.6608C70.6273 10.5579 70.9184 10.5184 71.6379 10.5184C72.4598 10.5184 72.7074 10.5599 73.0565 10.7561Z" fill="#1E5DAA"/>
<path id="Vector_2" d="M3.22583 30.4219H2.67266L0.423337 27.029H0.40076C0.406404 27.1193 0.412989 27.2224 0.420515 27.3384C0.428041 27.4527 0.433686 27.5751 0.437448 27.706C0.443092 27.8349 0.445915 27.9666 0.445915 28.101V30.4219H0V26.3824H0.550338L2.7912 29.7643H2.81096C2.80719 29.6998 2.80249 29.6087 2.79684 29.4908C2.7912 29.371 2.78556 29.2431 2.77992 29.1067C2.77615 28.9686 2.77427 28.8405 2.77427 28.7227V26.3824H3.22583V30.4219ZM5.43847 27.344C5.80724 27.344 6.08101 27.425 6.25975 27.5871C6.43849 27.7492 6.52786 28.0081 6.52786 28.3636V30.4219H6.18636L6.09605 29.9743H6.07348C5.98693 30.0848 5.89662 30.1778 5.80254 30.2533C5.70847 30.327 5.59934 30.3832 5.47516 30.4219C5.35287 30.4587 5.20235 30.4771 5.0236 30.4771C4.83545 30.4771 4.668 30.4449 4.52124 30.3804C4.37637 30.316 4.26159 30.2183 4.17692 30.0876C4.09414 29.9568 4.05275 29.791 4.05275 29.5903C4.05275 29.2882 4.17505 29.0561 4.41964 28.8939C4.66423 28.7319 5.03677 28.6434 5.53725 28.6287L6.07066 28.6066V28.4215C6.07066 28.16 6.01327 27.9767 5.8985 27.8717C5.78372 27.7667 5.62192 27.7142 5.41307 27.7142C5.25126 27.7142 5.09698 27.7372 4.95023 27.7833C4.80346 27.8293 4.66423 27.8837 4.53253 27.9464L4.38859 27.5982C4.52783 27.5282 4.68775 27.4683 4.86838 27.4186C5.049 27.3689 5.23904 27.344 5.43847 27.344ZM6.06502 28.9299L5.5937 28.9493C5.20799 28.9639 4.93611 29.0256 4.77806 29.1343C4.62002 29.2431 4.541 29.3969 4.541 29.5958C4.541 29.7689 4.59462 29.8969 4.70187 29.9798C4.80911 30.0627 4.95117 30.1042 5.12803 30.1042C5.40272 30.1042 5.62756 30.0296 5.80254 29.8803C5.97752 29.7311 6.06502 29.5074 6.06502 29.2089V28.9299ZM8.49214 30.1014C8.56928 30.1014 8.64831 30.0949 8.72922 30.082C8.81011 30.0692 8.87597 30.0535 8.92677 30.035V30.3915C8.87221 30.4154 8.79601 30.4357 8.69817 30.4522C8.60221 30.4688 8.50813 30.4771 8.41594 30.4771C8.25226 30.4771 8.10361 30.4496 7.97003 30.3942C7.83645 30.3371 7.7292 30.2414 7.64829 30.1069C7.56927 29.9725 7.52976 29.7864 7.52976 29.5488V27.7529H7.08948V27.5292L7.53258 27.3495L7.71885 26.692H8.00108V27.3937H8.90702V27.7529H8.00108V29.535C8.00108 29.7247 8.04528 29.8665 8.13372 29.9604C8.22403 30.0544 8.3435 30.1014 8.49214 30.1014ZM10.0218 27.3937V30.4219H9.55331V27.3937H10.0218ZM9.79319 26.261C9.87035 26.261 9.9362 26.2858 9.99076 26.3355C10.0472 26.3834 10.0754 26.4589 10.0754 26.5621C10.0754 26.6634 10.0472 26.7389 9.99076 26.7887C9.9362 26.8384 9.87035 26.8633 9.79319 26.8633C9.7123 26.8633 9.64456 26.8384 9.59 26.7887C9.53732 26.7389 9.51098 26.6634 9.51098 26.5621C9.51098 26.4589 9.53732 26.3834 9.59 26.3355C9.64456 26.2858 9.7123 26.261 9.79319 26.261ZM13.6823 28.9022C13.6823 29.1509 13.6494 29.3728 13.5834 29.5681C13.5176 29.7633 13.4227 29.9282 13.2984 30.0627C13.1742 30.1971 13.0238 30.3003 12.8468 30.3721C12.6719 30.4421 12.4734 30.4771 12.2514 30.4771C12.0444 30.4771 11.8543 30.4421 11.6813 30.3721C11.51 30.3003 11.3614 30.1971 11.2353 30.0627C11.1112 29.9282 11.0143 29.7633 10.9447 29.5681C10.8769 29.3728 10.8431 29.1509 10.8431 28.9022C10.8431 28.5708 10.9005 28.2889 11.0152 28.0568C11.13 27.8229 11.2937 27.6451 11.5063 27.5236C11.7208 27.4001 11.9757 27.3384 12.2711 27.3384C12.5534 27.3384 12.7999 27.4001 13.0105 27.5236C13.2232 27.647 13.3878 27.8256 13.5045 28.0595C13.623 28.2917 13.6823 28.5726 13.6823 28.9022ZM11.3285 28.9022C11.3285 29.1454 11.3614 29.3563 11.4272 29.535C11.4931 29.7137 11.5947 29.8518 11.7321 29.9494C11.8694 30.047 12.0462 30.0959 12.2627 30.0959C12.4771 30.0959 12.6531 30.047 12.7904 29.9494C12.9296 29.8518 13.0322 29.7137 13.0981 29.535C13.1639 29.3563 13.1968 29.1454 13.1968 28.9022C13.1968 28.661 13.1639 28.4528 13.0981 28.2778C13.0322 28.101 12.9306 27.9648 12.7932 27.8689C12.6559 27.7732 12.4781 27.7253 12.2598 27.7253C11.9381 27.7253 11.702 27.8293 11.5515 28.0375C11.4028 28.2456 11.3285 28.5339 11.3285 28.9022ZM15.957 27.3384C16.3239 27.3384 16.6014 27.4268 16.7896 27.6037C16.9777 27.7787 17.0718 28.0605 17.0718 28.4492V30.4219H16.609V28.4795C16.609 28.2272 16.5496 28.0384 16.4312 27.9132C16.3145 27.7879 16.1348 27.7253 15.892 27.7253C15.5497 27.7253 15.3088 27.8201 15.1695 28.0099C15.0304 28.1995 14.9607 28.4749 14.9607 28.836V30.4219H14.4923V27.3937H14.8704L14.941 27.8303H14.9664C15.0322 27.7234 15.1159 27.634 15.2176 27.5622C15.3191 27.4886 15.433 27.4333 15.5591 27.3965C15.6851 27.3578 15.8177 27.3384 15.957 27.3384ZM19.1941 27.344C19.5628 27.344 19.8366 27.425 20.0154 27.5871C20.1941 27.7492 20.2835 28.0081 20.2835 28.3636V30.4219H19.942L19.8517 29.9743H19.8291C19.7426 30.0848 19.6522 30.1778 19.5582 30.2533C19.4641 30.327 19.355 30.3832 19.2308 30.4219C19.1085 30.4587 18.9579 30.4771 18.7793 30.4771C18.5911 30.4771 18.4237 30.4449 18.2769 30.3804C18.132 30.316 18.0172 30.2183 17.9326 30.0876C17.8498 29.9568 17.8084 29.791 17.8084 29.5903C17.8084 29.2882 17.9307 29.0561 18.1752 28.8939C18.4199 28.7319 18.7924 28.6434 19.2929 28.6287L19.8263 28.6066V28.4215C19.8263 28.16 19.7689 27.9767 19.6542 27.8717C19.5394 27.7667 19.3775 27.7142 19.1687 27.7142C19.0069 27.7142 18.8526 27.7372 18.7058 27.7833C18.5592 27.8293 18.4199 27.8837 18.2882 27.9464L18.1442 27.5982C18.2835 27.5282 18.4434 27.4683 18.624 27.4186C18.8046 27.3689 18.9947 27.344 19.1941 27.344ZM19.8207 28.9299L19.3493 28.9493C18.9636 28.9639 18.6917 29.0256 18.5337 29.1343C18.3756 29.2431 18.2966 29.3969 18.2966 29.5958C18.2966 29.7689 18.3502 29.8969 18.4575 29.9798C18.5648 30.0627 18.7068 30.1042 18.8836 30.1042C19.1584 30.1042 19.3832 30.0296 19.5582 29.8803C19.7331 29.7311 19.8207 29.5074 19.8207 29.2089V28.9299ZM21.72 30.4219H21.2487V26.1228H21.72V30.4219ZM25.403 27.3384C25.6664 27.3384 25.8922 27.3956 26.0804 27.5098C26.2685 27.6239 26.4125 27.7842 26.5122 27.9905C26.612 28.195 26.6618 28.4344 26.6618 28.7089V28.9934H24.5253C24.531 29.3489 24.6213 29.6197 24.7963 29.8058C24.9713 29.9918 25.2178 30.0848 25.5357 30.0848C25.7314 30.0848 25.9045 30.0674 26.055 30.0324C26.2055 29.9974 26.3617 29.9458 26.5234 29.8776V30.281C26.3673 30.3491 26.2121 30.3988 26.0578 30.4302C25.9054 30.4615 25.7248 30.4771 25.516 30.4771C25.2186 30.4771 24.959 30.4182 24.737 30.3003C24.5169 30.1805 24.3457 30.0056 24.2233 29.7754C24.101 29.5452 24.0399 29.2633 24.0399 28.9299C24.0399 28.6039 24.0954 28.3221 24.2064 28.0844C24.3193 27.845 24.4774 27.6608 24.6806 27.5318C24.8856 27.4029 25.1264 27.3384 25.403 27.3384ZM25.3974 27.7142C25.1471 27.7142 24.9477 27.7944 24.7991 27.9546C24.6504 28.1149 24.562 28.3387 24.5338 28.626H26.1707C26.1688 28.4455 26.1396 28.2871 26.0832 28.1508C26.0287 28.0126 25.9449 27.9058 25.832 27.8303C25.7192 27.7529 25.5742 27.7142 25.3974 27.7142ZM27.1952 29.1067V28.6978H28.595V29.1067H27.1952ZM31.1547 28.3055H32.597V30.2644C32.3806 30.3363 32.1577 30.3897 31.9281 30.4247C31.7004 30.4597 31.4455 30.4771 31.1632 30.4771C30.7343 30.4771 30.3721 30.3933 30.0767 30.2257C29.7832 30.0581 29.5602 29.8196 29.4079 29.5102C29.2554 29.1988 29.1792 28.8295 29.1792 28.4022C29.1792 27.984 29.2629 27.6194 29.4304 27.3081C29.5998 26.9968 29.8434 26.7555 30.1614 26.5842C30.4812 26.4111 30.865 26.3245 31.3128 26.3245C31.5424 26.3245 31.7596 26.3456 31.9648 26.388C32.1718 26.4285 32.3637 26.4866 32.5405 26.5621L32.357 26.971C32.2046 26.9066 32.0363 26.8512 31.8519 26.8052C31.6694 26.7592 31.4803 26.7361 31.2846 26.7361C30.9479 26.7361 30.659 26.8043 30.4182 26.9406C30.1793 27.077 29.9958 27.2694 29.8678 27.5181C29.7418 27.7667 29.6787 28.0615 29.6787 28.4022C29.6787 28.7393 29.7343 29.0331 29.8453 29.2836C29.9562 29.5322 30.1294 29.7256 30.3646 29.8638C30.5998 30.0019 30.9026 30.071 31.2733 30.071C31.4596 30.071 31.6195 30.0609 31.7531 30.0406C31.8867 30.0185 32.0081 29.9927 32.1172 29.9632V28.7254H31.1547V28.3055ZM36.1925 28.9022C36.1925 29.1509 36.1596 29.3728 36.0937 29.5681C36.0279 29.7633 35.9328 29.9282 35.8087 30.0627C35.6845 30.1971 35.5339 30.3003 35.3571 30.3721C35.1821 30.4421 34.9836 30.4771 34.7617 30.4771C34.5547 30.4771 34.3646 30.4421 34.1916 30.3721C34.0203 30.3003 33.8717 30.1971 33.7456 30.0627C33.6214 29.9282 33.5245 29.7633 33.4549 29.5681C33.3872 29.3728 33.3533 29.1509 33.3533 28.9022C33.3533 28.5708 33.4107 28.2889 33.5255 28.0568C33.6403 27.8229 33.804 27.6451 34.0166 27.5236C34.2311 27.4001 34.486 27.3384 34.7814 27.3384C35.0636 27.3384 35.31 27.4001 35.5208 27.5236C35.7334 27.647 35.898 27.8256 36.0147 28.0595C36.1332 28.2917 36.1925 28.5726 36.1925 28.9022ZM33.8388 28.9022C33.8388 29.1454 33.8717 29.3563 33.9375 29.535C34.0034 29.7137 34.105 29.8518 34.2423 29.9494C34.3797 30.047 34.5565 30.0959 34.7729 30.0959C34.9874 30.0959 35.1634 30.047 35.3007 29.9494C35.4399 29.8518 35.5424 29.7137 35.6082 29.535C35.6742 29.3563 35.7071 29.1454 35.7071 28.9022C35.7071 28.661 35.6742 28.4528 35.6082 28.2778C35.5424 28.101 35.4409 27.9648 35.3035 27.8689C35.1662 27.7732 34.9884 27.7253 34.7701 27.7253C34.4484 27.7253 34.2122 27.8293 34.0617 28.0375C33.9131 28.2456 33.8388 28.5339 33.8388 28.9022ZM37.6826 30.4219L36.5086 27.3937H37.0109L37.6911 29.2255C37.7382 29.3508 37.7861 29.4889 37.835 29.6399C37.884 29.791 37.9178 29.9126 37.9367 30.0047H37.9564C37.979 29.9126 38.0166 29.791 38.0693 29.6399C38.122 29.4871 38.1699 29.3489 38.2132 29.2255L38.8934 27.3937H39.3958L38.2189 30.4219H37.6826ZM41.0834 27.3384C41.3468 27.3384 41.5727 27.3956 41.7608 27.5098C41.949 27.6239 42.0928 27.7842 42.1926 27.9905C42.2923 28.195 42.3421 28.4344 42.3421 28.7089V28.9934H40.2057C40.2113 29.3489 40.3017 29.6197 40.4767 29.8058C40.6517 29.9918 40.8981 30.0848 41.2161 30.0848C41.4118 30.0848 41.5848 30.0674 41.7354 30.0324C41.886 29.9974 42.0421 29.9458 42.2039 29.8776V30.281C42.0477 30.3491 41.8925 30.3988 41.7382 30.4302C41.5858 30.4615 41.4052 30.4771 41.1964 30.4771C40.8991 30.4771 40.6394 30.4182 40.4175 30.3003C40.1972 30.1805 40.0261 30.0056 39.9038 29.7754C39.7814 29.5452 39.7203 29.2633 39.7203 28.9299C39.7203 28.6039 39.7758 28.3221 39.8869 28.0844C39.9997 27.845 40.1577 27.6608 40.3609 27.5318C40.5661 27.4029 40.8069 27.3384 41.0834 27.3384ZM41.0778 27.7142C40.8276 27.7142 40.6281 27.7944 40.4795 27.9546C40.3309 28.1149 40.2425 28.3387 40.2142 28.626H41.8511C41.8492 28.4455 41.82 28.2871 41.7636 28.1508C41.709 28.0126 41.6253 27.9058 41.5125 27.8303C41.3995 27.7529 41.2547 27.7142 41.0778 27.7142ZM44.5436 27.3384C44.6056 27.3384 44.6706 27.3422 44.7383 27.3495C44.806 27.355 44.8662 27.3633 44.9189 27.3744L44.8597 27.7999C44.8088 27.787 44.7524 27.7768 44.6903 27.7695C44.6282 27.7621 44.5699 27.7584 44.5153 27.7584C44.3911 27.7584 44.2735 27.7833 44.1626 27.8331C44.0534 27.8809 43.9574 27.9509 43.8747 28.0431C43.7919 28.1333 43.727 28.2428 43.6799 28.3718C43.6329 28.4989 43.6094 28.6408 43.6094 28.7972V30.4219H43.1381V27.3937H43.5275L43.5783 27.9518H43.598C43.662 27.8395 43.7392 27.7372 43.8295 27.6451C43.9198 27.5512 44.0243 27.4766 44.1428 27.4214C44.2632 27.3661 44.3968 27.3384 44.5436 27.3384ZM46.9678 27.3384C47.3348 27.3384 47.6123 27.4268 47.8004 27.6037C47.9886 27.7787 48.0827 28.0605 48.0827 28.4492V30.4219H47.6198V28.4795C47.6198 28.2272 47.5605 28.0384 47.442 27.9132C47.3253 27.7879 47.1456 27.7253 46.9029 27.7253C46.5606 27.7253 46.3196 27.8201 46.1804 28.0099C46.0412 28.1995 45.9716 28.4749 45.9716 28.836V30.4219H45.5031V27.3937H45.8812L45.9519 27.8303H45.9772C46.0431 27.7234 46.1268 27.634 46.2284 27.5622C46.33 27.4886 46.4438 27.4333 46.5699 27.3965C46.6959 27.3578 46.8286 27.3384 46.9678 27.3384ZM50.205 27.344C50.5737 27.344 50.8475 27.425 51.0262 27.5871C51.205 27.7492 51.2944 28.0081 51.2944 28.3636V30.4219H50.9529L50.8625 29.9743H50.8399C50.7534 30.0848 50.6631 30.1778 50.5691 30.2533C50.475 30.327 50.3659 30.3832 50.2417 30.4219C50.1194 30.4587 49.9688 30.4771 49.7901 30.4771C49.6019 30.4771 49.4345 30.4449 49.2878 30.3804C49.1429 30.316 49.0281 30.2183 48.9435 30.0876C48.8606 29.9568 48.8193 29.791 48.8193 29.5903C48.8193 29.2882 48.9415 29.0561 49.1861 28.8939C49.4308 28.7319 49.8033 28.6434 50.3037 28.6287L50.8371 28.6066V28.4215C50.8371 28.16 50.7797 27.9767 50.665 27.8717C50.5502 27.7667 50.3884 27.7142 50.1796 27.7142C50.0178 27.7142 49.8635 27.7372 49.7167 27.7833C49.5699 27.8293 49.4308 27.8837 49.2991 27.9464L49.1551 27.5982C49.2943 27.5282 49.4543 27.4683 49.6348 27.4186C49.8154 27.3689 50.0055 27.344 50.205 27.344ZM50.8315 28.9299L50.3602 28.9493C49.9745 28.9639 49.7026 29.0256 49.5446 29.1343C49.3865 29.2431 49.3075 29.3969 49.3075 29.5958C49.3075 29.7689 49.3611 29.8969 49.4684 29.9798C49.5756 30.0627 49.7177 30.1042 49.8945 30.1042C50.1692 30.1042 50.3941 30.0296 50.5691 29.8803C50.744 29.7311 50.8315 29.5074 50.8315 29.2089V28.9299ZM53.7244 27.3384C54.0912 27.3384 54.3687 27.4268 54.5568 27.6037C54.7451 27.7787 54.8391 28.0605 54.8391 28.4492V30.4219H54.3762V28.4795C54.3762 28.2272 54.317 28.0384 54.1984 27.9132C54.0818 27.7879 53.9022 27.7253 53.6594 27.7253C53.317 27.7253 53.0762 27.8201 52.9369 28.0099C52.7977 28.1995 52.7281 28.4749 52.7281 28.836V30.4219H52.2595V27.3937H52.6377L52.7083 27.8303H52.7337C52.7996 27.7234 52.8833 27.634 52.9848 27.5622C53.0865 27.4886 53.2003 27.4333 53.3263 27.3965C53.4524 27.3578 53.5851 27.3384 53.7244 27.3384ZM57.0432 30.4771C56.7648 30.4771 56.5193 30.4209 56.3067 30.3086C56.094 30.1963 55.9285 30.0249 55.8099 29.7947C55.6915 29.5644 55.6321 29.2743 55.6321 28.9244C55.6321 28.5578 55.6943 28.2586 55.8184 28.0265C55.9444 27.7925 56.1176 27.6194 56.3377 27.507C56.5578 27.3946 56.8081 27.3384 57.0884 27.3384C57.2427 27.3384 57.3914 27.3542 57.5343 27.3854C57.6793 27.4149 57.7977 27.4527 57.8899 27.4987L57.7488 27.8827C57.6548 27.8459 57.5456 27.8128 57.4214 27.7833C57.2992 27.7538 57.1844 27.739 57.0771 27.739C56.8626 27.739 56.684 27.7842 56.5409 27.8745C56.3998 27.9648 56.2935 28.0973 56.222 28.2723C56.1524 28.4473 56.1176 28.6628 56.1176 28.9188C56.1176 29.1638 56.1514 29.3728 56.2192 29.546C56.2888 29.7192 56.3914 29.8518 56.5268 29.9439C56.6641 30.0342 56.8354 30.0793 57.0404 30.0793C57.2041 30.0793 57.3519 30.0627 57.4836 30.0296C57.6153 29.9946 57.7347 29.9541 57.842 29.908V30.3169C57.7385 30.3685 57.6228 30.4081 57.4949 30.4357C57.3688 30.4633 57.2182 30.4771 57.0432 30.4771ZM59.7668 27.3384C60.0302 27.3384 60.2559 27.3956 60.444 27.5098C60.6323 27.6239 60.7762 27.7842 60.8759 27.9905C60.9756 28.195 61.0255 28.4344 61.0255 28.7089V28.9934H58.8891C58.8947 29.3489 58.985 29.6197 59.1599 29.8058C59.3349 29.9918 59.5814 30.0848 59.8994 30.0848C60.0951 30.0848 60.2682 30.0674 60.4187 30.0324C60.5692 29.9974 60.7253 29.9458 60.8872 29.8776V30.281C60.731 30.3491 60.5757 30.3988 60.4215 30.4302C60.2691 30.4615 60.0884 30.4771 59.8796 30.4771C59.5824 30.4771 59.3227 30.4182 59.1007 30.3003C58.8806 30.1805 58.7093 30.0056 58.587 29.7754C58.4648 29.5452 58.4036 29.2633 58.4036 28.9299C58.4036 28.6039 58.459 28.3221 58.5701 28.0844C58.6831 27.845 58.841 27.6608 59.0443 27.5318C59.2493 27.4029 59.4902 27.3384 59.7668 27.3384ZM59.7611 27.7142C59.5109 27.7142 59.3114 27.7944 59.1628 27.9546C59.0141 28.1149 58.9257 28.3387 58.8975 28.626H60.5344C60.5326 28.4455 60.5034 28.2871 60.4469 28.1508C60.3923 28.0126 60.3087 27.9058 60.1957 27.8303C60.0828 27.7529 59.938 27.7142 59.7611 27.7142ZM66.6699 28.3636C66.6699 28.8184 66.5853 29.1988 66.416 29.5046C66.2466 29.8085 66.0011 30.0378 65.6794 30.1926C65.3595 30.3454 64.971 30.4219 64.5137 30.4219H63.3933V26.3824H64.6379C65.0575 26.3824 65.4188 26.458 65.7217 26.609C66.0247 26.7583 66.2579 26.9802 66.4216 27.2749C66.5871 27.5678 66.6699 27.9306 66.6699 28.3636ZM66.1648 28.38C66.1648 28.0172 66.1027 27.7179 65.9786 27.4821C65.8562 27.2464 65.6756 27.0714 65.4367 26.9572C65.1996 26.8411 64.9089 26.7832 64.5646 26.7832H63.8731V30.0185H64.4573C65.0255 30.0185 65.4517 29.8813 65.7358 29.6069C66.0217 29.3324 66.1648 28.9234 66.1648 28.38ZM67.9851 27.3937V30.4219H67.5166V27.3937H67.9851ZM67.7566 26.261C67.8337 26.261 67.8995 26.2858 67.9541 26.3355C68.0105 26.3834 68.0387 26.4589 68.0387 26.5621C68.0387 26.6634 68.0105 26.7389 67.9541 26.7887C67.8995 26.8384 67.8337 26.8633 67.7566 26.8633C67.6756 26.8633 67.6078 26.8384 67.5533 26.7887C67.5007 26.7389 67.4743 26.6634 67.4743 26.5621C67.4743 26.4589 67.5007 26.3834 67.5533 26.3355C67.6078 26.2858 67.6756 26.261 67.7566 26.261ZM69.6587 30.4219L68.4847 27.3937H68.9871L69.6672 29.2255C69.7142 29.3508 69.7622 29.4889 69.8111 29.6399C69.86 29.791 69.8939 29.9126 69.9128 30.0047H69.9325C69.9551 29.9126 69.9927 29.791 70.0453 29.6399C70.098 29.4871 70.146 29.3489 70.1893 29.2255L70.8695 27.3937H71.3718L70.1949 30.4219H69.6587ZM72.337 27.3937V30.4219H71.8686V27.3937H72.337ZM72.1084 26.261C72.1856 26.261 72.2514 26.2858 72.306 26.3355C72.3624 26.3834 72.3907 26.4589 72.3907 26.5621C72.3907 26.6634 72.3624 26.7389 72.306 26.7887C72.2514 26.8384 72.1856 26.8633 72.1084 26.8633C72.0275 26.8633 71.9598 26.8384 71.9052 26.7887C71.8525 26.7389 71.8262 26.6634 71.8262 26.5621C71.8262 26.4589 71.8525 26.3834 71.9052 26.3355C71.9598 26.2858 72.0275 26.261 72.1084 26.261ZM75.3314 29.593C75.3314 29.7864 75.2816 29.9494 75.1818 30.082C75.084 30.2128 74.9429 30.3114 74.7585 30.3776C74.5761 30.444 74.3578 30.4771 74.1037 30.4771C73.8874 30.4771 73.7002 30.4605 73.5421 30.4274C73.3841 30.3942 73.2457 30.3472 73.1273 30.2865V29.8638C73.2533 29.9246 73.4038 29.9798 73.5788 30.0296C73.7538 30.0793 73.9325 30.1042 74.115 30.1042C74.3822 30.1042 74.5761 30.0618 74.6965 29.977C74.8169 29.8924 74.8771 29.7772 74.8771 29.6316C74.8771 29.5488 74.8526 29.476 74.8037 29.4134C74.7567 29.3489 74.6767 29.2872 74.5638 29.2283C74.4509 29.1675 74.2948 29.1012 74.0953 29.0294C73.8977 28.9556 73.7265 28.883 73.5816 28.8111C73.4386 28.7375 73.3276 28.6481 73.2486 28.5431C73.1714 28.4381 73.1329 28.3018 73.1329 28.1342C73.1329 27.8782 73.2383 27.682 73.449 27.5457C73.6617 27.4076 73.94 27.3384 74.2844 27.3384C74.4706 27.3384 74.6447 27.3568 74.8065 27.3937C74.9702 27.4287 75.1226 27.4766 75.2637 27.5374L75.1057 27.9049C74.9778 27.8515 74.8413 27.8064 74.6965 27.7695C74.5515 27.7327 74.4039 27.7142 74.2533 27.7142C74.037 27.7142 73.8705 27.7492 73.7538 27.8192C73.639 27.8892 73.5816 27.985 73.5816 28.1066C73.5816 28.2005 73.608 28.2778 73.6607 28.3387C73.7153 28.3994 73.8018 28.4565 73.9203 28.5099C74.0389 28.5633 74.1951 28.626 74.3888 28.6978C74.5826 28.7678 74.7501 28.8405 74.8912 28.9161C75.0322 28.9898 75.1405 29.08 75.2158 29.1869C75.2929 29.2919 75.3314 29.4272 75.3314 29.593ZM76.5535 27.3937V30.4219H76.0849V27.3937H76.5535ZM76.3249 26.261C76.402 26.261 76.4679 26.2858 76.5224 26.3355C76.5788 26.3834 76.6071 26.4589 76.6071 26.5621C76.6071 26.6634 76.5788 26.7389 76.5224 26.7887C76.4679 26.8384 76.402 26.8633 76.3249 26.8633C76.244 26.8633 76.1763 26.8384 76.1217 26.7887C76.069 26.7389 76.0426 26.6634 76.0426 26.5621C76.0426 26.4589 76.069 26.3834 76.1217 26.3355C76.1763 26.2858 76.244 26.261 76.3249 26.261ZM80.214 28.9022C80.214 29.1509 80.181 29.3728 80.1151 29.5681C80.0493 29.7633 79.9543 29.9282 79.83 30.0627C79.7059 30.1971 79.5554 30.3003 79.3785 30.3721C79.2036 30.4421 79.005 30.4771 78.7831 30.4771C78.5761 30.4771 78.386 30.4421 78.2129 30.3721C78.0417 30.3003 77.8931 30.1971 77.767 30.0627C77.6428 29.9282 77.546 29.7633 77.4763 29.5681C77.4086 29.3728 77.3748 29.1509 77.3748 28.9022C77.3748 28.5708 77.4322 28.2889 77.5469 28.0568C77.6617 27.8229 77.8254 27.6451 78.0379 27.5236C78.2525 27.4001 78.5074 27.3384 78.8028 27.3384C79.085 27.3384 79.3315 27.4001 79.5422 27.5236C79.7549 27.647 79.9194 27.8256 80.0362 28.0595C80.1546 28.2917 80.214 28.5726 80.214 28.9022ZM77.8601 28.9022C77.8601 29.1454 77.8931 29.3563 77.9589 29.535C78.0248 29.7137 78.1264 29.8518 78.2638 29.9494C78.4011 30.047 78.5779 30.0959 78.7944 30.0959C79.0088 30.0959 79.1848 30.047 79.3221 29.9494C79.4613 29.8518 79.5638 29.7137 79.6297 29.535C79.6955 29.3563 79.7285 29.1454 79.7285 28.9022C79.7285 28.661 79.6955 28.4528 79.6297 28.2778C79.5638 28.101 79.4623 27.9648 79.3249 27.8689C79.1876 27.7732 79.0098 27.7253 78.7915 27.7253C78.4698 27.7253 78.2336 27.8293 78.0832 28.0375C77.9344 28.2456 77.8601 28.5339 77.8601 28.9022ZM82.4887 27.3384C82.8556 27.3384 83.1331 27.4268 83.3212 27.6037C83.5094 27.7787 83.6035 28.0605 83.6035 28.4492V30.4219H83.1406V28.4795C83.1406 28.2272 83.0813 28.0384 82.9628 27.9132C82.8462 27.7879 82.6665 27.7253 82.4237 27.7253C82.0814 27.7253 81.8405 27.8201 81.7012 28.0099C81.5621 28.1995 81.4924 28.4749 81.4924 28.836V30.4219H81.0239V27.3937H81.4021L81.4727 27.8303H81.4981C81.5639 27.7234 81.6477 27.634 81.7492 27.5622C81.8508 27.4886 81.9646 27.4333 82.0907 27.3965C82.2167 27.3578 82.3494 27.3384 82.4887 27.3384Z" fill="#1E5DAA"/>
<path id="Vector_3" fill-rule="evenodd" clip-rule="evenodd" d="M28.9452 3.93315C26.3173 4.45676 23.8343 6.52899 22.5984 9.22978C21.7495 11.0848 21.4651 13.6682 21.9049 15.5262C22.0759 16.2481 22.574 17.3038 22.9873 17.8206C23.4309 18.3751 24.3668 19.0265 25.0944 19.2872C26.138 19.6611 28.3346 19.6245 29.8273 19.2082C33.4397 18.2006 37.7565 14.87 40.6328 10.8711C41.4624 9.71769 42.5647 7.8869 42.4962 7.77608C42.43 7.66896 41.6356 7.2529 41.4973 7.2529C41.4447 7.2529 41.1366 7.65666 40.8125 8.15023C38.3844 11.8475 35.0082 15.0826 32.0312 16.5642C31.4772 16.84 30.8648 17.1148 30.6704 17.175C29.1082 17.6588 27.7456 17.73 26.7834 17.3783C26.0553 17.1122 25.3484 16.4424 25.0408 15.7276C24.7726 15.1039 24.5673 13.6853 24.719 13.5025C24.7756 13.4345 25.299 13.3462 25.8821 13.3065C27.6213 13.1881 28.8916 12.8441 30.5348 12.0467C32.4215 11.1311 33.5874 10.0973 34.2223 8.77693C34.5303 8.13629 34.5625 7.97159 34.5613 7.03519C34.5596 5.87192 34.3881 5.40917 33.7286 4.78813C32.7469 3.86392 30.9259 3.53843 28.9452 3.93315ZM31.3513 5.28006C32.0277 5.75763 32.2088 7.02136 31.7702 8.20128C31.3414 9.35431 29.6155 10.8397 27.9766 11.4662C27.1727 11.7735 25.5054 12.1447 24.9014 12.1507C24.7382 12.1524 24.826 11.3925 25.0968 10.4578C26.0583 7.14002 28.4256 4.80283 30.5892 5.03534C30.8587 5.0643 31.2016 5.17447 31.3513 5.28006Z" fill="#25813F"/>
</g>
<defs>
<clipPath id="clip0_23_391">
<rect width="84" height="30.1538" fill="white" transform="translate(0 0.32312)"/>
</clipPath>
</defs>
</svg>
