<svg width="56" height="56" viewBox="0 0 56 56" fill="none" xmlns="http://www.w3.org/2000/svg">
<g id="Group 764">
<rect id="Rectangle 963" width="56" height="56" rx="5" fill="#FF9500"/>
<path id="Polygon 55" d="M19.9645 19.6446C22.6571 14.9809 24.0034 12.649 25.7803 11.9021C27.1997 11.3054 28.7996 11.3054 30.2191 11.9021C31.9959 12.649 33.3422 14.9809 36.0348 19.6446L42.5599 30.9464C45.2525 35.6101 46.5988 37.942 46.3573 39.8542C46.1643 41.3818 45.3643 42.7674 44.1379 43.6984C42.6026 44.8637 39.91 44.8637 34.5248 44.8637H21.4746C16.0894 44.8637 13.3968 44.8637 11.8615 43.6984C10.6351 42.7674 9.8351 41.3818 9.64211 39.8542C9.40054 37.942 10.7468 35.6101 13.4394 30.9464L19.9645 19.6446Z" fill="white"/>
<rect id="Rectangle 964" x="26.1609" y="20.4254" width="3.67556" height="13.5471" rx="1.83778" fill="#FF9500"/>
<rect id="Rectangle 965" x="26.1609" y="36.5978" width="3.67556" height="3.67556" rx="1.83778" fill="#FF9500"/>
</g>
</svg>
