<svg xmlns="http://www.w3.org/2000/svg" xmlns:xlink="http://www.w3.org/1999/xlink" width="191" zoomAndPan="magnify" viewBox="0 0 143.25 41.25" height="55" preserveAspectRatio="xMidYMid meet" version="1.0"><defs><g/><clipPath id="1a069740f5"><path d="M 20 6.871094 L 30 6.871094 L 30 20 L 20 20 Z M 20 6.871094 " clip-rule="nonzero"/></clipPath><clipPath id="22a8cff904"><path d="M 8 6.871094 L 22 6.871094 L 22 16 L 8 16 Z M 8 6.871094 " clip-rule="nonzero"/></clipPath><clipPath id="ee1fffe1f9"><path d="M 22 12 L 32.953125 12 L 32.953125 25 L 22 25 Z M 22 12 " clip-rule="nonzero"/></clipPath><clipPath id="86c1e8a572"><path d="M 12 22 L 24 22 L 24 33.390625 L 12 33.390625 Z M 12 22 " clip-rule="nonzero"/></clipPath><clipPath id="a63d6e2232"><path d="M 4.960938 11 L 17 11 L 17 22 L 4.960938 22 Z M 4.960938 11 " clip-rule="nonzero"/></clipPath></defs><g fill="#2755a3" fill-opacity="1"><g transform="translate(33.259182, 25.577346)"><g><path d="M 7.53125 0.21875 C 6.320312 0.21875 5.132812 0.015625 3.96875 -0.390625 C 2.8125 -0.804688 1.757812 -1.445312 0.8125 -2.3125 L 2.875 -4.765625 C 3.59375 -4.179688 4.332031 -3.710938 5.09375 -3.359375 C 5.851562 -3.015625 6.6875 -2.84375 7.59375 -2.84375 C 8.320312 -2.84375 8.882812 -2.972656 9.28125 -3.234375 C 9.675781 -3.503906 9.875 -3.875 9.875 -4.34375 L 9.875 -4.390625 C 9.875 -4.609375 9.832031 -4.804688 9.75 -4.984375 C 9.664062 -5.160156 9.507812 -5.320312 9.28125 -5.46875 C 9.050781 -5.625 8.726562 -5.773438 8.3125 -5.921875 C 7.894531 -6.078125 7.351562 -6.238281 6.6875 -6.40625 C 5.894531 -6.59375 5.171875 -6.804688 4.515625 -7.046875 C 3.867188 -7.296875 3.316406 -7.597656 2.859375 -7.953125 C 2.410156 -8.304688 2.0625 -8.742188 1.8125 -9.265625 C 1.570312 -9.796875 1.453125 -10.453125 1.453125 -11.234375 L 1.453125 -11.28125 C 1.453125 -12.007812 1.585938 -12.660156 1.859375 -13.234375 C 2.128906 -13.816406 2.507812 -14.316406 3 -14.734375 C 3.488281 -15.160156 4.070312 -15.484375 4.75 -15.703125 C 5.425781 -15.929688 6.171875 -16.046875 6.984375 -16.046875 C 8.148438 -16.046875 9.21875 -15.875 10.1875 -15.53125 C 11.15625 -15.1875 12.046875 -14.691406 12.859375 -14.046875 L 11.0625 -11.421875 C 10.351562 -11.898438 9.65625 -12.28125 8.96875 -12.5625 C 8.289062 -12.84375 7.613281 -12.984375 6.9375 -12.984375 C 6.257812 -12.984375 5.75 -12.847656 5.40625 -12.578125 C 5.070312 -12.316406 4.90625 -11.988281 4.90625 -11.59375 L 4.90625 -11.546875 C 4.90625 -11.296875 4.953125 -11.078125 5.046875 -10.890625 C 5.148438 -10.703125 5.328125 -10.53125 5.578125 -10.375 C 5.835938 -10.226562 6.1875 -10.085938 6.625 -9.953125 C 7.070312 -9.816406 7.632812 -9.65625 8.3125 -9.46875 C 9.113281 -9.257812 9.828125 -9.019531 10.453125 -8.75 C 11.078125 -8.488281 11.601562 -8.171875 12.03125 -7.796875 C 12.46875 -7.429688 12.796875 -7 13.015625 -6.5 C 13.234375 -6.007812 13.34375 -5.414062 13.34375 -4.71875 L 13.34375 -4.6875 C 13.34375 -3.894531 13.195312 -3.191406 12.90625 -2.578125 C 12.625 -1.972656 12.222656 -1.460938 11.703125 -1.046875 C 11.191406 -0.628906 10.582031 -0.3125 9.875 -0.09375 C 9.164062 0.113281 8.382812 0.21875 7.53125 0.21875 Z M 7.53125 0.21875 "/></g></g></g><g fill="#2755a3" fill-opacity="1"><g transform="translate(47.721638, 25.577346)"><g><path d="M 7.328125 -15.9375 L 10.53125 -15.9375 L 17.3125 0 L 13.671875 0 L 12.234375 -3.546875 L 5.546875 -3.546875 L 4.09375 0 L 0.546875 0 Z M 10.984375 -6.625 L 8.890625 -11.75 L 6.78125 -6.625 Z M 10.984375 -6.625 "/></g></g></g><g fill="#2755a3" fill-opacity="1"><g transform="translate(65.573734, 25.577346)"><g><path d="M 1.90625 -15.828125 L 5.109375 -15.828125 L 12.53125 -6.078125 L 12.53125 -15.828125 L 15.96875 -15.828125 L 15.96875 0 L 13 0 L 5.328125 -10.0625 L 5.328125 0 L 1.90625 0 Z M 1.90625 -15.828125 "/></g></g></g><g fill="#2755a3" fill-opacity="1"><g transform="translate(83.42583, 25.577346)"><g><path d="M 9.515625 0.265625 C 8.285156 0.265625 7.160156 0.0625 6.140625 -0.34375 C 5.117188 -0.75 4.242188 -1.3125 3.515625 -2.03125 C 2.785156 -2.757812 2.21875 -3.617188 1.8125 -4.609375 C 1.40625 -5.609375 1.203125 -6.695312 1.203125 -7.875 L 1.203125 -7.90625 C 1.203125 -9.039062 1.40625 -10.101562 1.8125 -11.09375 C 2.226562 -12.082031 2.804688 -12.945312 3.546875 -13.6875 C 4.285156 -14.4375 5.160156 -15.023438 6.171875 -15.453125 C 7.179688 -15.878906 8.289062 -16.09375 9.5 -16.09375 C 10.207031 -16.09375 10.847656 -16.039062 11.421875 -15.9375 C 12.003906 -15.84375 12.546875 -15.707031 13.046875 -15.53125 C 13.546875 -15.351562 14.015625 -15.128906 14.453125 -14.859375 C 14.890625 -14.585938 15.3125 -14.273438 15.71875 -13.921875 L 13.515625 -11.28125 C 13.210938 -11.539062 12.910156 -11.765625 12.609375 -11.953125 C 12.304688 -12.148438 11.992188 -12.316406 11.671875 -12.453125 C 11.347656 -12.585938 11 -12.691406 10.625 -12.765625 C 10.25 -12.847656 9.835938 -12.890625 9.390625 -12.890625 C 8.753906 -12.890625 8.160156 -12.753906 7.609375 -12.484375 C 7.054688 -12.222656 6.570312 -11.867188 6.15625 -11.421875 C 5.75 -10.984375 5.425781 -10.460938 5.1875 -9.859375 C 4.957031 -9.265625 4.84375 -8.628906 4.84375 -7.953125 L 4.84375 -7.90625 C 4.84375 -7.1875 4.957031 -6.519531 5.1875 -5.90625 C 5.425781 -5.300781 5.757812 -4.769531 6.1875 -4.3125 C 6.613281 -3.863281 7.113281 -3.515625 7.6875 -3.265625 C 8.269531 -3.015625 8.914062 -2.890625 9.625 -2.890625 C 10.925781 -2.890625 12.019531 -3.207031 12.90625 -3.84375 L 12.90625 -6.109375 L 9.40625 -6.109375 L 9.40625 -9.109375 L 16.28125 -9.109375 L 16.28125 -2.234375 C 15.46875 -1.546875 14.5 -0.957031 13.375 -0.46875 C 12.25 0.0195312 10.960938 0.265625 9.515625 0.265625 Z M 9.515625 0.265625 "/></g></g></g><g fill="#2755a3" fill-opacity="1"><g transform="translate(101.142335, 25.577346)"><g><path d="M 7.328125 -15.9375 L 10.53125 -15.9375 L 17.3125 0 L 13.671875 0 L 12.234375 -3.546875 L 5.546875 -3.546875 L 4.09375 0 L 0.546875 0 Z M 10.984375 -6.625 L 8.890625 -11.75 L 6.78125 -6.625 Z M 10.984375 -6.625 "/></g></g></g><g fill="#2755a3" fill-opacity="1"><g transform="translate(118.994432, 25.577346)"><g><path d="M 1.90625 -15.828125 L 5.65625 -15.828125 L 9.8125 -9.140625 L 13.96875 -15.828125 L 17.71875 -15.828125 L 17.71875 0 L 14.265625 0 L 14.265625 -10.328125 L 9.8125 -3.578125 L 9.71875 -3.578125 L 5.3125 -10.265625 L 5.3125 0 L 1.90625 0 Z M 1.90625 -15.828125 "/></g></g></g><g clip-path="url(#1a069740f5)"><path fill="#7cb342" d="M 26.253906 8.566406 C 25.609375 8.566406 25.085938 9.085938 25.085938 9.71875 C 25.085938 10.355469 25.609375 10.871094 26.253906 10.871094 C 26.898438 10.871094 27.421875 10.355469 27.421875 9.71875 C 27.421875 9.085938 26.898438 8.566406 26.253906 8.566406 Z M 24.589844 19.851562 L 20.273438 6.875 L 25.171875 16.816406 L 27.273438 13.523438 L 23.882812 13.066406 L 22.949219 11.183594 L 28.480469 12.324219 L 29.488281 12.53125 L 28.945312 13.339844 L 25.527344 18.449219 L 24.589844 19.851562 " fill-opacity="1" fill-rule="nonzero"/></g><g clip-path="url(#22a8cff904)"><path fill="#f57c00" d="M 13.917969 7.414062 C 13.273438 7.414062 12.75 7.929688 12.75 8.566406 C 12.75 9.203125 13.273438 9.71875 13.917969 9.71875 C 14.5625 9.71875 15.085938 9.203125 15.085938 8.566406 C 15.085938 7.929688 14.5625 7.414062 13.917969 7.414062 Z M 21.835938 15.210938 L 8.742188 10.777344 L 19.734375 12.921875 L 18.339844 9.28125 L 15.925781 11.675781 L 13.839844 11.273438 L 18.101562 7.609375 L 18.875 6.941406 L 19.203125 7.855469 L 21.269531 13.628906 L 21.835938 15.210938 " fill-opacity="1" fill-rule="nonzero"/></g><g clip-path="url(#ee1fffe1f9)"><path fill="#3c9cd6" d="M 31.785156 17.675781 C 31.140625 17.675781 30.617188 18.191406 30.617188 18.828125 C 30.617188 19.464844 31.140625 19.980469 31.785156 19.980469 C 32.433594 19.980469 32.953125 19.464844 32.953125 18.828125 C 32.953125 18.191406 32.433594 17.675781 31.785156 17.675781 Z M 22.980469 24.464844 L 30.472656 12.976562 L 25.734375 22.992188 L 29.652344 22.53125 L 27.875 19.644531 L 28.769531 17.742188 L 31.355469 22.699219 L 31.824219 23.601562 L 30.847656 23.695312 L 24.675781 24.296875 L 22.980469 24.464844 " fill-opacity="1" fill-rule="nonzero"/></g><path fill="#1a237e" d="M 27.421875 28.644531 C 26.777344 28.644531 26.253906 29.160156 26.253906 29.796875 C 26.253906 30.433594 26.777344 30.949219 27.421875 30.949219 C 28.066406 30.949219 28.589844 30.433594 28.589844 29.796875 C 28.589844 29.160156 28.066406 28.644531 27.421875 28.644531 Z M 17.765625 25.734375 L 31.558594 24.515625 L 20.632812 26.980469 L 23.410156 29.742188 L 24.625 26.589844 L 26.699219 26.117188 L 24.320312 31.171875 L 23.886719 32.09375 L 23.210938 31.390625 L 18.9375 26.953125 L 17.765625 25.734375 " fill-opacity="1" fill-rule="nonzero"/><g clip-path="url(#86c1e8a572)"><path fill="#ef5350" d="M 17.339844 31.078125 C 16.691406 31.078125 16.167969 31.59375 16.167969 32.230469 C 16.167969 32.867188 16.691406 33.382812 17.339844 33.382812 C 17.984375 33.382812 18.507812 32.867188 18.507812 32.230469 C 18.507812 31.59375 17.984375 31.078125 17.339844 31.078125 Z M 13.761719 22.644531 L 23.066406 32.757812 L 14.488281 25.652344 L 13.925781 29.503906 L 17.210938 28.554688 L 18.84375 29.902344 L 13.320312 31.082031 L 12.316406 31.296875 L 12.476562 30.339844 L 13.484375 24.300781 L 13.761719 22.644531 " fill-opacity="1" fill-rule="nonzero"/></g><path fill="#e3a72f" d="M 7.574219 24.753906 C 6.929688 24.753906 6.40625 25.269531 6.40625 25.90625 C 6.40625 26.542969 6.929688 27.058594 7.574219 27.058594 C 8.21875 27.058594 8.742188 26.542969 8.742188 25.90625 C 8.742188 25.269531 8.21875 24.753906 7.574219 24.753906 Z M 13.480469 17.691406 L 11.472656 31.207031 L 11.585938 20.15625 L 8.214844 22.175781 L 11.042969 24.074219 L 11.027344 26.171875 L 6.59375 22.714844 L 5.785156 22.085938 L 6.636719 21.601562 L 12.003906 18.535156 L 13.480469 17.691406 " fill-opacity="1" fill-rule="nonzero"/><g clip-path="url(#a63d6e2232)"><path fill="#9c27b0" d="M 6.40625 14.996094 C 5.761719 14.996094 5.238281 15.511719 5.238281 16.148438 C 5.238281 16.785156 5.761719 17.300781 6.40625 17.300781 C 7.050781 17.300781 7.574219 16.785156 7.574219 16.148438 C 7.574219 15.511719 7.050781 14.996094 6.40625 14.996094 Z M 16.550781 14.277344 L 4.964844 21.753906 L 13.425781 14.511719 L 9.660156 13.359375 L 10.089844 16.707031 L 8.488281 18.085938 L 8.175781 12.519531 L 8.117188 11.507812 L 9.046875 11.8125 L 14.933594 13.746094 L 16.550781 14.277344 " fill-opacity="1" fill-rule="nonzero"/></g><g fill="#2755a3" fill-opacity="1"><g transform="translate(34.50854, 32.473374)"><g><path d="M 2.640625 0.046875 C 2.203125 0.046875 1.800781 -0.0507812 1.4375 -0.25 C 1.082031 -0.457031 0.800781 -0.742188 0.59375 -1.109375 C 0.382812 -1.472656 0.28125 -1.882812 0.28125 -2.34375 C 0.28125 -2.800781 0.382812 -3.210938 0.59375 -3.578125 C 0.800781 -3.941406 1.082031 -4.222656 1.4375 -4.421875 C 1.800781 -4.628906 2.203125 -4.734375 2.640625 -4.734375 C 3.078125 -4.734375 3.472656 -4.628906 3.828125 -4.421875 C 4.191406 -4.222656 4.472656 -3.941406 4.671875 -3.578125 C 4.878906 -3.210938 4.984375 -2.800781 4.984375 -2.34375 C 4.984375 -1.882812 4.878906 -1.472656 4.671875 -1.109375 C 4.472656 -0.742188 4.191406 -0.457031 3.828125 -0.25 C 3.472656 -0.0507812 3.078125 0.046875 2.640625 0.046875 Z M 2.640625 -0.484375 C 2.960938 -0.484375 3.253906 -0.554688 3.515625 -0.703125 C 3.785156 -0.859375 3.992188 -1.078125 4.140625 -1.359375 C 4.285156 -1.640625 4.359375 -1.96875 4.359375 -2.34375 C 4.359375 -2.71875 4.285156 -3.046875 4.140625 -3.328125 C 3.992188 -3.609375 3.789062 -3.820312 3.53125 -3.96875 C 3.269531 -4.125 2.972656 -4.203125 2.640625 -4.203125 C 2.304688 -4.203125 2.007812 -4.125 1.75 -3.96875 C 1.488281 -3.820312 1.28125 -3.609375 1.125 -3.328125 C 0.976562 -3.046875 0.90625 -2.71875 0.90625 -2.34375 C 0.90625 -1.96875 0.976562 -1.640625 1.125 -1.359375 C 1.28125 -1.078125 1.488281 -0.859375 1.75 -0.703125 C 2.019531 -0.554688 2.316406 -0.484375 2.640625 -0.484375 Z M 2.640625 -0.484375 "/></g></g></g><g fill="#2755a3" fill-opacity="1"><g transform="translate(39.79369, 32.473374)"><g><path d="M 2.3125 -3.75 C 2.757812 -3.75 3.117188 -3.613281 3.390625 -3.34375 C 3.671875 -3.070312 3.8125 -2.679688 3.8125 -2.171875 L 3.8125 0 L 3.21875 0 L 3.21875 -2.078125 C 3.21875 -2.453125 3.125 -2.734375 2.9375 -2.921875 C 2.75 -3.117188 2.5 -3.21875 2.1875 -3.21875 C 1.863281 -3.21875 1.601562 -3.113281 1.40625 -2.90625 C 1.21875 -2.707031 1.125 -2.414062 1.125 -2.03125 L 1.125 0 L 0.515625 0 L 0.515625 -3.6875 L 1.125 -3.6875 L 1.125 -3.15625 C 1.25 -3.34375 1.414062 -3.488281 1.625 -3.59375 C 1.832031 -3.695312 2.0625 -3.75 2.3125 -3.75 Z M 2.3125 -3.75 "/></g></g></g><g fill="#2755a3" fill-opacity="1"><g transform="translate(44.097119, 32.473374)"><g><path d="M 3.875 -1.984375 C 3.875 -1.867188 3.867188 -1.742188 3.859375 -1.609375 L 0.90625 -1.609375 C 0.9375 -1.242188 1.0625 -0.957031 1.28125 -0.75 C 1.507812 -0.550781 1.785156 -0.453125 2.109375 -0.453125 C 2.367188 -0.453125 2.585938 -0.515625 2.765625 -0.640625 C 2.941406 -0.765625 3.066406 -0.929688 3.140625 -1.140625 L 3.796875 -1.140625 C 3.703125 -0.785156 3.503906 -0.492188 3.203125 -0.265625 C 2.910156 -0.046875 2.546875 0.0625 2.109375 0.0625 C 1.753906 0.0625 1.441406 -0.015625 1.171875 -0.171875 C 0.898438 -0.328125 0.679688 -0.550781 0.515625 -0.84375 C 0.359375 -1.132812 0.28125 -1.46875 0.28125 -1.84375 C 0.28125 -2.226562 0.359375 -2.5625 0.515625 -2.84375 C 0.671875 -3.132812 0.882812 -3.359375 1.15625 -3.515625 C 1.4375 -3.671875 1.753906 -3.75 2.109375 -3.75 C 2.460938 -3.75 2.769531 -3.671875 3.03125 -3.515625 C 3.300781 -3.359375 3.507812 -3.144531 3.65625 -2.875 C 3.800781 -2.613281 3.875 -2.316406 3.875 -1.984375 Z M 3.25 -2.109375 C 3.25 -2.335938 3.195312 -2.535156 3.09375 -2.703125 C 2.988281 -2.878906 2.847656 -3.007812 2.671875 -3.09375 C 2.492188 -3.175781 2.296875 -3.21875 2.078125 -3.21875 C 1.773438 -3.21875 1.515625 -3.117188 1.296875 -2.921875 C 1.078125 -2.734375 0.953125 -2.460938 0.921875 -2.109375 Z M 3.25 -2.109375 "/></g></g></g><g fill="#2755a3" fill-opacity="1"><g transform="translate(48.266063, 32.473374)"><g/></g></g><g fill="#2755a3" fill-opacity="1"><g transform="translate(50.061401, 32.473374)"><g><path d="M 1.125 -3 C 1.25 -3.207031 1.429688 -3.382812 1.671875 -3.53125 C 1.910156 -3.675781 2.1875 -3.75 2.5 -3.75 C 2.832031 -3.75 3.128906 -3.664062 3.390625 -3.5 C 3.660156 -3.34375 3.867188 -3.125 4.015625 -2.84375 C 4.171875 -2.5625 4.25 -2.234375 4.25 -1.859375 C 4.25 -1.484375 4.171875 -1.148438 4.015625 -0.859375 C 3.867188 -0.566406 3.660156 -0.335938 3.390625 -0.171875 C 3.128906 -0.015625 2.832031 0.0625 2.5 0.0625 C 2.1875 0.0625 1.910156 -0.00390625 1.671875 -0.140625 C 1.429688 -0.285156 1.25 -0.460938 1.125 -0.671875 L 1.125 1.75 L 0.515625 1.75 L 0.515625 -3.6875 L 1.125 -3.6875 Z M 3.625 -1.859375 C 3.625 -2.128906 3.566406 -2.367188 3.453125 -2.578125 C 3.347656 -2.785156 3.195312 -2.941406 3 -3.046875 C 2.8125 -3.160156 2.601562 -3.21875 2.375 -3.21875 C 2.15625 -3.21875 1.945312 -3.160156 1.75 -3.046875 C 1.5625 -2.929688 1.410156 -2.769531 1.296875 -2.5625 C 1.179688 -2.351562 1.125 -2.113281 1.125 -1.84375 C 1.125 -1.570312 1.179688 -1.332031 1.296875 -1.125 C 1.410156 -0.914062 1.5625 -0.753906 1.75 -0.640625 C 1.945312 -0.535156 2.15625 -0.484375 2.375 -0.484375 C 2.601562 -0.484375 2.8125 -0.535156 3 -0.640625 C 3.195312 -0.753906 3.347656 -0.914062 3.453125 -1.125 C 3.566406 -1.332031 3.625 -1.578125 3.625 -1.859375 Z M 3.625 -1.859375 "/></g></g></g><g fill="#2755a3" fill-opacity="1"><g transform="translate(54.6069, 32.473374)"><g><path d="M 1.125 -4.96875 L 1.125 0 L 0.515625 0 L 0.515625 -4.96875 Z M 1.125 -4.96875 "/></g></g></g><g fill="#2755a3" fill-opacity="1"><g transform="translate(56.261034, 32.473374)"><g><path d="M 0.28125 -1.859375 C 0.28125 -2.234375 0.359375 -2.5625 0.515625 -2.84375 C 0.671875 -3.125 0.878906 -3.34375 1.140625 -3.5 C 1.410156 -3.664062 1.707031 -3.75 2.03125 -3.75 C 2.351562 -3.75 2.632812 -3.675781 2.875 -3.53125 C 3.113281 -3.394531 3.289062 -3.222656 3.40625 -3.015625 L 3.40625 -3.6875 L 4.03125 -3.6875 L 4.03125 0 L 3.40625 0 L 3.40625 -0.6875 C 3.28125 -0.46875 3.097656 -0.285156 2.859375 -0.140625 C 2.617188 -0.00390625 2.34375 0.0625 2.03125 0.0625 C 1.695312 0.0625 1.398438 -0.015625 1.140625 -0.171875 C 0.878906 -0.335938 0.671875 -0.566406 0.515625 -0.859375 C 0.359375 -1.148438 0.28125 -1.484375 0.28125 -1.859375 Z M 3.40625 -1.84375 C 3.40625 -2.125 3.347656 -2.363281 3.234375 -2.5625 C 3.128906 -2.769531 2.976562 -2.929688 2.78125 -3.046875 C 2.59375 -3.160156 2.382812 -3.21875 2.15625 -3.21875 C 1.925781 -3.21875 1.71875 -3.160156 1.53125 -3.046875 C 1.34375 -2.941406 1.191406 -2.785156 1.078125 -2.578125 C 0.960938 -2.367188 0.90625 -2.128906 0.90625 -1.859375 C 0.90625 -1.578125 0.960938 -1.332031 1.078125 -1.125 C 1.191406 -0.914062 1.34375 -0.753906 1.53125 -0.640625 C 1.71875 -0.535156 1.925781 -0.484375 2.15625 -0.484375 C 2.382812 -0.484375 2.59375 -0.535156 2.78125 -0.640625 C 2.976562 -0.753906 3.128906 -0.914062 3.234375 -1.125 C 3.347656 -1.332031 3.40625 -1.570312 3.40625 -1.84375 Z M 3.40625 -1.84375 "/></g></g></g><g fill="#2755a3" fill-opacity="1"><g transform="translate(60.806532, 32.473374)"><g><path d="M 1.265625 -3.171875 L 1.265625 -1 C 1.265625 -0.820312 1.300781 -0.695312 1.375 -0.625 C 1.445312 -0.550781 1.582031 -0.515625 1.78125 -0.515625 L 2.21875 -0.515625 L 2.21875 0 L 1.671875 0 C 1.328125 0 1.070312 -0.078125 0.90625 -0.234375 C 0.738281 -0.390625 0.65625 -0.644531 0.65625 -1 L 0.65625 -3.171875 L 0.171875 -3.171875 L 0.171875 -3.6875 L 0.65625 -3.6875 L 0.65625 -4.609375 L 1.265625 -4.609375 L 1.265625 -3.6875 L 2.21875 -3.6875 L 2.21875 -3.171875 Z M 1.265625 -3.171875 "/></g></g></g><g fill="#2755a3" fill-opacity="1"><g transform="translate(63.254105, 32.473374)"><g><path d="M 2.015625 -3.171875 L 1.25 -3.171875 L 1.25 0 L 0.625 0 L 0.625 -3.171875 L 0.15625 -3.171875 L 0.15625 -3.6875 L 0.625 -3.6875 L 0.625 -3.9375 C 0.625 -4.351562 0.726562 -4.65625 0.9375 -4.84375 C 1.15625 -5.039062 1.5 -5.140625 1.96875 -5.140625 L 1.96875 -4.625 C 1.707031 -4.625 1.519531 -4.570312 1.40625 -4.46875 C 1.300781 -4.363281 1.25 -4.1875 1.25 -3.9375 L 1.25 -3.6875 L 2.015625 -3.6875 Z M 2.015625 -3.171875 "/></g></g></g><g fill="#2755a3" fill-opacity="1"><g transform="translate(65.466337, 32.473374)"><g><path d="M 2.125 0.0625 C 1.78125 0.0625 1.46875 -0.015625 1.1875 -0.171875 C 0.90625 -0.328125 0.679688 -0.550781 0.515625 -0.84375 C 0.359375 -1.132812 0.28125 -1.46875 0.28125 -1.84375 C 0.28125 -2.21875 0.363281 -2.550781 0.53125 -2.84375 C 0.695312 -3.132812 0.921875 -3.359375 1.203125 -3.515625 C 1.484375 -3.671875 1.800781 -3.75 2.15625 -3.75 C 2.5 -3.75 2.8125 -3.671875 3.09375 -3.515625 C 3.375 -3.359375 3.597656 -3.132812 3.765625 -2.84375 C 3.929688 -2.5625 4.015625 -2.226562 4.015625 -1.84375 C 4.015625 -1.46875 3.925781 -1.132812 3.75 -0.84375 C 3.582031 -0.550781 3.351562 -0.328125 3.0625 -0.171875 C 2.78125 -0.015625 2.46875 0.0625 2.125 0.0625 Z M 2.125 -0.484375 C 2.34375 -0.484375 2.546875 -0.53125 2.734375 -0.625 C 2.929688 -0.726562 3.085938 -0.882812 3.203125 -1.09375 C 3.328125 -1.300781 3.390625 -1.550781 3.390625 -1.84375 C 3.390625 -2.144531 3.328125 -2.394531 3.203125 -2.59375 C 3.085938 -2.800781 2.9375 -2.957031 2.75 -3.0625 C 2.5625 -3.164062 2.359375 -3.21875 2.140625 -3.21875 C 1.921875 -3.21875 1.71875 -3.164062 1.53125 -3.0625 C 1.34375 -2.957031 1.191406 -2.800781 1.078125 -2.59375 C 0.960938 -2.394531 0.90625 -2.144531 0.90625 -1.84375 C 0.90625 -1.539062 0.960938 -1.285156 1.078125 -1.078125 C 1.191406 -0.878906 1.335938 -0.726562 1.515625 -0.625 C 1.703125 -0.53125 1.90625 -0.484375 2.125 -0.484375 Z M 2.125 -0.484375 "/></g></g></g><g fill="#2755a3" fill-opacity="1"><g transform="translate(69.769766, 32.473374)"><g><path d="M 1.125 -3.078125 C 1.238281 -3.296875 1.394531 -3.460938 1.59375 -3.578125 C 1.789062 -3.691406 2.03125 -3.75 2.3125 -3.75 L 2.3125 -3.125 L 2.15625 -3.125 C 1.46875 -3.125 1.125 -2.75 1.125 -2 L 1.125 0 L 0.515625 0 L 0.515625 -3.6875 L 1.125 -3.6875 Z M 1.125 -3.078125 "/></g></g></g><g fill="#2755a3" fill-opacity="1"><g transform="translate(72.277856, 32.473374)"><g><path d="M 4.9375 -3.75 C 5.226562 -3.75 5.484375 -3.6875 5.703125 -3.5625 C 5.929688 -3.445312 6.109375 -3.269531 6.234375 -3.03125 C 6.367188 -2.800781 6.4375 -2.515625 6.4375 -2.171875 L 6.4375 0 L 5.828125 0 L 5.828125 -2.078125 C 5.828125 -2.453125 5.734375 -2.734375 5.546875 -2.921875 C 5.367188 -3.117188 5.128906 -3.21875 4.828125 -3.21875 C 4.503906 -3.21875 4.25 -3.113281 4.0625 -2.90625 C 3.875 -2.707031 3.78125 -2.414062 3.78125 -2.03125 L 3.78125 0 L 3.171875 0 L 3.171875 -2.078125 C 3.171875 -2.453125 3.082031 -2.734375 2.90625 -2.921875 C 2.726562 -3.117188 2.484375 -3.21875 2.171875 -3.21875 C 1.847656 -3.21875 1.59375 -3.113281 1.40625 -2.90625 C 1.21875 -2.707031 1.125 -2.414062 1.125 -2.03125 L 1.125 0 L 0.515625 0 L 0.515625 -3.6875 L 1.125 -3.6875 L 1.125 -3.15625 C 1.25 -3.34375 1.410156 -3.488281 1.609375 -3.59375 C 1.816406 -3.695312 2.046875 -3.75 2.296875 -3.75 C 2.597656 -3.75 2.867188 -3.675781 3.109375 -3.53125 C 3.347656 -3.394531 3.523438 -3.191406 3.640625 -2.921875 C 3.742188 -3.179688 3.914062 -3.382812 4.15625 -3.53125 C 4.394531 -3.675781 4.65625 -3.75 4.9375 -3.75 Z M 4.9375 -3.75 "/></g></g></g><g fill="#2755a3" fill-opacity="1"><g transform="translate(79.20369, 32.473374)"><g/></g></g><g fill="#2755a3" fill-opacity="1"><g transform="translate(80.999029, 32.473374)"><g><path d="M 2.015625 -3.171875 L 1.25 -3.171875 L 1.25 0 L 0.625 0 L 0.625 -3.171875 L 0.15625 -3.171875 L 0.15625 -3.6875 L 0.625 -3.6875 L 0.625 -3.9375 C 0.625 -4.351562 0.726562 -4.65625 0.9375 -4.84375 C 1.15625 -5.039062 1.5 -5.140625 1.96875 -5.140625 L 1.96875 -4.625 C 1.707031 -4.625 1.519531 -4.570312 1.40625 -4.46875 C 1.300781 -4.363281 1.25 -4.1875 1.25 -3.9375 L 1.25 -3.6875 L 2.015625 -3.6875 Z M 2.015625 -3.171875 "/></g></g></g><g fill="#2755a3" fill-opacity="1"><g transform="translate(83.211261, 32.473374)"><g><path d="M 2.125 0.0625 C 1.78125 0.0625 1.46875 -0.015625 1.1875 -0.171875 C 0.90625 -0.328125 0.679688 -0.550781 0.515625 -0.84375 C 0.359375 -1.132812 0.28125 -1.46875 0.28125 -1.84375 C 0.28125 -2.21875 0.363281 -2.550781 0.53125 -2.84375 C 0.695312 -3.132812 0.921875 -3.359375 1.203125 -3.515625 C 1.484375 -3.671875 1.800781 -3.75 2.15625 -3.75 C 2.5 -3.75 2.8125 -3.671875 3.09375 -3.515625 C 3.375 -3.359375 3.597656 -3.132812 3.765625 -2.84375 C 3.929688 -2.5625 4.015625 -2.226562 4.015625 -1.84375 C 4.015625 -1.46875 3.925781 -1.132812 3.75 -0.84375 C 3.582031 -0.550781 3.351562 -0.328125 3.0625 -0.171875 C 2.78125 -0.015625 2.46875 0.0625 2.125 0.0625 Z M 2.125 -0.484375 C 2.34375 -0.484375 2.546875 -0.53125 2.734375 -0.625 C 2.929688 -0.726562 3.085938 -0.882812 3.203125 -1.09375 C 3.328125 -1.300781 3.390625 -1.550781 3.390625 -1.84375 C 3.390625 -2.144531 3.328125 -2.394531 3.203125 -2.59375 C 3.085938 -2.800781 2.9375 -2.957031 2.75 -3.0625 C 2.5625 -3.164062 2.359375 -3.21875 2.140625 -3.21875 C 1.921875 -3.21875 1.71875 -3.164062 1.53125 -3.0625 C 1.34375 -2.957031 1.191406 -2.800781 1.078125 -2.59375 C 0.960938 -2.394531 0.90625 -2.144531 0.90625 -1.84375 C 0.90625 -1.539062 0.960938 -1.285156 1.078125 -1.078125 C 1.191406 -0.878906 1.335938 -0.726562 1.515625 -0.625 C 1.703125 -0.53125 1.90625 -0.484375 2.125 -0.484375 Z M 2.125 -0.484375 "/></g></g></g><g fill="#2755a3" fill-opacity="1"><g transform="translate(87.514689, 32.473374)"><g><path d="M 1.125 -3.078125 C 1.238281 -3.296875 1.394531 -3.460938 1.59375 -3.578125 C 1.789062 -3.691406 2.03125 -3.75 2.3125 -3.75 L 2.3125 -3.125 L 2.15625 -3.125 C 1.46875 -3.125 1.125 -2.75 1.125 -2 L 1.125 0 L 0.515625 0 L 0.515625 -3.6875 L 1.125 -3.6875 Z M 1.125 -3.078125 "/></g></g></g><g fill="#2755a3" fill-opacity="1"><g transform="translate(90.02278, 32.473374)"><g/></g></g><g fill="#2755a3" fill-opacity="1"><g transform="translate(91.818118, 32.473374)"><g><path d="M 3.875 -1.984375 C 3.875 -1.867188 3.867188 -1.742188 3.859375 -1.609375 L 0.90625 -1.609375 C 0.9375 -1.242188 1.0625 -0.957031 1.28125 -0.75 C 1.507812 -0.550781 1.785156 -0.453125 2.109375 -0.453125 C 2.367188 -0.453125 2.585938 -0.515625 2.765625 -0.640625 C 2.941406 -0.765625 3.066406 -0.929688 3.140625 -1.140625 L 3.796875 -1.140625 C 3.703125 -0.785156 3.503906 -0.492188 3.203125 -0.265625 C 2.910156 -0.046875 2.546875 0.0625 2.109375 0.0625 C 1.753906 0.0625 1.441406 -0.015625 1.171875 -0.171875 C 0.898438 -0.328125 0.679688 -0.550781 0.515625 -0.84375 C 0.359375 -1.132812 0.28125 -1.46875 0.28125 -1.84375 C 0.28125 -2.226562 0.359375 -2.5625 0.515625 -2.84375 C 0.671875 -3.132812 0.882812 -3.359375 1.15625 -3.515625 C 1.4375 -3.671875 1.753906 -3.75 2.109375 -3.75 C 2.460938 -3.75 2.769531 -3.671875 3.03125 -3.515625 C 3.300781 -3.359375 3.507812 -3.144531 3.65625 -2.875 C 3.800781 -2.613281 3.875 -2.316406 3.875 -1.984375 Z M 3.25 -2.109375 C 3.25 -2.335938 3.195312 -2.535156 3.09375 -2.703125 C 2.988281 -2.878906 2.847656 -3.007812 2.671875 -3.09375 C 2.492188 -3.175781 2.296875 -3.21875 2.078125 -3.21875 C 1.773438 -3.21875 1.515625 -3.117188 1.296875 -2.921875 C 1.078125 -2.734375 0.953125 -2.460938 0.921875 -2.109375 Z M 3.25 -2.109375 "/></g></g></g><g fill="#2755a3" fill-opacity="1"><g transform="translate(95.987062, 32.473374)"><g><path d="M 1.890625 -0.5625 L 3.03125 -3.6875 L 3.6875 -3.6875 L 2.234375 0 L 1.53125 0 L 0.078125 -3.6875 L 0.734375 -3.6875 Z M 1.890625 -0.5625 "/></g></g></g><g fill="#2755a3" fill-opacity="1"><g transform="translate(99.759283, 32.473374)"><g><path d="M 3.875 -1.984375 C 3.875 -1.867188 3.867188 -1.742188 3.859375 -1.609375 L 0.90625 -1.609375 C 0.9375 -1.242188 1.0625 -0.957031 1.28125 -0.75 C 1.507812 -0.550781 1.785156 -0.453125 2.109375 -0.453125 C 2.367188 -0.453125 2.585938 -0.515625 2.765625 -0.640625 C 2.941406 -0.765625 3.066406 -0.929688 3.140625 -1.140625 L 3.796875 -1.140625 C 3.703125 -0.785156 3.503906 -0.492188 3.203125 -0.265625 C 2.910156 -0.046875 2.546875 0.0625 2.109375 0.0625 C 1.753906 0.0625 1.441406 -0.015625 1.171875 -0.171875 C 0.898438 -0.328125 0.679688 -0.550781 0.515625 -0.84375 C 0.359375 -1.132812 0.28125 -1.46875 0.28125 -1.84375 C 0.28125 -2.226562 0.359375 -2.5625 0.515625 -2.84375 C 0.671875 -3.132812 0.882812 -3.359375 1.15625 -3.515625 C 1.4375 -3.671875 1.753906 -3.75 2.109375 -3.75 C 2.460938 -3.75 2.769531 -3.671875 3.03125 -3.515625 C 3.300781 -3.359375 3.507812 -3.144531 3.65625 -2.875 C 3.800781 -2.613281 3.875 -2.316406 3.875 -1.984375 Z M 3.25 -2.109375 C 3.25 -2.335938 3.195312 -2.535156 3.09375 -2.703125 C 2.988281 -2.878906 2.847656 -3.007812 2.671875 -3.09375 C 2.492188 -3.175781 2.296875 -3.21875 2.078125 -3.21875 C 1.773438 -3.21875 1.515625 -3.117188 1.296875 -2.921875 C 1.078125 -2.734375 0.953125 -2.460938 0.921875 -2.109375 Z M 3.25 -2.109375 "/></g></g></g><g fill="#2755a3" fill-opacity="1"><g transform="translate(103.928227, 32.473374)"><g><path d="M 1.125 -3.078125 C 1.238281 -3.296875 1.394531 -3.460938 1.59375 -3.578125 C 1.789062 -3.691406 2.03125 -3.75 2.3125 -3.75 L 2.3125 -3.125 L 2.15625 -3.125 C 1.46875 -3.125 1.125 -2.75 1.125 -2 L 1.125 0 L 0.515625 0 L 0.515625 -3.6875 L 1.125 -3.6875 Z M 1.125 -3.078125 "/></g></g></g><g fill="#2755a3" fill-opacity="1"><g transform="translate(106.436318, 32.473374)"><g><path d="M 3.6875 -3.6875 L 1.46875 1.734375 L 0.84375 1.734375 L 1.5625 -0.046875 L 0.078125 -3.6875 L 0.765625 -3.6875 L 1.921875 -0.703125 L 3.0625 -3.6875 Z M 3.6875 -3.6875 "/></g></g></g><g fill="#2755a3" fill-opacity="1"><g transform="translate(110.221988, 32.473374)"><g/></g></g><g fill="#2755a3" fill-opacity="1"><g transform="translate(112.017326, 32.473374)"><g><path d="M 1.828125 0.0625 C 1.535156 0.0625 1.273438 0.015625 1.046875 -0.078125 C 0.828125 -0.179688 0.648438 -0.316406 0.515625 -0.484375 C 0.390625 -0.660156 0.320312 -0.859375 0.3125 -1.078125 L 0.953125 -1.078125 C 0.960938 -0.898438 1.046875 -0.75 1.203125 -0.625 C 1.359375 -0.507812 1.5625 -0.453125 1.8125 -0.453125 C 2.039062 -0.453125 2.222656 -0.503906 2.359375 -0.609375 C 2.492188 -0.710938 2.5625 -0.84375 2.5625 -1 C 2.5625 -1.164062 2.488281 -1.285156 2.34375 -1.359375 C 2.207031 -1.441406 1.988281 -1.519531 1.6875 -1.59375 C 1.414062 -1.664062 1.191406 -1.738281 1.015625 -1.8125 C 0.847656 -1.882812 0.703125 -1.992188 0.578125 -2.140625 C 0.453125 -2.285156 0.390625 -2.476562 0.390625 -2.71875 C 0.390625 -2.90625 0.441406 -3.078125 0.546875 -3.234375 C 0.660156 -3.390625 0.820312 -3.515625 1.03125 -3.609375 C 1.238281 -3.703125 1.472656 -3.75 1.734375 -3.75 C 2.140625 -3.75 2.46875 -3.644531 2.71875 -3.4375 C 2.976562 -3.226562 3.113281 -2.945312 3.125 -2.59375 L 2.515625 -2.59375 C 2.503906 -2.78125 2.425781 -2.929688 2.28125 -3.046875 C 2.144531 -3.160156 1.957031 -3.21875 1.71875 -3.21875 C 1.5 -3.21875 1.320312 -3.171875 1.1875 -3.078125 C 1.0625 -2.984375 1 -2.863281 1 -2.71875 C 1 -2.59375 1.035156 -2.488281 1.109375 -2.40625 C 1.191406 -2.332031 1.289062 -2.269531 1.40625 -2.21875 C 1.53125 -2.175781 1.695312 -2.125 1.90625 -2.0625 C 2.164062 -2 2.378906 -1.929688 2.546875 -1.859375 C 2.710938 -1.785156 2.851562 -1.679688 2.96875 -1.546875 C 3.09375 -1.410156 3.160156 -1.226562 3.171875 -1 C 3.171875 -0.800781 3.113281 -0.617188 3 -0.453125 C 2.882812 -0.296875 2.722656 -0.171875 2.515625 -0.078125 C 2.316406 0.015625 2.085938 0.0625 1.828125 0.0625 Z M 1.828125 0.0625 "/></g></g></g><g fill="#2755a3" fill-opacity="1"><g transform="translate(115.527307, 32.473374)"><g><path d="M 3.875 -1.984375 C 3.875 -1.867188 3.867188 -1.742188 3.859375 -1.609375 L 0.90625 -1.609375 C 0.9375 -1.242188 1.0625 -0.957031 1.28125 -0.75 C 1.507812 -0.550781 1.785156 -0.453125 2.109375 -0.453125 C 2.367188 -0.453125 2.585938 -0.515625 2.765625 -0.640625 C 2.941406 -0.765625 3.066406 -0.929688 3.140625 -1.140625 L 3.796875 -1.140625 C 3.703125 -0.785156 3.503906 -0.492188 3.203125 -0.265625 C 2.910156 -0.046875 2.546875 0.0625 2.109375 0.0625 C 1.753906 0.0625 1.441406 -0.015625 1.171875 -0.171875 C 0.898438 -0.328125 0.679688 -0.550781 0.515625 -0.84375 C 0.359375 -1.132812 0.28125 -1.46875 0.28125 -1.84375 C 0.28125 -2.226562 0.359375 -2.5625 0.515625 -2.84375 C 0.671875 -3.132812 0.882812 -3.359375 1.15625 -3.515625 C 1.4375 -3.671875 1.753906 -3.75 2.109375 -3.75 C 2.460938 -3.75 2.769531 -3.671875 3.03125 -3.515625 C 3.300781 -3.359375 3.507812 -3.144531 3.65625 -2.875 C 3.800781 -2.613281 3.875 -2.316406 3.875 -1.984375 Z M 3.25 -2.109375 C 3.25 -2.335938 3.195312 -2.535156 3.09375 -2.703125 C 2.988281 -2.878906 2.847656 -3.007812 2.671875 -3.09375 C 2.492188 -3.175781 2.296875 -3.21875 2.078125 -3.21875 C 1.773438 -3.21875 1.515625 -3.117188 1.296875 -2.921875 C 1.078125 -2.734375 0.953125 -2.460938 0.921875 -2.109375 Z M 3.25 -2.109375 "/></g></g></g><g fill="#2755a3" fill-opacity="1"><g transform="translate(119.696251, 32.473374)"><g><path d="M 1.125 -3.078125 C 1.238281 -3.296875 1.394531 -3.460938 1.59375 -3.578125 C 1.789062 -3.691406 2.03125 -3.75 2.3125 -3.75 L 2.3125 -3.125 L 2.15625 -3.125 C 1.46875 -3.125 1.125 -2.75 1.125 -2 L 1.125 0 L 0.515625 0 L 0.515625 -3.6875 L 1.125 -3.6875 Z M 1.125 -3.078125 "/></g></g></g><g fill="#2755a3" fill-opacity="1"><g transform="translate(122.204342, 32.473374)"><g><path d="M 1.890625 -0.5625 L 3.03125 -3.6875 L 3.6875 -3.6875 L 2.234375 0 L 1.53125 0 L 0.078125 -3.6875 L 0.734375 -3.6875 Z M 1.890625 -0.5625 "/></g></g></g><g fill="#2755a3" fill-opacity="1"><g transform="translate(125.976562, 32.473374)"><g><path d="M 0.828125 -4.28125 C 0.710938 -4.28125 0.613281 -4.316406 0.53125 -4.390625 C 0.457031 -4.472656 0.421875 -4.578125 0.421875 -4.703125 C 0.421875 -4.816406 0.457031 -4.910156 0.53125 -4.984375 C 0.613281 -5.066406 0.710938 -5.109375 0.828125 -5.109375 C 0.941406 -5.109375 1.035156 -5.066406 1.109375 -4.984375 C 1.191406 -4.910156 1.234375 -4.816406 1.234375 -4.703125 C 1.234375 -4.578125 1.191406 -4.472656 1.109375 -4.390625 C 1.035156 -4.316406 0.941406 -4.28125 0.828125 -4.28125 Z M 1.125 -3.6875 L 1.125 0 L 0.515625 0 L 0.515625 -3.6875 Z M 1.125 -3.6875 "/></g></g></g><g fill="#2755a3" fill-opacity="1"><g transform="translate(127.630696, 32.473374)"><g><path d="M 0.28125 -1.84375 C 0.28125 -2.226562 0.359375 -2.5625 0.515625 -2.84375 C 0.671875 -3.125 0.882812 -3.34375 1.15625 -3.5 C 1.425781 -3.664062 1.734375 -3.75 2.078125 -3.75 C 2.535156 -3.75 2.910156 -3.632812 3.203125 -3.40625 C 3.492188 -3.1875 3.6875 -2.882812 3.78125 -2.5 L 3.125 -2.5 C 3.0625 -2.71875 2.9375 -2.890625 2.75 -3.015625 C 2.570312 -3.148438 2.347656 -3.21875 2.078125 -3.21875 C 1.734375 -3.21875 1.453125 -3.097656 1.234375 -2.859375 C 1.015625 -2.617188 0.90625 -2.28125 0.90625 -1.84375 C 0.90625 -1.40625 1.015625 -1.0625 1.234375 -0.8125 C 1.453125 -0.570312 1.734375 -0.453125 2.078125 -0.453125 C 2.347656 -0.453125 2.570312 -0.515625 2.75 -0.640625 C 2.925781 -0.765625 3.050781 -0.945312 3.125 -1.1875 L 3.78125 -1.1875 C 3.6875 -0.8125 3.488281 -0.507812 3.1875 -0.28125 C 2.894531 -0.0507812 2.523438 0.0625 2.078125 0.0625 C 1.734375 0.0625 1.425781 -0.015625 1.15625 -0.171875 C 0.882812 -0.328125 0.671875 -0.546875 0.515625 -0.828125 C 0.359375 -1.117188 0.28125 -1.457031 0.28125 -1.84375 Z M 0.28125 -1.84375 "/></g></g></g><g fill="#2755a3" fill-opacity="1"><g transform="translate(131.712233, 32.473374)"><g><path d="M 3.875 -1.984375 C 3.875 -1.867188 3.867188 -1.742188 3.859375 -1.609375 L 0.90625 -1.609375 C 0.9375 -1.242188 1.0625 -0.957031 1.28125 -0.75 C 1.507812 -0.550781 1.785156 -0.453125 2.109375 -0.453125 C 2.367188 -0.453125 2.585938 -0.515625 2.765625 -0.640625 C 2.941406 -0.765625 3.066406 -0.929688 3.140625 -1.140625 L 3.796875 -1.140625 C 3.703125 -0.785156 3.503906 -0.492188 3.203125 -0.265625 C 2.910156 -0.046875 2.546875 0.0625 2.109375 0.0625 C 1.753906 0.0625 1.441406 -0.015625 1.171875 -0.171875 C 0.898438 -0.328125 0.679688 -0.550781 0.515625 -0.84375 C 0.359375 -1.132812 0.28125 -1.46875 0.28125 -1.84375 C 0.28125 -2.226562 0.359375 -2.5625 0.515625 -2.84375 C 0.671875 -3.132812 0.882812 -3.359375 1.15625 -3.515625 C 1.4375 -3.671875 1.753906 -3.75 2.109375 -3.75 C 2.460938 -3.75 2.769531 -3.671875 3.03125 -3.515625 C 3.300781 -3.359375 3.507812 -3.144531 3.65625 -2.875 C 3.800781 -2.613281 3.875 -2.316406 3.875 -1.984375 Z M 3.25 -2.109375 C 3.25 -2.335938 3.195312 -2.535156 3.09375 -2.703125 C 2.988281 -2.878906 2.847656 -3.007812 2.671875 -3.09375 C 2.492188 -3.175781 2.296875 -3.21875 2.078125 -3.21875 C 1.773438 -3.21875 1.515625 -3.117188 1.296875 -2.921875 C 1.078125 -2.734375 0.953125 -2.460938 0.921875 -2.109375 Z M 3.25 -2.109375 "/></g></g></g></svg>