<svg width="24" height="24" viewBox="0 0 24 24" fill="none" xmlns="http://www.w3.org/2000/svg">
<g id="text_to_speech">
<mask id="mask0_23_465" style="mask-type:alpha" maskUnits="userSpaceOnUse" x="0" y="0" width="24" height="24">
<rect id="Bounding box" width="23.4951" height="23.4951" fill="#D9D9D9"/>
</mask>
<g mask="url(#mask0_23_465)">
<path id="text_to_speech_2" d="M4.21712 21.0477C3.7289 21.0477 3.3119 20.8748 2.96613 20.529C2.62034 20.1833 2.44745 19.7663 2.44745 19.278V4.21711C2.44745 3.72888 2.62034 3.31188 2.96613 2.96611C3.3119 2.62033 3.7289 2.44743 4.21712 2.44743H12.3217L10.8534 3.91586H4.21712C4.12926 3.91586 4.05709 3.9441 4.0006 4.00059C3.94411 4.05707 3.91587 4.12925 3.91587 4.21711V19.278C3.91587 19.3659 3.94411 19.4381 4.0006 19.4946C4.05709 19.551 4.12926 19.5793 4.21712 19.5793H14.3832C14.4711 19.5793 14.5433 19.551 14.5998 19.4946C14.6562 19.4381 14.6845 19.3659 14.6845 19.278V16.8872H16.1529V19.278C16.1529 19.7663 15.98 20.1833 15.6342 20.529C15.2885 20.8748 14.8715 21.0477 14.3832 21.0477H4.21712ZM6.11857 17.3766V15.9082H12.4818V17.3766H6.11857ZM6.11857 14.5527V13.0843H10.5239V14.5527H6.11857ZM14.4397 14.1855L10.8722 10.618H8.07649V6.21268H10.8722L14.4397 2.64514V14.1855ZM16.3976 11.5386V5.29209C16.9411 5.62844 17.3625 6.07619 17.6618 6.63532C17.9612 7.19446 18.1108 7.78779 18.1108 8.41533C18.1108 9.04286 17.9596 9.6362 17.6571 10.1954C17.3546 10.7545 16.9348 11.2022 16.3976 11.5386ZM16.3976 15.5693V14.0218C17.4707 13.5762 18.3509 12.8423 19.038 11.8201C19.7252 10.7978 20.0688 9.66288 20.0688 8.41533C20.0688 7.16778 19.7252 6.03288 19.038 5.01061C18.3509 3.98834 17.4707 3.25443 16.3976 2.80887V1.26139C17.8811 1.7333 19.1086 2.62755 20.08 3.94413C21.0514 5.2607 21.5372 6.7511 21.5372 8.41533C21.5372 10.0796 21.0514 11.57 20.08 12.8865C19.1086 14.2031 17.8811 15.0974 16.3976 15.5693Z" fill="white"/>
</g>
</g>
</svg>
